<svg width="109" height="149" viewBox="0 0 109 149" fill="none" xmlns="http://www.w3.org/2000/svg">
<path d="M36.9498 103.334C36.9851 103.396 37.039 103.446 37.104 103.477C37.169 103.507 37.2419 103.517 37.3126 103.504L41.4459 102.75C42.7904 104.217 44.3652 105.454 46.1082 106.414L46.3559 110.605C46.3601 110.677 46.3866 110.746 46.4317 110.802C46.4768 110.858 46.5383 110.898 46.6075 110.918L51.4605 112.276C51.5296 112.296 51.6031 112.293 51.6706 112.269C51.7381 112.244 51.7964 112.199 51.8372 112.14L54.2257 108.687C56.2135 108.772 58.2018 108.532 60.1125 107.977L63.2536 110.767C63.3073 110.815 63.3745 110.845 63.4459 110.852C63.5174 110.86 63.5894 110.845 63.652 110.81L68.0445 108.339C68.1071 108.304 68.1572 108.25 68.1877 108.185C68.2182 108.12 68.2277 108.047 68.2148 107.976L67.4612 103.843C68.9277 102.498 70.1651 100.924 71.1248 99.1809L75.3164 98.9328C75.3881 98.9286 75.4566 98.9021 75.5126 98.857C75.5685 98.812 75.609 98.7507 75.6285 98.6815L76.9873 93.8282C77.0066 93.7591 77.0039 93.6856 76.9794 93.618C76.955 93.5505 76.9101 93.4922 76.8509 93.4515L73.3977 91.063C73.483 89.0752 73.2436 87.0869 72.6889 85.1762L75.4793 82.0351C75.527 81.9813 75.5567 81.9141 75.5644 81.8427C75.572 81.7713 75.5572 81.6992 75.522 81.6366L73.0511 77.2444C73.0159 77.1817 72.962 77.1316 72.897 77.101C72.832 77.0704 72.759 77.0609 72.6883 77.0738L68.555 77.8277C67.2102 76.3609 65.635 75.1234 63.8916 74.1641L63.6438 69.9725C63.6396 69.9008 63.6132 69.8322 63.5681 69.7763C63.5231 69.7204 63.4617 69.68 63.3925 69.6606L58.5393 68.3019C58.4701 68.2825 58.3966 68.2852 58.3291 68.3096C58.2616 68.3339 58.2033 68.3788 58.1625 68.4379L55.774 71.8897C53.7862 71.8048 51.7979 72.0447 49.8873 72.5999L46.7462 69.8095C46.6925 69.7618 46.6253 69.732 46.5538 69.7243C46.4824 69.7166 46.4104 69.7313 46.3477 69.7665L41.9555 72.2375C41.8929 72.2727 41.8428 72.3266 41.8123 72.3916C41.7817 72.4566 41.7721 72.5295 41.785 72.6002L42.5385 76.7336C41.0719 78.0781 39.8345 79.6529 38.8749 81.3959L34.6834 81.6437C34.6117 81.6479 34.5431 81.6744 34.4872 81.7195C34.4313 81.7646 34.3908 81.826 34.3715 81.8952L33.0128 86.7482C32.9934 86.8174 32.9961 86.8909 33.0205 86.9585C33.0449 87.0261 33.0897 87.0844 33.1488 87.1253L36.6006 89.5135C36.5161 91.5017 36.7564 93.4905 37.312 95.4014L34.5219 98.5426C34.4742 98.5963 34.4444 98.6635 34.4367 98.7349C34.429 98.8063 34.4437 98.8784 34.4789 98.941L36.9498 103.334Z" fill="url(#paint0_linear_686_6223)"/>
<path d="M54.0917 95.4898C51.5565 95.0491 49.6536 92.7999 49.7215 90.1519C49.7393 89.4587 49.8935 88.7758 50.1753 88.1421C50.457 87.5085 50.8608 86.9366 51.3636 86.4591C51.8664 85.9816 52.4583 85.6078 53.1056 85.3591C53.7529 85.1104 54.4428 84.9916 55.1359 85.0096C58.0473 85.0844 60.3528 87.5132 60.278 90.4237C60.2601 91.1169 60.106 91.7998 59.8242 92.4334C59.5425 93.067 59.1387 93.6388 58.636 94.1163C58.1333 94.5939 57.5414 94.9677 56.8942 95.2164C56.2471 95.4652 55.5572 95.584 54.8641 95.5661C54.6051 95.5596 54.3469 95.5341 54.0917 95.4898ZM55.6224 86.7461C55.4469 86.7157 55.2695 86.6982 55.0915 86.6936C54.6172 86.6776 54.1444 86.7556 53.7005 86.9232C53.2565 87.0908 52.85 87.3447 52.5046 87.6702C52.1592 87.9956 51.8817 88.3863 51.688 88.8196C51.4943 89.2529 51.3883 89.7202 51.3761 90.1947C51.3639 90.6691 51.4458 91.1413 51.6169 91.584C51.7881 92.0267 52.0452 92.431 52.3735 92.7738C52.7017 93.1166 53.0945 93.391 53.5293 93.5812C53.9641 93.7714 54.4323 93.8737 54.9068 93.882C55.8116 93.9013 56.6904 93.5788 57.368 92.9787C58.0456 92.3786 58.4721 91.5452 58.5624 90.6445C58.6527 89.7439 58.4002 88.8423 57.8552 88.1197C57.3103 87.397 56.513 86.9063 55.6224 86.7456V86.7461Z" fill="white"/>
<circle cx="55" cy="90.2891" r="5" fill="white"/>
<path d="M39.3242 110.512C39.3242 110.512 41.6446 118.951 41.0811 122.908C40.5177 126.866 39.3908 134.012 39.3908 134.012H72.2465C72.2465 134.012 73.5531 120.979 72.6214 112.393C71.7496 104.345 39.3242 110.512 39.3242 110.512Z" fill="#F48E5B"/>
<path d="M38.2529 110.511C38.2529 110.511 40.5733 118.95 40.0099 122.907C39.4464 126.865 38.3195 134.011 38.3195 134.011H71.1819C71.1819 134.011 71.5568 120.464 71.5568 112.392C71.5568 104.32 38.2529 110.511 38.2529 110.511Z" fill="#FCC99F"/>
<path d="M61.1592 115.326C61.1592 115.326 71.4256 117.207 71.4256 122.21C71.4256 125.748 72.3019 125.846 72.3019 125.846L71.6763 114.815L66.6673 114.566L61.1592 115.326Z" fill="#F48E5B"/>
<path d="M42.4834 113.765L34.9632 100.649C37.6252 90.2448 29.6547 74.8661 38.0689 68.9856C46.483 63.1051 48.0514 72.5899 48.0514 72.5899C48.0514 72.5899 49.5687 61.7483 54.4358 62.2013C59.3028 62.6543 61.5344 68.9923 61.5344 68.9923C61.5344 68.9923 65.0616 64.462 69.0435 65.3659C73.0254 66.2697 73.0698 72.8253 73.0698 72.8253C73.0698 72.8253 76.8121 71.6616 78.904 75.8566C80.3526 78.7613 80.4457 86.8981 80.4457 86.8981C80.4457 86.8981 83.1477 108.59 76.7833 114.309C71.528 119.03 64.9817 115.432 59.2318 115.885C53.4819 116.338 48.677 116.931 42.4834 113.765Z" fill="#F48E5B"/>
<path d="M41.5825 112.583L29.5791 98.8609C31.6355 86.7667 28.8071 75.723 35.2359 67.0466C41.3873 58.7477 47.3347 69.1585 47.3347 69.1585C47.3347 69.1585 48.6657 60.5643 53.5283 61.0173C58.3908 61.4703 61.2081 67.4419 61.2081 67.4419C61.2081 67.4419 64.1452 63.278 68.1271 64.1841C72.109 65.0901 73.2293 71.5836 73.2293 71.5836C73.2293 71.5836 77.5351 69.9402 79.627 74.1352C81.0778 77.0399 78.9504 85.9051 78.9504 85.9051C78.9504 85.9051 81.2308 108.061 75.4787 112.132C69.7265 116.203 63.7015 111.67 57.9538 112.132C52.2061 112.594 47.7761 115.747 41.5825 112.583Z" fill="#FFD3AB"/>
<path d="M39.4796 74.1484C39.4796 74.1484 40.3803 82.5628 41.0214 84.5348C41.6625 86.5068 44.7504 91.8966 46.5517 91.3702C47.6142 91.0651 48.6151 90.5758 49.5087 89.9245C49.5087 89.9245 52.2085 92.6849 54.5222 92.947C56.8359 93.209 61.0796 91.5013 61.0796 91.5013C61.0796 91.5013 61.4656 93.7353 64.0366 93.8686C66.6077 94.0018 69.5669 91.7633 69.5669 91.7633C69.7801 92.2327 70.1233 92.6309 70.5558 92.9108C70.9884 93.1907 71.4921 93.3405 72.0071 93.3423C73.8062 93.3423 77.0205 89.7891 77.0205 89.7891L72.9809 94.3327C72.9809 94.3327 66.7363 96.3624 63.0716 101.49C61.4656 103.738 59.4025 110.828 58.828 112.15C58.828 112.15 59.1829 99.2694 52.4636 98.4788C45.6311 97.6838 38.4481 94.5348 38.4481 94.5348C38.4481 94.5348 35.6197 90.1955 35.7484 85.2077C35.8771 80.2199 39.4796 74.1484 39.4796 74.1484Z" fill="#FCC99F"/>
<path d="M53.6785 81.1769C44.4236 77.8947 43.3034 80.1198 37.6133 86.8998C34.9646 90.0599 33.028 91.4411 31.7902 92.245C30.8861 92.8503 30.1542 93.68 29.6663 94.6532C29.1783 95.6263 28.9509 96.7094 29.0062 97.7969C29.0439 98.9348 29.2843 100.057 29.7161 101.11C29.767 101.846 29.8588 102.579 29.9911 103.304C32.8594 119.169 49.8563 118.958 54.3596 116.629C58.8628 114.299 62.37 108.328 57.8645 101.348C54.1599 95.6072 47.5337 96.6621 45.7147 96.9441C47.1943 94.408 48.7472 92.5271 50.6638 92.2806C53.7251 91.8831 56.3649 93.864 59.6658 92.6759C65.5355 90.5684 62.8247 84.4192 53.6785 81.1769Z" fill="#F48E5B"/>
<path d="M33.7557 81.2349C36.9812 80.1734 39.8872 76.6113 39.6432 73.087C39.6299 72.9094 39.3969 72.6851 39.3193 72.9627C38.8756 74.5661 38.5518 76.054 37.6201 77.4686C36.6233 78.9458 35.2786 80.1546 33.7047 80.9884C33.6137 81.0373 33.6315 81.2749 33.7557 81.2349V81.2349Z" fill="#F48E5B"/>
<path d="M46.8509 89.9472C48.9672 91.4861 51.8555 93.1539 54.5929 92.7164C54.8037 92.6831 54.8347 92.2456 54.6262 92.1834C53.3906 91.8192 52.0928 91.7548 50.855 91.3729C49.4879 90.974 48.1745 90.4095 46.9441 89.6918C46.8066 89.6074 46.7578 89.8761 46.8531 89.9472H46.8509Z" fill="#D68265"/>
<g clip-path="url(#clip0_686_6223)">
<path d="M88.76 29.2531C88.763 29.4162 88.732 29.5781 88.6688 29.7285C88.6056 29.8789 88.5118 30.0145 88.3932 30.1265C88.2747 30.2385 88.134 30.3246 87.9803 30.3792C87.8266 30.4337 87.6631 30.4556 87.5005 30.4433C87.3378 30.4311 87.1795 30.385 87.0357 30.3081C86.8918 30.2311 86.7656 30.125 86.6652 29.9965C86.5647 29.868 86.4922 29.7199 86.4523 29.5617C86.4123 29.4036 86.4059 29.2388 86.4333 29.078L87.5632 14.062L67.6949 8.64995C67.3948 8.56983 67.1388 8.37386 66.9831 8.10508C66.8274 7.83629 66.7848 7.51671 66.8647 7.21655C66.9603 6.92431 67.1607 6.67782 67.4273 6.52466C67.6939 6.37149 68.0078 6.32251 68.3084 6.38716L89.0018 12.0674C89.2767 12.1226 89.5227 12.2744 89.6952 12.4954C89.8677 12.7165 89.9552 12.992 89.9419 13.272L88.76 29.2531Z" fill="#1B1C1C"/>
<path fill-rule="evenodd" clip-rule="evenodd" d="M31.2905 55.4632C30.532 55.4061 29.7308 55.2324 28.9374 55.0902C20.7105 97.8467 88.2004 103.131 86.4492 59.4179C85.6333 59.439 84.8277 59.4608 84.0259 59.4314C78.2978 93.0885 31.9173 89.5984 31.2905 55.4632Z" fill="#32363A"/>
<path fill-rule="evenodd" clip-rule="evenodd" d="M86.9233 61.7511L83.3461 61.4819C83.2721 61.4763 83.1999 61.4562 83.1336 61.4228C83.0674 61.3893 83.0083 61.3431 82.9599 61.2868C82.9115 61.2305 82.8747 61.1652 82.8515 61.0947C82.8283 61.0242 82.8192 60.9498 82.8248 60.8757L83.2413 55.3408C83.2525 55.1913 83.3227 55.0524 83.4364 54.9546C83.5501 54.8569 83.6979 54.8083 83.8475 54.8195L87.4246 55.0887C87.5692 55.1095 87.7011 55.1826 87.7953 55.2942C87.8895 55.4058 87.9395 55.5481 87.9357 55.6941L87.5192 61.229C87.5011 61.3739 87.4304 61.5071 87.3205 61.6033C87.2107 61.6996 87.0693 61.7521 86.9233 61.7511V61.7511Z" fill="#454A4D"/>
<path fill-rule="evenodd" clip-rule="evenodd" d="M32.5167 50.9561L28.7038 50.6692C28.6241 50.6618 28.5437 50.6705 28.4675 50.6948C28.3912 50.7192 28.3206 50.7586 28.26 50.8108C28.1993 50.863 28.1497 50.9268 28.1143 50.9986C28.0788 51.0703 28.0581 51.1485 28.0535 51.2284L27.6432 56.6813C27.6358 56.761 27.6446 56.8414 27.6689 56.9176C27.6932 56.9939 27.7326 57.0644 27.7848 57.1251C27.837 57.1858 27.9009 57.2353 27.9726 57.2708C28.0444 57.3063 28.1225 57.3269 28.2024 57.3315L32.0154 57.6185C32.1751 57.6278 32.3323 57.5747 32.4536 57.4704C32.575 57.366 32.651 57.2186 32.6656 57.0592L33.0759 51.6063C33.0853 51.4466 33.0322 51.2894 32.9279 51.1681C32.8235 51.0467 32.6761 50.9707 32.5167 50.9561V50.9561Z" fill="#454A4D"/>
<path fill-rule="evenodd" clip-rule="evenodd" d="M87.7074 56.1183L83.4845 55.8005C83.1826 55.7779 82.9014 55.6383 82.7009 55.4114C82.5004 55.1845 82.3964 54.8883 82.4111 54.5859L84.9494 20.8537C84.9726 20.5456 85.1165 20.2591 85.3499 20.0565C85.5833 19.854 85.8872 19.7519 86.1956 19.7724L90.4185 20.0901C90.7215 20.121 91.0002 20.2697 91.1946 20.5041C91.3891 20.7386 91.4837 21.04 91.458 21.3435L88.9198 55.0756C88.8921 55.3726 88.7503 55.6473 88.5241 55.8418C88.298 56.0363 88.0052 56.1354 87.7074 56.1183V56.1183Z" fill="#32363A"/>
<path fill-rule="evenodd" clip-rule="evenodd" d="M28.4332 51.6607L32.6459 51.9777C32.9437 51.9948 33.2365 51.8956 33.4626 51.7012C33.6887 51.5067 33.8306 51.232 33.8582 50.935L36.3965 17.2028C36.4222 16.8993 36.3276 16.5979 36.1331 16.3635C35.9387 16.1291 35.6599 15.9804 35.357 15.9495L31.1443 15.6325C30.993 15.6224 30.8413 15.6426 30.6979 15.6919C30.5545 15.7411 30.4224 15.8184 30.3092 15.9193C30.1961 16.0202 30.1041 16.1427 30.0388 16.2795C29.9735 16.4163 29.9362 16.5647 29.9289 16.7162L27.3906 50.4483C27.3681 50.7474 27.4653 51.0431 27.6608 51.2704C27.8564 51.4978 28.1342 51.6382 28.4332 51.6607Z" fill="#32363A"/>
<path fill-rule="evenodd" clip-rule="evenodd" d="M82.4326 54.3125L76.8465 53.8922C76.7098 53.8768 76.584 53.8103 76.4944 53.706C76.4047 53.6018 76.3578 53.4675 76.3631 53.3301L78.8204 20.6741C78.8358 20.5375 78.9022 20.4117 79.0065 20.3221C79.1107 20.2324 79.245 20.1855 79.3824 20.1907L84.9686 20.6111L82.4326 54.3125Z" fill="#1B1C1C"/>
<path fill-rule="evenodd" clip-rule="evenodd" d="M33.8789 50.6583L39.4958 51.0809C39.628 51.0805 39.7551 51.0301 39.8518 50.9399C39.9484 50.8497 40.0074 50.7263 40.0169 50.5945L42.4742 17.9385C42.4845 17.8067 42.4447 17.6759 42.3626 17.5722C42.2806 17.4686 42.1624 17.3998 42.0318 17.3795L36.4149 16.9569L33.8789 50.6583Z" fill="#1B1C1C"/>
<path fill-rule="evenodd" clip-rule="evenodd" d="M88.9774 54.3209L91.4046 22.0647C97.0224 29.5998 95.6564 47.7523 88.9774 54.3209Z" fill="#7EADB5"/>
<path fill-rule="evenodd" clip-rule="evenodd" d="M27.4473 49.6875L29.8745 17.4313C23.1924 24.0409 21.8265 42.1934 27.4473 49.6875Z" fill="#7EADB5"/>
<path fill-rule="evenodd" clip-rule="evenodd" d="M72.5664 13.0986L63.1839 10.5269C62.9036 10.4482 62.665 10.2636 62.5184 10.0121C62.3719 9.76058 62.329 9.4619 62.3988 9.17931L63.9026 3.7159C63.9862 3.43015 64.1783 3.18842 64.4377 3.04231C64.6971 2.89621 65.0034 2.8573 65.2911 2.93391L74.6334 5.49232C74.7762 5.52633 74.9105 5.58911 75.0282 5.67681C75.1459 5.76451 75.2444 5.87528 75.3179 6.00237C75.3913 6.12946 75.438 6.2702 75.4551 6.41597C75.4723 6.56173 75.4596 6.70945 75.4177 6.85012L73.9147 12.3033C73.8818 12.446 73.8202 12.5805 73.7337 12.6986C73.6472 12.8168 73.5375 12.9161 73.4114 12.9905C73.2852 13.0649 73.1453 13.1128 73 13.1314C72.8547 13.15 72.7072 13.1388 72.5664 13.0986Z" fill="#454A4D"/>
<path fill-rule="evenodd" clip-rule="evenodd" d="M68.739 10.2669C68.1714 10.1854 67.656 9.89143 67.297 9.44437C66.938 8.9973 66.7622 8.43056 66.8053 7.85881C66.8483 7.28706 67.1069 6.75299 67.5288 6.36468C67.9506 5.97637 68.5042 5.76281 69.0776 5.76721C69.3874 5.76959 69.6934 5.83559 69.9766 5.96113C70.2598 6.08667 70.5142 6.26908 70.724 6.49701C70.9338 6.72495 71.0946 6.99357 71.1963 7.2862C71.298 7.57883 71.3384 7.88925 71.3152 8.19817C71.2919 8.5071 71.2055 8.80794 71.0611 9.08206C70.9168 9.35618 70.7177 9.59772 70.4761 9.79169C70.2346 9.98566 69.9557 10.1279 69.6569 10.2097C69.3581 10.2914 69.0456 10.3109 68.739 10.2669Z" fill="#EDC72F"/>
<path d="M41.177 84.3408C39.9671 81.046 39.0061 77.5035 39 74L47.5 81L41.177 84.3408Z" fill="#FFD3AB"/>
<path d="M60.2204 90.5166C59.3562 84.6205 61.3125 79.9149 61.3082 73.6455C68.1078 71.8747 75.199 70.1421 78.1792 71.4685C81.4447 78.5429 80.0859 83.5814 69.4711 88.3404C66.0734 89.7563 64.0705 90.2407 60.2204 90.5166Z" fill="#FFD3AB"/>
<path d="M60.684 82.7266L54.8975 82.7266L60.9992 87L60.684 82.7266Z" fill="#FFD3AB"/>
</g>
<path d="M47.3347 69.1557C47.0508 68.6722 46.7367 68.2071 46.3941 67.7633C46.5915 69.2135 46.8178 70.1662 46.9376 71.5386C47.2748 75.3138 48.4749 78.907 48.9163 82.6423C49.1626 84.7298 48.6435 87.2925 46.3786 87.9898C44.2955 88.6294 42.8891 86.7062 42.0927 85.0473C40.3048 81.3254 40.0763 77.2214 39.6836 73.1997C39.6526 72.8777 39.3842 72.7556 39.24 73.2686C38.0243 77.3725 39.1313 82.4379 40.8505 86.2421C42.2258 89.2823 45.2871 92.207 48.435 89.4C48.8796 89.0086 49.2658 88.5554 49.5818 88.0542C49.5818 88.0786 49.5818 88.1008 49.5818 88.1253C49.848 89.7198 50.8396 92.2581 52.2039 93.3418C53.5682 94.4255 56.0439 94.4721 57.6033 94.1301C58.9521 93.8348 59.8217 93.4439 60.6203 92.5356C60.7349 93.0669 60.9635 93.5668 61.2902 94.0009C61.617 94.435 62.034 94.7928 62.5125 95.0495C65.1346 96.4241 68.0694 94.7209 69.7399 92.569C69.962 93.2149 70.4176 93.7543 71.017 94.081C71.6163 94.4077 72.3161 94.4981 72.9786 94.3344C75.6806 93.7215 77.3598 90.004 78.3492 87.6722C78.571 87.1415 78.7751 86.5974 78.9615 86.0511L78.9482 85.909C78.9482 85.909 81.0755 77.026 79.6248 74.1391C79.3517 73.5739 78.9875 73.0577 78.5466 72.6112C79.1751 75.98 79.1162 79.4412 78.3736 82.7866C77.8911 84.9156 77.079 86.9559 75.9667 88.8337C75.126 90.2483 71.956 94.2656 70.7093 91.0166C72.1312 88.1697 72.1534 84.7986 72.2421 81.654C72.3109 79.2734 72.0048 77.1437 72.464 74.8075C72.6692 73.7189 72.9314 72.6419 73.2493 71.5808H73.236C73.1292 71.0308 72.9914 70.4874 72.8233 69.953C70.9821 74.048 70.7869 79.1446 70.5584 83.424C70.3965 86.4531 69.9928 89.6909 67.5171 91.7117C66.5344 92.5112 65.2522 93.0442 63.9811 92.8599C62.3417 92.6378 62.0067 91.5274 61.9202 90.2616C62.3475 88.9661 62.4986 87.5953 62.3639 86.2376C62.0444 83.4084 61.5963 80.6103 61.3967 77.7633C61.1589 74.3154 61.1041 70.8573 61.2325 67.4036L61.2059 67.4391C60.9632 66.9483 60.6906 66.4729 60.3896 66.0156C59.7141 71.7838 59.7141 77.6113 60.3896 83.3796C60.6314 85.4782 61.5342 88.8359 59.9304 90.5769C58.6216 91.996 57.8917 92.0271 56.0727 92.0226C54.826 92.0226 53.5016 92.0226 52.215 90.5769C51.5495 89.8263 51.3277 88.3962 51.1502 87.4058C50.8263 85.6292 50.7709 83.8104 50.5668 82.0094C50.5566 81.8984 50.5051 81.7954 50.4226 81.7207C50.1697 80.0773 49.6528 78.8692 49.1936 77.4302L47.3347 69.1557Z" fill="#F48E5B"/>
<path d="M53.366 82.0364C44.648 78.9763 43.5144 80.8483 38.1571 87.1686C35.6593 90.1133 33.9179 91.61 32.751 92.3562C31.9 92.9163 31.2103 93.6897 30.7503 94.5994C30.2903 95.5091 30.0761 96.5234 30.129 97.5416C30.1643 98.6029 30.3897 99.6492 30.7945 100.631C30.8421 101.317 30.9287 102 31.054 102.676C33.7537 117.464 49.7635 117.268 54.0049 115.099C58.2464 112.929 60.5623 107.606 56.3209 101.108C52.8314 95.7584 45.1116 98.0879 43.3991 98.3477C44.7922 95.9849 48.0842 91.7455 49.8921 91.5123C52.776 91.1415 56.0413 92.8847 59.1492 91.7744C64.6795 89.789 61.9798 85.0566 53.366 82.0364Z" fill="#FFD3AB"/>
<defs>
<linearGradient id="paint0_linear_686_6223" x1="40.4803" y1="73.2596" x2="72.2156" y2="110.48" gradientUnits="userSpaceOnUse">
<stop stop-color="#3B956C"/>
<stop offset="1" stop-color="#63AF8D"/>
</linearGradient>
<clipPath id="clip0_686_6223">
<rect width="70.9443" height="87.267" fill="white" transform="translate(90.7441 92.3438) rotate(-175.697)"/>
</clipPath>
</defs>
</svg>
