<svg width="135" height="167" viewBox="0 0 135 167" fill="none" xmlns="http://www.w3.org/2000/svg">
<g filter="url(#filter0_d_7031_310)">
<rect width="83" height="83" rx="21" transform="matrix(-1 0 0 1 115 49.2891)" fill="white"/>
<rect x="-1" y="1" width="81" height="81" rx="20" transform="matrix(-1 0 0 1 113 49.2891)" stroke="#7FC6A6" stroke-width="2"/>
</g>
<path d="M91.0502 104.334C91.0149 104.396 90.961 104.446 90.896 104.477C90.831 104.507 90.7581 104.517 90.6874 104.504L86.5541 103.75C85.2096 105.217 83.6348 106.454 81.8918 107.414L81.6441 111.605C81.6399 111.677 81.6134 111.746 81.5683 111.802C81.5232 111.858 81.4617 111.898 81.3925 111.918L76.5395 113.276C76.4704 113.296 76.3969 113.293 76.3294 113.269C76.2619 113.244 76.2036 113.199 76.1628 113.14L73.7743 109.687C71.7865 109.772 69.7982 109.532 67.8876 108.977L64.7464 111.767C64.6927 111.815 64.6255 111.845 64.5541 111.852C64.4826 111.86 64.4106 111.845 64.348 111.81L59.9555 109.339C59.8929 109.304 59.8428 109.25 59.8123 109.185C59.7818 109.12 59.7723 109.047 59.7852 108.976L60.5388 104.843C59.0723 103.499 57.8349 101.924 56.8752 100.181L52.6836 99.9328C52.6119 99.9286 52.5434 99.9021 52.4874 99.857C52.4315 99.812 52.391 99.7507 52.3715 99.6815L51.0127 94.8282C50.9934 94.7591 50.9961 94.6856 51.0206 94.618C51.045 94.5505 51.0899 94.4922 51.1491 94.4515L54.6023 92.063C54.517 90.0752 54.7564 88.0869 55.3111 86.1762L52.5207 83.0351C52.473 82.9813 52.4433 82.9141 52.4356 82.8427C52.428 82.7713 52.4428 82.6992 52.478 82.6366L54.9489 78.2444C54.9841 78.1817 55.038 78.1316 55.103 78.101C55.168 78.0704 55.241 78.0609 55.3117 78.0738L59.445 78.8277C60.7898 77.3609 62.365 76.1234 64.1084 75.1641L64.3562 70.9725C64.3604 70.9008 64.3869 70.8322 64.4319 70.7763C64.4769 70.7204 64.5383 70.68 64.6075 70.6606L69.4607 69.3019C69.5299 69.2825 69.6034 69.2852 69.6709 69.3096C69.7384 69.3339 69.7967 69.3788 69.8375 69.4379L72.226 72.8897C74.2138 72.8048 76.2021 73.0447 78.1127 73.5999L81.2538 70.8095C81.3075 70.7618 81.3747 70.732 81.4462 70.7243C81.5176 70.7166 81.5896 70.7313 81.6523 70.7665L86.0445 73.2375C86.1071 73.2727 86.1572 73.3266 86.1877 73.3916C86.2183 73.4566 86.2279 73.5295 86.215 73.6002L85.4615 77.7336C86.9281 79.0781 88.1655 80.6529 89.1251 82.3959L93.3166 82.6437C93.3883 82.6479 93.4569 82.6744 93.5128 82.7195C93.5687 82.7646 93.6092 82.826 93.6285 82.8952L94.9872 87.7482C95.0066 87.8174 95.0039 87.8909 94.9795 87.9585C94.9551 88.0261 94.9103 88.0844 94.8512 88.1253L91.3994 90.5135C91.4839 92.5017 91.2436 94.4905 90.688 96.4014L93.4781 99.5426C93.5258 99.5963 93.5556 99.6635 93.5633 99.7349C93.571 99.8063 93.5563 99.8784 93.5211 99.941L91.0502 104.334Z" fill="url(#paint0_linear_7031_310)"/>
<path d="M73.9083 96.4898C76.4435 96.0491 78.3464 93.7999 78.2785 91.1519C78.2607 90.4587 78.1065 89.7758 77.8247 89.1421C77.543 88.5085 77.1392 87.9366 76.6364 87.4591C76.1336 86.9816 75.5417 86.6078 74.8944 86.3591C74.2471 86.1104 73.5572 85.9916 72.8641 86.0096C69.9527 86.0844 67.6472 88.5132 67.722 91.4237C67.7399 92.1169 67.894 92.7998 68.1758 93.4334C68.4575 94.067 68.8613 94.6388 69.364 95.1163C69.8667 95.5939 70.4586 95.9677 71.1058 96.2164C71.7529 96.4651 72.4428 96.584 73.1359 96.5661C73.3949 96.5596 73.6531 96.5341 73.9083 96.4898ZM72.3776 87.7461C72.5531 87.7157 72.7305 87.6982 72.9085 87.6936C73.3828 87.6776 73.8556 87.7556 74.2995 87.9232C74.7435 88.0908 75.15 88.3447 75.4954 88.6702C75.8408 88.9956 76.1183 89.3863 76.312 89.8196C76.5057 90.2529 76.6117 90.7202 76.6239 91.1947C76.6361 91.6691 76.5542 92.1413 76.3831 92.584C76.2119 93.0267 75.9548 93.431 75.6265 93.7738C75.2983 94.1166 74.9055 94.391 74.4707 94.5812C74.0359 94.7714 73.5677 94.8737 73.0932 94.882C72.1884 94.9013 71.3096 94.5788 70.632 93.9787C69.9544 93.3786 69.5279 92.5452 69.4376 91.6445C69.3473 90.7439 69.5998 89.8423 70.1448 89.1197C70.6897 88.397 71.487 87.9063 72.3776 87.7456V87.7461Z" fill="white"/>
<circle cx="5" cy="5" r="5" transform="matrix(-1 0 0 1 78 86.2891)" fill="white"/>
<g filter="url(#filter1_d_7031_310)">
<rect width="90" height="90" rx="21" transform="matrix(-1 0 0 1 115 45)" fill="#73BCFF"/>
</g>
<path d="M63.1643 111.904C58.4048 112.09 54.7368 113.059 54.7269 115.586L69.7487 112.033L70.3934 111.881L74.178 112.415L84.4757 113.866C84.4757 113.866 80.548 119.229 77.8635 119.402C75.1789 119.574 68.3073 117.741 68.3073 117.741L63.9929 118.198C63.9929 118.198 54.8206 119.89 54.813 124.362C54.8141 124.574 54.8095 124.771 54.8022 124.957C54.8914 130.214 55.0139 134.872 55.0139 134.872L54.0626 134.875C54.0626 134.875 52.9152 123.247 53.7645 115.592C54.0687 112.966 58.1317 112.033 63.1643 111.904Z" fill="#F48E5B"/>
<path d="M83.4355 134.828L66.2033 134.857L83.4355 134.828Z" fill="#D68265"/>
<path d="M84.4727 113.879L74.175 112.428C79.8144 113.01 84.4727 113.879 84.4727 113.879Z" fill="#F5BC8F"/>
<path d="M54.7302 115.592C54.7344 113.07 58.4053 112.093 63.1675 111.91C65.3635 111.841 67.5611 111.884 69.752 112.039L54.7302 115.592Z" fill="#F5BC8F"/>
<path d="M54.8297 124.371C54.8372 119.888 64.0095 118.206 64.0095 118.206L68.324 117.749C68.324 117.749 75.1969 119.584 77.8801 119.41C80.5633 119.236 84.4923 113.875 84.4923 113.875C84.4923 113.875 82.4061 121.416 82.9017 124.937C83.3974 128.458 84.3967 134.83 84.3967 134.83L83.4455 134.833L66.2146 134.86L55.0459 134.879C55.0459 134.879 54.9235 130.221 54.8343 124.965C54.8304 124.776 54.8363 124.58 54.8297 124.371Z" fill="#FCC99F"/>
<path d="M59.1163 116.773L81.9601 113.834C83.2504 113.668 84.4609 113.113 85.4306 112.243C86.4003 111.374 87.0833 110.23 87.3888 108.965L91.4025 92.4114C91.7378 91.0306 91.6053 89.579 91.0256 88.2847C91.0256 88.2847 88.3205 85.6751 84.8142 77.1279C82.1674 70.678 79.2952 69.0829 74.2673 68.9331L50.1163 75.2012C46.9316 76.19 45.3542 81.9466 46.0716 85.19L52.0623 111.796C53.0883 114.837 56.3896 116.949 59.1163 116.773Z" fill="#FCC99F"/>
<path d="M70.1563 115.26C70.1563 115.26 64.6103 99.9689 56.235 93.4431C47.8597 86.9174 46.6856 87.7558 46.6856 87.7558C46.6856 87.7558 49.5131 112.574 54.7782 115.748C60.0434 118.922 70.1563 115.26 70.1563 115.26Z" fill="#FFD3AB"/>
<path d="M85.1411 86.6376C85.1411 86.6376 74.9308 94.0506 71.9286 98.0961C68.9265 102.142 67.9866 111.205 67.9866 111.205C67.9866 111.205 60.1488 94.947 52.4032 95.4896L50.8302 89.51L59.2878 82.1069C59.2878 82.1069 66.2729 78.9289 72.9553 79.9726C79.6964 81.033 85.1411 86.6376 85.1411 86.6376Z" fill="#FCC99F"/>
<path d="M88.9393 85.0643C88.9393 85.0643 77.5874 87.3754 72.8777 95.4335C68.168 103.491 67.9869 111.208 67.9869 111.208L88.66 86.1828L88.9393 85.0643Z" fill="#F48E5B"/>
<path d="M88.4516 108.99C88.4516 108.99 93.9977 99.2479 96.1909 94.7218C98.5823 89.7681 97.5183 81.0221 89.6482 84.7802C81.7781 88.5383 76.8495 91.7941 71.1886 102.311C66.3147 111.381 68.4829 115.062 71.1646 116.568C74.8219 118.619 83.0699 118.391 88.4516 108.99Z" fill="#FFD3AB"/>
<path d="M89.6717 84.8361C89.6717 84.8361 89.3638 68.064 98.431 65.5283C107.498 62.9927 98.923 72.0687 98.9165 75.0878C98.91 78.107 100.505 86.1124 97.4304 90.6666C94.356 95.2207 89.6717 84.8361 89.6717 84.8361Z" fill="#FFD3AB"/>
<path d="M62.0055 75.486C62.0025 75.5429 61.993 75.5993 61.9772 75.6541C61.9547 75.7214 61.9239 75.7243 61.8875 75.6711C61.9494 75.5533 61.9803 75.4832 61.9803 75.4832L62.0055 75.486Z" fill="#D68265"/>
<path d="M54.6211 79.0664C54.629 79.397 54.5783 79.54 54.4231 79.3568C54.3666 79.2809 54.321 79.1975 54.2876 79.109C54.3759 79.0542 54.4236 79.0205 54.4236 79.0205C54.4236 79.0205 54.4951 79.0442 54.6211 79.0664Z" fill="#D68265"/>
<path d="M54.1623 117.121C48.0124 114.339 46.3049 94.2084 46.3049 94.2084L45.5247 89.9535C45.5247 89.9535 46.6367 87.6974 46.8259 87.6677C47.3609 91.9188 50.1568 113.009 54.8635 115.849L54.1623 117.121Z" fill="#F48E5B"/>
<path d="M45.908 81.9822C45.908 81.9822 46.2072 85.6495 46.5598 87.5935C46.7874 88.8428 45.6123 89.5228 45.6123 89.5228L45.0373 82.3689L45.908 81.9822Z" fill="#D68265"/>
<path d="M46.5143 75.3151C46.5143 75.3151 41.2534 76.2878 43.4636 84.9282C45.6738 93.5686 46.7792 94.3653 46.7792 94.3653L49.622 82.6132L46.5143 75.3151Z" fill="#F48E5B"/>
<path d="M47.2169 75.0997C47.2169 75.0997 42.6141 76.2507 44.6024 84.4109C46.5906 92.5711 47.7495 94.0864 47.7495 94.0864L50.1428 82.2244L47.2169 75.0997Z" fill="#F5BC8F"/>
<path d="M29.2616 29.131C27.9493 27.8187 25.8082 27.8098 24.6199 29.2354C20.3905 34.3093 17.5782 40.4379 16.5033 46.9964C15.2466 54.664 16.4279 62.5326 19.8808 69.4931C23.3337 76.4536 28.8839 82.155 35.7492 85.7935C42.6145 89.432 50.4485 90.8243 58.1471 89.774C65.8457 88.7236 73.0205 85.2837 78.6601 79.9391C84.2998 74.5945 88.12 67.6147 89.5821 59.9837C91.0442 52.3526 90.0746 44.4551 86.8099 37.4044C84.0174 31.3735 79.6661 26.2223 74.2321 22.4667C72.7054 21.4115 70.6449 21.9937 69.7321 23.6096V23.6096C68.8193 25.2255 69.4027 27.2609 70.908 28.3465C75.1265 31.3886 78.5101 35.4747 80.7111 40.2283C83.3847 46.0023 84.1787 52.4697 82.9814 58.7189C81.784 64.9682 78.6556 70.6841 74.0371 75.0609C69.4187 79.4377 63.5431 82.2547 57.2386 83.1148C50.9341 83.975 44.5186 82.8348 38.8965 79.8552C33.2744 76.8755 28.7292 72.2065 25.9015 66.5064C23.0739 60.8063 22.1065 54.3626 23.1356 48.0834C23.9828 42.914 26.1481 38.0708 29.3975 34.0098C30.557 32.5607 30.5739 30.4433 29.2616 29.131V29.131Z" fill="url(#paint1_linear_7031_310)"/>
<path d="M67.2758 22.682C68.0995 20.9088 67.3338 18.7862 65.4903 18.1351C60.0579 16.2166 54.237 15.5837 48.4889 16.3082C42.7409 17.0328 37.2591 19.0905 32.4728 22.2971C30.8485 23.3854 30.6335 25.6316 31.8715 27.1448V27.1448C33.1095 28.6581 35.3304 28.8612 36.9788 27.8098C40.7159 25.426 44.9476 23.8909 49.3744 23.3329C53.8012 22.7749 58.2815 23.2118 62.4933 24.5936C64.351 25.203 66.4521 24.4552 67.2758 22.682V22.682Z" fill="#D9D9D9"/>
<path d="M73.2144 76.8872C73.2144 76.8872 77.6121 86.2372 71.9517 88.2665C66.9664 90.0518 63.7862 80.0914 63.1497 78.6994C62.457 77.1774 59.1973 70.9269 58.9288 69.9885C58.3178 67.8186 57.4548 63.5442 61.3869 61.7764C63.7271 60.7209 66.8319 61.9309 68.4217 64.3505C71.3075 68.7313 71.5511 72.6927 73.2144 76.8872Z" fill="#F48E5B"/>
<path d="M82.3428 75.1902C82.3428 75.1902 84.7764 82.8109 79.7762 84.4809C74.5973 86.2148 71.6401 76.4475 71.111 75.0214C70.5819 73.5952 66.8503 65.7691 67.2242 63.0862C67.9246 58.0366 72.9818 55.664 76.1987 59.0351C79.6397 62.6684 80.4717 66.3201 82.3428 75.1902Z" fill="#F48E5B"/>
<path d="M80.9466 72.6132C80.9466 72.6132 84.1808 81.6187 80.0458 82.8733C75.9107 84.128 74.9297 78.2886 74.3944 76.8576C73.8592 75.4265 69.4767 64.3487 69.3459 61.6451C69.2152 58.9415 74.3649 57.0079 76.6135 60.1224C79.4147 64.0125 79.5696 68.3107 80.9466 72.6132Z" fill="#FFD3AB"/>
<path d="M61.7457 75.6683C61.7457 75.6683 59.6408 67.8793 55.7334 66.8385C52.0751 65.8649 49.2567 69.0162 49.104 70.7141C48.8987 72.9842 49.488 73.9755 50.2556 76.4806C50.9762 78.8149 53.2055 78.7706 53.625 79.5778C55.5768 83.3351 55.9676 84.8923 57.8929 88.197C58.7696 89.6996 60.43 92.7555 63.7304 91.6246C66.3379 90.7314 67.7351 87.909 65.3765 82.5668C63.7464 78.858 63.1245 78.2249 61.7457 75.6683Z" fill="#F48E5B"/>
<path d="M47.0801 75.2674C50.2701 73.8097 52.4699 76.1511 54.1723 79.1314C55.8746 82.1117 58.0199 87.7634 58.7336 90.1099C59.4472 92.4564 57.8759 94.5788 55.8257 94.7058C53.5107 94.8494 52.2444 93.356 51.2794 91.5819C50.3514 89.8823 49.3161 87.6792 48.8239 86.734C48.1221 85.3867 47.4065 84.2329 46.2219 82.2709C44.7524 79.8424 43.6185 76.8497 47.0801 75.2674Z" fill="#F48E5B"/>
<path d="M47.4925 75.8594C50.0126 74.5112 52.1614 76.7543 53.6132 79.5956C55.065 82.4369 56.9549 87.0696 57.5916 89.29C58.2283 91.5103 56.5711 92.8909 54.9324 92.9907C53.0809 93.1049 52.4749 92.2949 51.6567 90.606C50.8789 88.9842 49.9804 86.8887 49.5643 85.9908C48.9691 84.7096 48.3667 83.607 47.3711 81.7406C46.1198 79.4282 44.7585 77.3197 47.4925 75.8594Z" fill="#FFD3AB"/>
<path d="M61.778 75.2601C61.778 75.2601 58.1391 66.8427 54.5071 67.4578C51.5934 67.9435 50.5892 69.2393 50.2952 70.8033C49.8563 73.1018 53.7124 77.4934 54.4129 78.8776C56.1891 82.4008 55.7316 82.0258 57.4861 85.1254C58.2826 86.5346 60.6933 90.9306 63.1499 90.2167C65.5577 89.5199 66.8874 87.2151 64.7389 82.2073C63.2495 78.7355 63.0336 77.6566 61.778 75.2601Z" fill="#FFD3AB"/>
<path d="M72.2723 76.0951C72.2723 76.0951 76.1164 84.8532 72.0782 86.391C68.04 87.9289 66.4642 81.7707 65.8308 80.3812C65.1975 78.9916 60.2602 68.6415 59.9452 65.9546C59.6302 63.2677 63.8083 60.1859 67.0895 63.9359C70.2464 67.5402 70.6055 71.8955 72.2723 76.0951Z" fill="#FFD3AB"/>
<defs>
<filter id="filter0_d_7031_310" x="12" y="33.2891" width="123" height="123" filterUnits="userSpaceOnUse" color-interpolation-filters="sRGB">
<feFlood flood-opacity="0" result="BackgroundImageFix"/>
<feColorMatrix in="SourceAlpha" type="matrix" values="0 0 0 0 0 0 0 0 0 0 0 0 0 0 0 0 0 0 127 0" result="hardAlpha"/>
<feOffset dy="4"/>
<feGaussianBlur stdDeviation="10"/>
<feComposite in2="hardAlpha" operator="out"/>
<feColorMatrix type="matrix" values="0 0 0 0 0.0551148 0 0 0 0 0.268283 0 0 0 0 0.595833 0 0 0 0.12 0"/>
<feBlend mode="normal" in2="BackgroundImageFix" result="effect1_dropShadow_7031_310"/>
<feBlend mode="normal" in="SourceGraphic" in2="effect1_dropShadow_7031_310" result="shape"/>
</filter>
<filter id="filter1_d_7031_310" x="5" y="37" width="130" height="130" filterUnits="userSpaceOnUse" color-interpolation-filters="sRGB">
<feFlood flood-opacity="0" result="BackgroundImageFix"/>
<feColorMatrix in="SourceAlpha" type="matrix" values="0 0 0 0 0 0 0 0 0 0 0 0 0 0 0 0 0 0 127 0" result="hardAlpha"/>
<feOffset dy="12"/>
<feGaussianBlur stdDeviation="10"/>
<feComposite in2="hardAlpha" operator="out"/>
<feColorMatrix type="matrix" values="0 0 0 0 0.552361 0 0 0 0 0.653273 0 0 0 0 0.808333 0 0 0 0.15 0"/>
<feBlend mode="normal" in2="BackgroundImageFix" result="effect1_dropShadow_7031_310"/>
<feBlend mode="normal" in="SourceGraphic" in2="effect1_dropShadow_7031_310" result="shape"/>
</filter>
<linearGradient id="paint0_linear_7031_310" x1="87.5197" y1="74.2596" x2="55.7844" y2="111.48" gradientUnits="userSpaceOnUse">
<stop stop-color="#3B956C"/>
<stop offset="1" stop-color="#63AF8D"/>
</linearGradient>
<linearGradient id="paint1_linear_7031_310" x1="54.9193" y1="29.7372" x2="54.9193" y2="88.1908" gradientUnits="userSpaceOnUse">
<stop stop-color="#FFB800"/>
<stop offset="1" stop-color="#FF7A00"/>
</linearGradient>
</defs>
</svg>
