<svg width="202" height="201" viewBox="0 0 202 201" fill="none" xmlns="http://www.w3.org/2000/svg">
<g filter="url(#filter0_d_7028_291)">
<rect x="47" y="70.2891" width="83" height="83" rx="21" fill="white"/>
<rect x="48" y="71.2891" width="81" height="81" rx="20" stroke="#7FC6A6" stroke-width="2"/>
</g>
<path d="M70.9498 125.334C70.9851 125.396 71.039 125.446 71.104 125.477C71.169 125.507 71.2419 125.517 71.3126 125.504L75.4459 124.75C76.7904 126.217 78.3652 127.454 80.1082 128.414L80.3559 132.605C80.3601 132.677 80.3866 132.746 80.4317 132.802C80.4768 132.858 80.5383 132.898 80.6075 132.918L85.4605 134.276C85.5296 134.296 85.6031 134.293 85.6706 134.269C85.7381 134.244 85.7964 134.199 85.8372 134.14L88.2257 130.687C90.2135 130.772 92.2018 130.532 94.1124 129.977L97.2536 132.767C97.3073 132.815 97.3745 132.845 97.4459 132.852C97.5174 132.86 97.5894 132.845 97.652 132.81L102.045 130.339C102.107 130.304 102.157 130.25 102.188 130.185C102.218 130.12 102.228 130.047 102.215 129.976L101.461 125.843C102.928 124.498 104.165 122.924 105.125 121.181L109.316 120.933C109.388 120.929 109.457 120.902 109.513 120.857C109.569 120.812 109.609 120.751 109.628 120.682L110.987 115.828C111.007 115.759 111.004 115.686 110.979 115.618C110.955 115.55 110.91 115.492 110.851 115.451L107.398 113.063C107.483 111.075 107.244 109.087 106.689 107.176L109.479 104.035C109.527 103.981 109.557 103.914 109.564 103.843C109.572 103.771 109.557 103.699 109.522 103.637L107.051 99.2444C107.016 99.1817 106.962 99.1316 106.897 99.101C106.832 99.0704 106.759 99.0609 106.688 99.0738L102.555 99.8277C101.21 98.3609 99.635 97.1234 97.8916 96.1641L97.6438 91.9725C97.6396 91.9008 97.6131 91.8322 97.5681 91.7763C97.523 91.7204 97.4617 91.68 97.3925 91.6606L92.5393 90.3019C92.4701 90.2825 92.3966 90.2852 92.3291 90.3096C92.2616 90.3339 92.2033 90.3788 92.1625 90.4379L89.774 93.8897C87.7862 93.8048 85.7979 94.0447 83.8873 94.5999L80.7462 91.8095C80.6925 91.7618 80.6253 91.732 80.5538 91.7243C80.4824 91.7166 80.4104 91.7313 80.3477 91.7665L75.9555 94.2375C75.8929 94.2727 75.8428 94.3266 75.8123 94.3916C75.7817 94.4566 75.7721 94.5295 75.785 94.6002L76.5385 98.7336C75.0719 100.078 73.8345 101.653 72.8749 103.396L68.6834 103.644C68.6117 103.648 68.5431 103.674 68.4872 103.72C68.4313 103.765 68.3908 103.826 68.3715 103.895L67.0128 108.748C66.9934 108.817 66.9961 108.891 67.0205 108.959C67.0449 109.026 67.0897 109.084 67.1488 109.125L70.6006 111.513C70.5161 113.502 70.7564 115.49 71.312 117.401L68.5219 120.543C68.4742 120.596 68.4444 120.663 68.4367 120.735C68.429 120.806 68.4437 120.878 68.4789 120.941L70.9498 125.334Z" fill="url(#paint0_linear_7028_291)"/>
<g filter="url(#filter1_d_7028_291)">
<rect x="47" y="66" width="90" height="90" rx="21" fill="#7FC6A6"/>
</g>
<path d="M98.8357 132.904C103.595 133.09 107.263 134.059 107.273 136.586L92.2513 133.033L91.6066 132.881L87.822 133.415L77.5243 134.866C77.5243 134.866 81.452 140.229 84.1365 140.402C86.8211 140.574 93.6927 138.741 93.6927 138.741L98.0071 139.198C98.0071 139.198 107.179 140.89 107.187 145.362C107.186 145.574 107.19 145.771 107.198 145.957C107.109 151.214 106.986 155.872 106.986 155.872L107.937 155.875C107.937 155.875 109.085 144.247 108.236 136.592C107.931 133.966 103.868 133.033 98.8357 132.904Z" fill="#F48E5B"/>
<path d="M107.27 136.592C107.266 134.07 103.595 133.093 98.8325 132.91C96.6365 132.841 94.4389 132.884 92.248 133.039L107.27 136.592Z" fill="#F5BC8F"/>
<path d="M107.17 145.371C107.163 140.888 97.9905 139.206 97.9905 139.206L93.676 138.749C93.676 138.749 86.8031 140.584 84.1199 140.41C81.4367 140.236 77.5077 134.875 77.5077 134.875C77.5077 134.875 79.5939 142.416 79.0983 145.937C78.6026 149.458 77.6033 155.83 77.6033 155.83L78.5545 155.833L95.7854 155.86L106.954 155.879C106.954 155.879 107.077 151.221 107.166 145.965C107.17 145.776 107.164 145.58 107.17 145.371Z" fill="#FCC99F"/>
<path d="M102.884 137.773L80.0399 134.834C78.7496 134.668 77.5391 134.113 76.5694 133.243C75.5997 132.374 74.9167 131.23 74.6112 129.965L70.5975 113.411C70.2622 112.031 70.3947 110.579 70.9744 109.285C70.9744 109.285 73.6795 106.675 77.1858 98.1279C79.8326 91.678 82.7048 90.0829 87.7327 89.9331L111.884 96.2012C115.068 97.19 116.646 102.947 115.928 106.19L109.938 132.796C108.912 135.837 105.61 137.949 102.884 137.773Z" fill="#FCC99F"/>
<path d="M91.8437 136.26C91.8437 136.26 97.3897 120.969 105.765 114.443C114.14 107.917 115.314 108.756 115.314 108.756C115.314 108.756 112.487 133.574 107.222 136.748C101.957 139.922 91.8437 136.26 91.8437 136.26Z" fill="#FFD3AB"/>
<path d="M76.8589 107.638C76.8589 107.638 87.0692 115.051 90.0714 119.096C93.0735 123.142 94.0134 132.205 94.0134 132.205C94.0134 132.205 101.851 115.947 109.597 116.49L111.17 110.51L102.712 103.107C102.712 103.107 95.7271 99.9289 89.0447 100.973C82.3036 102.033 76.8589 107.638 76.8589 107.638Z" fill="#FCC99F"/>
<path d="M107.379 100.066C107.371 100.397 107.422 100.54 107.577 100.357C107.633 100.281 107.679 100.198 107.712 100.109C107.624 100.054 107.576 100.021 107.576 100.021C107.576 100.021 107.505 100.044 107.379 100.066Z" fill="#D68265"/>
<path d="M107.838 138.121C113.988 135.339 115.695 115.208 115.695 115.208L116.475 110.953C116.475 110.953 115.363 108.697 115.174 108.668C114.639 112.919 111.843 134.009 107.136 136.849L107.838 138.121Z" fill="#F48E5B"/>
<path d="M116.092 102.982C116.092 102.982 115.793 106.649 115.44 108.593C115.213 109.843 116.388 110.523 116.388 110.523L116.963 103.369L116.092 102.982Z" fill="#D68265"/>
<path d="M115.486 96.3151C115.486 96.3151 120.747 97.2878 118.536 105.928C116.326 114.569 115.221 115.365 115.221 115.365L112.378 103.613L115.486 96.3151Z" fill="#F48E5B"/>
<path d="M114.783 96.0997C114.783 96.0997 119.386 97.2507 117.398 105.411C115.409 113.571 114.25 115.086 114.25 115.086L111.857 103.224L114.783 96.0997Z" fill="#F5BC8F"/>
<g filter="url(#filter2_d_7028_291)">
<path d="M146.511 76.6521C146.332 76.4411 146.113 76.2681 145.866 76.1434C145.62 76.0187 145.35 75.9448 145.074 75.9261C144.761 75.9047 144.42 75.8943 144.032 75.8943C143.561 75.8943 143.085 75.9099 142.623 75.9244C142.176 75.9388 141.755 75.9527 141.35 75.9527H141.303V72.078H144.933C145.221 72.078 145.506 72.0177 145.77 71.9009C146.034 71.7841 146.27 71.6135 146.463 71.4C146.657 71.1864 146.804 70.9347 146.894 70.6611C146.985 70.3874 147.017 70.0978 146.989 69.811C146.791 67.7394 146.382 65.6936 145.767 63.7057C145.686 63.4444 145.554 63.2018 145.379 62.9919C145.203 62.7821 144.988 62.6092 144.745 62.4833C144.502 62.3573 144.237 62.2809 143.964 62.2584C143.692 62.2359 143.417 62.2677 143.157 62.3521C142.092 62.6995 141.126 63.1076 140.192 63.5053L139.636 63.741C139.338 63.0156 139.038 62.2994 138.743 61.5961C138.552 61.1422 138.36 60.6819 138.164 60.2188C139.451 59.7406 140.726 59.1993 141.874 58.4577C142.103 58.31 142.3 58.1184 142.455 57.8941C142.609 57.6698 142.718 57.4172 142.774 57.1507C142.831 56.8843 142.834 56.6093 142.784 56.3416C142.734 56.074 142.631 55.8188 142.482 55.5909C142.08 54.9773 141.666 54.3752 141.266 53.7928C140.634 52.8735 140.037 52.0051 139.481 51.0921C139.209 50.644 138.776 50.3165 138.271 50.1761C137.765 50.0356 137.225 50.0928 136.761 50.336C135.539 50.9729 134.722 51.8812 134.001 52.6807C133.814 52.8879 133.637 53.0859 133.461 53.2677C132.991 52.8382 132.5 52.3796 131.964 51.8441C131.791 51.6705 131.559 51.4626 131.264 51.1998C131.107 51.0597 130.868 50.8461 130.622 50.6209C130.819 50.4385 131.016 50.2614 131.211 50.0877C132.116 49.2772 133.051 48.4418 133.674 47.2186C133.915 46.7439 133.964 46.1943 133.81 45.6844C133.656 45.1746 133.311 44.744 132.847 44.4826C132.26 44.1514 131.696 43.7578 131.1 43.341C130.082 42.6295 129.028 41.8936 127.69 41.3367C127.421 41.2251 127.13 41.1718 126.839 41.1803C126.547 41.1889 126.261 41.2591 125.998 41.3863C125.736 41.5135 125.503 41.6948 125.316 41.9184C125.129 42.1419 124.991 42.4026 124.911 42.6833C124.605 43.7693 124.198 44.772 123.746 45.7724C122.559 45.3214 121.364 44.838 120.206 44.3083C120.554 43.4399 120.919 42.5872 121.274 41.7478L121.588 41.0102C121.698 40.7491 121.753 40.468 121.75 40.1845C121.747 39.901 121.686 39.6211 121.57 39.3623C121.454 39.1036 121.287 38.8714 121.077 38.6803C120.868 38.4892 120.621 38.3433 120.353 38.2517C118.485 37.6148 116.374 37.3167 114.332 37.0296L114.274 37.0214C113.993 36.9819 113.707 37.0007 113.434 37.0766C113.16 37.1524 112.906 37.2838 112.685 37.4625C112.465 37.6413 112.284 37.8634 112.153 38.1152C112.023 38.367 111.945 38.6431 111.926 38.9261C111.871 39.7285 111.898 40.5662 111.926 41.3755C111.94 41.8085 111.955 42.2665 111.954 42.6972H108.085C108.085 42.3637 108.085 42.0274 108.08 41.6922C108.08 41.5492 108.092 41.3396 108.108 41.1179C108.182 40.0897 108.319 38.1764 106.622 37.2524C106.146 36.993 105.588 36.9307 105.066 37.0788C104.581 37.2177 103.966 37.304 103.313 37.3948C101.903 37.5917 100.303 37.8146 99.0728 38.7461C98.6875 39.0373 98.4165 39.4543 98.3067 39.9246C98.1969 40.3949 98.2554 40.8888 98.4719 41.3205C99.012 42.3967 99.445 43.3572 99.8034 44.2782C99.272 44.4959 98.7579 44.7211 98.2507 44.9428C97.5884 45.2323 96.9447 45.5142 96.2917 45.7678C96.1759 45.4986 96.0601 45.2415 95.9443 44.9943C95.5929 44.2255 95.2896 43.5615 95.1234 42.8008C95.0588 42.5053 94.9301 42.2277 94.7464 41.9874C94.5627 41.7471 94.3285 41.55 94.0603 41.4102C93.7922 41.2703 93.4966 41.1911 93.1944 41.178C92.8922 41.1649 92.5908 41.2183 92.3116 41.3344C90.9731 41.8919 89.9201 42.6271 88.9017 43.3386C88.3054 43.7555 87.7439 44.1491 87.1545 44.4803C86.6852 44.7448 86.3377 45.1822 86.1863 45.6993C86.0349 46.2164 86.0915 46.7722 86.3441 47.2481C86.923 48.3399 87.5859 49.0005 88.4247 49.837L88.6065 50.0182C88.8215 50.2237 89.0495 50.4151 89.289 50.5914L88.8838 50.9925C88.0733 51.7996 87.2941 52.5788 86.5426 53.2451C86.4207 53.1154 86.2976 52.9831 86.1733 52.848C85.4022 52.0143 84.528 51.0695 83.3053 50.3714C83.0693 50.2367 82.809 50.1498 82.5394 50.1159C82.2698 50.0819 81.9961 50.1015 81.7341 50.1734C81.472 50.2454 81.2267 50.3683 81.0123 50.5352C80.7978 50.7021 80.6184 50.9096 80.4842 51.146C80.1201 51.788 79.6894 52.3999 79.2332 53.0477C78.5964 53.9491 77.9422 54.8817 77.391 55.9967C77.2675 56.2469 77.1959 56.5195 77.1806 56.7981C77.1653 57.0767 77.2066 57.3556 77.302 57.6178C77.3973 57.88 77.5448 58.1202 77.7356 58.3238C77.9263 58.5275 78.1563 58.6904 78.4117 58.8028C79.0896 59.1003 79.782 59.3724 80.4512 59.6358C80.9207 59.8199 81.3775 60 81.8221 60.1847C81.6096 60.6947 81.4093 61.2064 81.2125 61.7113C80.9381 62.4147 80.6712 63.1007 80.3875 63.7375C79.2992 63.2744 78.1182 62.7996 76.8909 62.3683C76.6288 62.2763 76.3508 62.238 76.0736 62.2557C75.7963 62.2735 75.5255 62.3471 75.2774 62.4719C75.0292 62.5967 74.8088 62.7703 74.6292 62.9823C74.4497 63.1943 74.3147 63.4403 74.2324 63.7057C73.6176 65.6937 73.2081 67.7395 73.0104 69.811C72.9835 70.086 73.012 70.3637 73.0944 70.6275C73.1767 70.8914 73.3111 71.136 73.4897 71.347C73.6682 71.5579 73.8873 71.7309 74.1339 71.8557C74.3805 71.9804 74.6497 72.0545 74.9254 72.0734C75.2392 72.0948 75.5796 72.1052 75.9675 72.1052C76.4387 72.1052 76.9158 72.0896 77.3766 72.0745C77.8247 72.0601 78.245 72.0467 78.6502 72.0467H78.6971V75.9209H75.0649C74.7677 75.921 74.474 75.9852 74.2038 76.1092C73.9337 76.2332 73.6935 76.4141 73.4997 76.6394C73.3058 76.8648 73.1629 77.1293 73.0807 77.4149C72.9984 77.7005 72.9788 78.0006 73.0231 78.2945C73.081 78.6713 73.1302 79.0546 73.1835 79.4598C73.4266 81.3182 73.6784 83.2396 74.6446 84.7795C74.7895 85.0101 74.9785 85.2097 75.2007 85.367C75.423 85.5242 75.6742 85.636 75.9398 85.6959C76.2054 85.7558 76.4802 85.7626 76.7484 85.7159C77.0167 85.6692 77.273 85.57 77.5028 85.4239C78.1743 84.9966 79.0537 84.6603 79.9846 84.3042L80.3661 84.1578C80.8345 85.3249 81.3202 86.4642 81.7961 87.5792C81.8088 87.6105 81.8227 87.6417 81.836 87.673C81.7202 87.721 81.6114 87.7697 81.5002 87.8177C80.5375 88.2328 79.6286 88.6247 78.6514 88.9177C78.3809 88.9983 78.1298 89.1335 77.9137 89.3149C77.6975 89.4963 77.5208 89.7201 77.3945 89.9725C77.2682 90.2249 77.195 90.5005 77.1794 90.7822C77.1637 91.064 77.206 91.346 77.3036 91.6108C77.8247 93.0222 78.6126 94.1083 79.309 95.0658C79.7386 95.6569 80.1444 96.215 80.4553 96.8026C80.5858 97.0487 80.7649 97.2659 80.9816 97.441C81.1983 97.6161 81.4482 97.7456 81.7163 97.8215C81.9843 97.8975 82.265 97.9185 82.5414 97.8832C82.8177 97.8478 83.0841 97.7569 83.3244 97.616C84.5691 96.8865 85.4763 95.9093 86.2769 95.0473L86.5374 94.7677C87.011 95.2499 87.4892 95.7159 87.9593 96.1744C88.3859 96.5901 88.8022 96.9959 89.2045 97.4023C89.0135 97.5801 88.8143 97.7717 88.6047 97.9812C88.4658 98.1202 88.3199 98.2574 88.1758 98.394C87.3074 99.2144 86.2289 100.235 86.3279 101.705C86.3857 102.523 86.8101 103.259 87.5308 103.777C88.5573 104.515 89.6318 105.167 90.58 105.746C91.0194 106.013 91.4345 106.267 91.801 106.498C92.0487 106.657 92.3275 106.76 92.6185 106.802C92.9094 106.844 93.2061 106.823 93.4884 106.741C93.7708 106.66 94.0324 106.518 94.2559 106.327C94.4793 106.136 94.6594 105.9 94.7841 105.633C95.1726 104.803 95.5159 103.947 95.8482 103.12C95.9854 102.777 96.1203 102.441 96.2535 102.112L96.5643 102.239C97.6353 102.675 98.7295 103.121 99.8011 103.581C99.6784 103.871 99.551 104.164 99.4201 104.461C99.0502 105.306 98.6676 106.179 98.3503 107.159C98.1831 107.676 98.2259 108.237 98.4694 108.723C98.7129 109.208 99.1377 109.577 99.6517 109.752C101.52 110.389 103.631 110.687 105.672 110.974L105.73 110.982C106.011 111.021 106.297 111.002 106.571 110.926C106.844 110.85 107.099 110.719 107.319 110.54C107.539 110.362 107.72 110.14 107.851 109.888C107.982 109.636 108.06 109.36 108.079 109.077C108.137 108.274 108.107 107.437 108.079 106.628C108.065 106.194 108.05 105.737 108.052 105.306H111.925V108.936C111.926 109.484 112.143 110.009 112.531 110.397C112.918 110.784 113.443 111.002 113.991 111.002C114.088 111.002 114.185 110.995 114.28 110.982L114.338 110.973C116.378 110.684 118.488 110.39 120.355 109.752C120.869 109.576 121.293 109.204 121.536 108.717C121.778 108.231 121.818 107.668 121.648 107.151C121.359 106.267 121.012 105.479 120.676 104.717C120.508 104.336 120.344 103.964 120.192 103.589C120.892 103.315 121.558 103.023 122.213 102.735C122.722 102.511 123.218 102.293 123.718 102.09C124.225 103.49 124.791 104.771 125.575 105.922C125.731 106.151 125.931 106.346 126.163 106.495C126.395 106.645 126.655 106.747 126.927 106.794C127.199 106.842 127.478 106.834 127.748 106.772C128.017 106.71 128.271 106.594 128.495 106.432C129.699 105.559 131.007 104.716 132.273 103.9L132.961 103.456C133.408 103.167 133.726 102.717 133.849 102.199C133.971 101.681 133.89 101.136 133.621 100.677C132.892 99.4326 131.914 98.526 131.052 97.7248L130.773 97.4649C131.255 96.9913 131.721 96.5131 132.18 96.043C132.595 95.6158 133.001 95.2001 133.407 94.7978C133.585 94.9882 133.776 95.188 133.986 95.3975C134.125 95.5359 134.263 95.6812 134.399 95.8253C135.221 96.6937 136.153 97.6779 137.532 97.6779C138.423 97.6779 139.223 97.2483 139.783 96.4697C140.757 95.1139 141.964 93.3476 142.663 91.7069C142.773 91.449 142.83 91.1713 142.829 90.8909C142.828 90.6105 142.77 90.3331 142.659 90.0758C142.547 89.8185 142.385 89.5866 142.18 89.3942C141.976 89.2019 141.735 89.0531 141.472 88.957C141.215 88.8633 140.958 88.7712 140.701 88.6786C139.817 88.3607 138.962 88.0533 138.177 87.7124C138.439 87.1016 138.681 86.485 138.919 85.8789C139.151 85.2878 139.378 84.7118 139.614 84.1636C139.978 84.3129 140.344 84.453 140.704 84.5914C141.476 84.8878 142.205 85.1703 142.817 85.4986C143.085 85.6441 143.383 85.7282 143.687 85.7449C143.992 85.7617 144.297 85.7106 144.58 85.5954C144.863 85.4802 145.117 85.3037 145.323 85.0786C145.529 84.8536 145.683 84.5855 145.774 84.2938C146.389 82.3059 146.798 80.26 146.996 78.1885C147.022 77.913 146.992 77.635 146.909 77.3711C146.826 77.1072 146.69 76.8627 146.511 76.6521ZM119.44 52.3854C124.717 54.7208 128.198 58.9151 130.073 61.7443C128.314 62.5785 126.481 63.2732 124.697 63.9482C123.176 64.5271 121.611 65.1171 120.074 65.8008C118.472 63.8973 115.393 62.0453 112.805 61.4589C112.573 60.484 112.577 59.4164 112.583 58.2974C112.586 57.6501 112.589 56.9809 112.546 56.307C112.485 55.3808 112.385 54.4452 112.288 53.5415C112.184 52.5632 112.076 51.5593 112.022 50.5751C114.438 50.8553 116.961 51.2884 119.44 52.3854ZM109.999 70.4628C110.699 70.4627 111.383 70.6701 111.965 71.0587C112.547 71.4473 113 71.9998 113.268 72.6461C113.536 73.2925 113.606 74.0038 113.469 74.69C113.333 75.3762 112.996 76.0065 112.501 76.5012C112.006 76.9959 111.376 77.3328 110.69 77.4693C110.004 77.6058 109.292 77.5357 108.646 77.2679C108 77.0001 107.447 76.5466 107.059 75.9648C106.67 75.3831 106.463 74.6991 106.463 73.9994C106.463 73.0615 106.835 72.1619 107.499 71.4987C108.162 70.8354 109.061 70.4628 109.999 70.4628ZM89.1304 63.2124C92.7197 56.468 98.1697 52.3681 105.334 51.0111C105.484 53.2596 105.624 55.5307 105.759 57.7376C105.842 59.0984 105.927 60.4591 106.012 61.8195C103.554 62.868 101.062 64.2666 99.0745 67.3488C95.9484 66.5904 92.5906 65.7278 88.4264 64.6186C88.6522 64.1369 88.8884 63.6698 89.1304 63.2124ZM94.2249 91.1882C88.4166 85.9299 85.9463 79.3579 86.6908 71.1633C89.1953 71.6786 91.7917 72.3837 94.3141 73.068C95.2647 73.3262 96.2419 73.589 97.2122 73.846C97.2625 74.1749 97.2619 74.5245 97.2608 74.9083C97.2608 75.3547 97.2608 75.8607 97.3459 76.3898C97.721 78.6598 98.8088 80.5829 99.8931 82.2334C99.4971 82.851 99.1002 83.4685 98.7023 84.086C97.2203 86.375 95.7006 88.737 94.2226 91.1882H94.2249ZM99.8028 95.001C101.145 92.7565 102.538 90.6012 103.891 88.5078C104.376 87.7552 104.875 86.9887 105.367 86.2158C109.629 87.9422 113.05 87.013 115.961 85.7984C116.962 86.9708 117.939 88.1662 118.888 89.3299C120.031 90.728 121.204 92.1666 122.436 93.5803C115.254 98.1908 108.008 98.6453 99.8005 95.001H99.8028ZM130.53 85.0319C129.721 86.5517 128.756 87.9828 127.65 89.3021C126.152 87.5728 124.706 85.8054 123.301 84.0866C122.539 83.1551 121.756 82.1975 120.966 81.2499C122.855 78.3199 123.521 74.9437 122.851 72.0062C124.593 71.1477 126.43 70.4593 128.213 69.7907C129.664 69.2465 131.155 68.6873 132.621 68.0302C134.224 73.0263 133.445 79.5588 130.53 85.0319Z" fill="url(#paint1_linear_7028_291)"/>
</g>
<path d="M139.026 74.0019C139.026 90.0068 126.005 103.028 110.001 103.028C93.9957 103.028 80.9746 90.0068 80.9746 74.0019C80.9746 57.9971 93.9957 44.9766 110.001 44.9766C126.005 44.9766 139.026 57.9988 139.026 74.0019ZM82.8133 74.0019C82.8133 88.996 95.0105 101.192 110.003 101.192C124.995 101.192 137.193 88.9948 137.193 74.0019C137.193 59.009 124.996 46.8123 110.003 46.8123C95.01 46.8123 82.8109 59.0096 82.8109 74.0019H82.8133Z" fill="url(#paint2_linear_7028_291)"/>
<path d="M121.518 74.0008C121.518 80.3516 116.352 85.5179 110.001 85.5179C103.65 85.5179 98.4844 80.3516 98.4844 74.0008C98.4844 67.6501 103.651 62.4844 110.001 62.4844C116.351 62.4844 121.518 67.6507 121.518 74.0008ZM99.2126 74.0008C99.2126 79.9498 104.052 84.7896 110.001 84.7896C115.949 84.7896 120.79 79.9498 120.79 74.0008C120.79 68.0519 115.95 63.2127 110.001 63.2127C104.052 63.2127 99.2126 68.0524 99.2126 74.0008Z" fill="#606684"/>
<path d="M101.458 98.2832C101.458 98.2832 102.625 90.2995 106.381 88.8026C109.898 87.4019 113.07 90.1966 113.423 91.8644C113.896 94.0942 113.429 95.1483 112.964 97.7268C112.525 100.13 110.306 100.351 109.986 101.202C108.493 105.164 108.29 106.757 106.77 110.266C106.078 111.862 104.792 115.094 101.38 114.362C98.6854 113.785 96.9633 111.148 98.6715 105.564C99.8502 101.688 100.393 100.985 101.458 98.2832Z" fill="#F48E5B"/>
<path d="M115.975 96.1492C112.635 95.0802 110.728 97.666 109.391 100.827C108.054 103.988 106.595 109.855 106.164 112.269C105.734 114.684 107.546 116.605 109.597 116.488C111.913 116.356 112.993 114.723 113.741 112.847C114.46 111.049 115.227 108.739 115.604 107.742C116.141 106.321 116.714 105.09 117.658 103.001C118.829 100.416 119.6 97.3097 115.975 96.1492Z" fill="#F48E5B"/>
<path d="M115.634 96.786C112.972 95.7462 111.105 98.2284 110 101.222C108.896 104.215 107.569 109.039 107.2 111.32C106.831 113.6 108.64 114.774 110.279 114.679C112.131 114.573 112.637 113.696 113.249 111.922C113.829 110.22 114.472 108.033 114.779 107.092C115.218 105.749 115.685 104.583 116.453 102.611C117.421 100.167 118.522 97.9117 115.634 96.786Z" fill="#FFD3AB"/>
<path d="M101.38 97.8842C101.38 97.8842 103.995 89.0946 107.674 89.2745C110.625 89.4112 111.776 90.5788 112.253 92.0969C112.962 94.327 109.653 99.145 109.122 100.603C107.776 104.312 108.186 103.885 106.812 107.171C106.188 108.665 104.316 113.315 101.792 112.898C99.3185 112.492 97.7247 110.361 99.264 105.134C100.331 101.51 100.417 100.413 101.38 97.8842Z" fill="#FFD3AB"/>
<defs>
<filter id="filter0_d_7028_291" x="27" y="54.2891" width="123" height="123" filterUnits="userSpaceOnUse" color-interpolation-filters="sRGB">
<feFlood flood-opacity="0" result="BackgroundImageFix"/>
<feColorMatrix in="SourceAlpha" type="matrix" values="0 0 0 0 0 0 0 0 0 0 0 0 0 0 0 0 0 0 127 0" result="hardAlpha"/>
<feOffset dy="4"/>
<feGaussianBlur stdDeviation="10"/>
<feComposite in2="hardAlpha" operator="out"/>
<feColorMatrix type="matrix" values="0 0 0 0 0.0551148 0 0 0 0 0.268283 0 0 0 0 0.595833 0 0 0 0.12 0"/>
<feBlend mode="normal" in2="BackgroundImageFix" result="effect1_dropShadow_7028_291"/>
<feBlend mode="normal" in="SourceGraphic" in2="effect1_dropShadow_7028_291" result="shape"/>
</filter>
<filter id="filter1_d_7028_291" x="27" y="58" width="130" height="130" filterUnits="userSpaceOnUse" color-interpolation-filters="sRGB">
<feFlood flood-opacity="0" result="BackgroundImageFix"/>
<feColorMatrix in="SourceAlpha" type="matrix" values="0 0 0 0 0 0 0 0 0 0 0 0 0 0 0 0 0 0 127 0" result="hardAlpha"/>
<feOffset dy="12"/>
<feGaussianBlur stdDeviation="10"/>
<feComposite in2="hardAlpha" operator="out"/>
<feColorMatrix type="matrix" values="0 0 0 0 0.552361 0 0 0 0 0.653273 0 0 0 0 0.808333 0 0 0 0.15 0"/>
<feBlend mode="normal" in2="BackgroundImageFix" result="effect1_dropShadow_7028_291"/>
<feBlend mode="normal" in="SourceGraphic" in2="effect1_dropShadow_7028_291" result="shape"/>
</filter>
<filter id="filter2_d_7028_291" x="69" y="37" width="82.0051" height="82.0017" filterUnits="userSpaceOnUse" color-interpolation-filters="sRGB">
<feFlood flood-opacity="0" result="BackgroundImageFix"/>
<feColorMatrix in="SourceAlpha" type="matrix" values="0 0 0 0 0 0 0 0 0 0 0 0 0 0 0 0 0 0 127 0" result="hardAlpha"/>
<feOffset dy="4"/>
<feGaussianBlur stdDeviation="2"/>
<feComposite in2="hardAlpha" operator="out"/>
<feColorMatrix type="matrix" values="0 0 0 0 0 0 0 0 0 0 0 0 0 0 0 0 0 0 0.25 0"/>
<feBlend mode="normal" in2="BackgroundImageFix" result="effect1_dropShadow_7028_291"/>
<feBlend mode="normal" in="SourceGraphic" in2="effect1_dropShadow_7028_291" result="shape"/>
</filter>
<linearGradient id="paint0_linear_7028_291" x1="74.4803" y1="95.2596" x2="106.216" y2="132.48" gradientUnits="userSpaceOnUse">
<stop stop-color="#3B956C"/>
<stop offset="1" stop-color="#63AF8D"/>
</linearGradient>
<linearGradient id="paint1_linear_7028_291" x1="72.9994" y1="73.9994" x2="146.999" y2="73.9994" gradientUnits="userSpaceOnUse">
<stop stop-color="#989FC1"/>
<stop offset="1" stop-color="#A1A6BF"/>
</linearGradient>
<linearGradient id="paint2_linear_7028_291" x1="110.001" y1="103.028" x2="110.001" y2="44.976" gradientUnits="userSpaceOnUse">
<stop stop-color="#5A6082"/>
<stop offset="1" stop-color="#646A86"/>
</linearGradient>
</defs>
</svg>
