<svg width="138" height="160" viewBox="0 0 138 160" fill="none" xmlns="http://www.w3.org/2000/svg">
<path d="M73.1643 121.904C68.4048 122.09 64.7368 123.059 64.7269 125.586L79.7487 122.033L80.3934 121.881L84.178 122.415L94.4757 123.866C94.4757 123.866 90.548 129.229 87.8635 129.402C85.1789 129.574 78.3073 127.741 78.3073 127.741L73.9929 128.198C73.9929 128.198 64.8206 129.89 64.813 134.362C64.8141 134.574 64.8095 134.771 64.8022 134.957C64.8914 140.214 65.0139 144.872 65.0139 144.872L64.0626 144.875C64.0626 144.875 62.9152 133.247 63.7645 125.592C64.0687 122.966 68.1317 122.033 73.1643 121.904Z" fill="#F48E5B"/>
<path d="M93.4355 144.828L76.2033 144.857L93.4355 144.828Z" fill="#D68265"/>
<path d="M94.4727 123.879L84.175 122.428C89.8144 123.01 94.4727 123.879 94.4727 123.879Z" fill="#F5BC8F"/>
<path d="M64.7302 125.592C64.7344 123.07 68.4052 122.093 73.1675 121.91C75.3635 121.841 77.5611 121.884 79.752 122.039L64.7302 125.592Z" fill="#F5BC8F"/>
<path d="M64.8297 134.371C64.8372 129.888 74.0095 128.206 74.0095 128.206L78.324 127.749C78.324 127.749 85.1969 129.584 87.8801 129.41C90.5633 129.236 94.4923 123.875 94.4923 123.875C94.4923 123.875 92.4061 131.416 92.9017 134.937C93.3974 138.458 94.3967 144.83 94.3967 144.83L93.4455 144.833L76.2146 144.86L65.0459 144.879C65.0459 144.879 64.9235 140.221 64.8343 134.965C64.8304 134.776 64.8363 134.58 64.8297 134.371Z" fill="#FCC99F"/>
<path d="M69.1163 126.773L91.9601 123.834C93.2505 123.668 94.4609 123.113 95.4306 122.243C96.4003 121.374 97.0833 120.23 97.3888 118.965L101.402 102.411C101.738 101.031 101.605 99.579 101.026 98.2847C101.026 98.2847 98.3205 95.6751 94.8142 87.1279C92.1674 80.678 89.2952 79.0829 84.2673 78.9331L60.1163 85.2012C56.9316 86.19 55.3542 91.9466 56.0716 95.19L62.0623 121.796C63.0883 124.837 66.3896 126.949 69.1163 126.773Z" fill="#FCC99F"/>
<path d="M80.1563 125.26C80.1563 125.26 74.6103 109.969 66.235 103.443C57.8597 96.9174 56.6856 97.7558 56.6856 97.7558C56.6856 97.7558 59.5131 122.574 64.7782 125.748C70.0434 128.922 80.1563 125.26 80.1563 125.26Z" fill="#FFD3AB"/>
<path d="M95.1411 96.6376C95.1411 96.6376 84.9308 104.051 81.9286 108.096C78.9265 112.142 77.9866 121.205 77.9866 121.205C77.9866 121.205 70.1488 104.947 62.4032 105.49L60.8302 99.51L69.2878 92.1069C69.2878 92.1069 76.2729 88.9289 82.9553 89.9726C89.6964 91.033 95.1411 96.6376 95.1411 96.6376Z" fill="#FCC99F"/>
<path d="M98.9393 95.0643C98.9393 95.0643 87.5874 97.3754 82.8777 105.433C78.168 113.491 77.9869 121.208 77.9869 121.208L98.66 96.1828L98.9393 95.0643Z" fill="#F48E5B"/>
<path d="M98.4516 118.99C98.4516 118.99 103.998 109.248 106.191 104.722C108.582 99.7681 107.518 91.0221 99.6482 94.7802C91.7781 98.5383 86.8495 101.794 81.1886 112.311C76.3147 121.381 78.4829 125.062 81.1646 126.568C84.8219 128.619 93.0699 128.391 98.4516 118.99Z" fill="#FFD3AB"/>
<path d="M99.6717 94.8361C99.6717 94.8361 99.3638 78.064 108.431 75.5283C117.498 72.9927 108.923 82.0687 108.916 85.0878C108.91 88.107 110.505 96.1124 107.43 100.667C104.356 105.221 99.6717 94.8361 99.6717 94.8361Z" fill="#FFD3AB"/>
<path d="M72.0055 85.486C72.0025 85.5429 71.993 85.5993 71.9772 85.6541C71.9547 85.7214 71.9239 85.7243 71.8875 85.6711C71.9494 85.5533 71.9803 85.4832 71.9803 85.4832L72.0055 85.486Z" fill="#D68265"/>
<path d="M64.6211 89.0664C64.629 89.397 64.5783 89.54 64.4231 89.3568C64.3666 89.2809 64.321 89.1975 64.2876 89.109C64.3759 89.0542 64.4236 89.0205 64.4236 89.0205C64.4236 89.0205 64.4951 89.0442 64.6211 89.0664Z" fill="#D68265"/>
<path d="M64.1623 127.121C58.0124 124.339 56.3049 104.208 56.3049 104.208L55.5247 99.9535C55.5247 99.9535 56.6367 97.6974 56.8259 97.6677C57.3609 101.919 60.1568 123.009 64.8635 125.849L64.1623 127.121Z" fill="#F48E5B"/>
<path d="M55.908 91.9822C55.908 91.9822 56.2072 95.6495 56.5598 97.5935C56.7874 98.8428 55.6123 99.5228 55.6123 99.5228L55.0373 92.3689L55.908 91.9822Z" fill="#D68265"/>
<path d="M56.5143 85.3151C56.5143 85.3151 51.2534 86.2878 53.4636 94.9282C55.6738 103.569 56.7792 104.365 56.7792 104.365L59.622 92.6132L56.5143 85.3151Z" fill="#F48E5B"/>
<path d="M57.2169 85.0997C57.2169 85.0997 52.6141 86.2507 54.6024 94.4109C56.5906 102.571 57.7495 104.086 57.7495 104.086L60.1428 92.2244L57.2169 85.0997Z" fill="#F5BC8F"/>
<path d="M39.2616 39.131C37.9493 37.8187 35.8082 37.8098 34.6199 39.2354C30.3905 44.3093 27.5782 50.4379 26.5033 56.9964C25.2466 64.664 26.4279 72.5326 29.8808 79.4931C33.3337 86.4536 38.8839 92.155 45.7492 95.7935C52.6145 99.432 60.4485 100.824 68.1471 99.774C75.8457 98.7236 83.0205 95.2837 88.6601 89.9391C94.2998 84.5945 98.12 77.6147 99.5821 69.9837C101.044 62.3526 100.075 54.4551 96.8099 47.4044C94.0174 41.3735 89.6661 36.2223 84.2321 32.4667C82.7054 31.4115 80.6449 31.9937 79.7321 33.6096V33.6096C78.8193 35.2255 79.4027 37.2609 80.908 38.3465C85.1265 41.3886 88.5101 45.4747 90.7111 50.2283C93.3847 56.0023 94.1787 62.4697 92.9814 68.7189C91.784 74.9682 88.6556 80.6841 84.0371 85.0609C79.4187 89.4377 73.5431 92.2547 67.2386 93.1148C60.9341 93.975 54.5186 92.8348 48.8965 89.8552C43.2744 86.8755 38.7292 82.2065 35.9015 76.5064C33.0739 70.8063 32.1065 64.3626 33.1356 58.0834C33.9828 52.914 36.1481 48.0708 39.3975 44.0098C40.557 42.5607 40.5739 40.4433 39.2616 39.131V39.131Z" fill="url(#paint0_linear_686_6185)"/>
<path d="M77.2758 32.682C78.0995 30.9088 77.3338 28.7862 75.4903 28.1351C70.0579 26.2166 64.237 25.5837 58.4889 26.3082C52.7409 27.0328 47.2591 29.0905 42.4728 32.2971C40.8485 33.3854 40.6335 35.6316 41.8715 37.1448V37.1448C43.1095 38.6581 45.3304 38.8612 46.9788 37.8098C50.7159 35.426 54.9476 33.8909 59.3744 33.3329C63.8012 32.7749 68.2815 33.2118 72.4933 34.5936C74.351 35.203 76.4521 34.4552 77.2758 32.682V32.682Z" fill="#D9D9D9"/>
<path d="M83.2144 86.8872C83.2144 86.8872 87.6121 96.2372 81.9517 98.2665C76.9664 100.052 73.7862 90.0914 73.1497 88.6994C72.457 87.1774 69.1973 80.9269 68.9288 79.9885C68.3178 77.8186 67.4548 73.5442 71.3869 71.7764C73.7271 70.7209 76.8319 71.9309 78.4217 74.3505C81.3075 78.7313 81.5511 82.6927 83.2144 86.8872Z" fill="#F48E5B"/>
<path d="M92.3428 85.1902C92.3428 85.1902 94.7764 92.8109 89.7762 94.4809C84.5972 96.2148 81.6401 86.4475 81.111 85.0214C80.5819 83.5952 76.8503 75.7691 77.2242 73.0862C77.9246 68.0366 82.9818 65.664 86.1987 69.0351C89.6397 72.6684 90.4717 76.3201 92.3428 85.1902Z" fill="#F48E5B"/>
<path d="M90.9466 82.6132C90.9466 82.6132 94.1808 91.6187 90.0458 92.8733C85.9107 94.128 84.9297 88.2886 84.3944 86.8576C83.8592 85.4265 79.4767 74.3487 79.3459 71.6451C79.2152 68.9415 84.3649 67.0079 86.6135 70.1224C89.4147 74.0125 89.5696 78.3107 90.9466 82.6132Z" fill="#FFD3AB"/>
<path d="M71.7457 85.6683C71.7457 85.6683 69.6408 77.8793 65.7334 76.8385C62.0751 75.8649 59.2567 79.0162 59.104 80.7141C58.8987 82.9842 59.488 83.9755 60.2556 86.4806C60.9762 88.8149 63.2055 88.7706 63.625 89.5778C65.5768 93.3351 65.9676 94.8923 67.8929 98.197C68.7696 99.6996 70.43 102.755 73.7304 101.625C76.3379 100.731 77.7351 97.909 75.3765 92.5668C73.7464 88.858 73.1245 88.2249 71.7457 85.6683Z" fill="#F48E5B"/>
<path d="M57.0801 85.2674C60.2701 83.8097 62.4699 86.1511 64.1723 89.1314C65.8746 92.1117 68.0199 97.7634 68.7336 100.11C69.4472 102.456 67.8759 104.579 65.8256 104.706C63.5107 104.849 62.2444 103.356 61.2794 101.582C60.3514 99.8823 59.3161 97.6792 58.8239 96.734C58.1221 95.3867 57.4065 94.2329 56.2219 92.2709C54.7524 89.8424 53.6185 86.8497 57.0801 85.2674Z" fill="#F48E5B"/>
<path d="M57.4925 85.8594C60.0126 84.5112 62.1614 86.7543 63.6132 89.5956C65.065 92.4369 66.9549 97.0696 67.5916 99.29C68.2283 101.51 66.5711 102.891 64.9324 102.991C63.0809 103.105 62.4749 102.295 61.6567 100.606C60.8789 98.9842 59.9804 96.8887 59.5643 95.9908C58.9691 94.7096 58.3667 93.607 57.3711 91.7406C56.1198 89.4282 54.7585 87.3197 57.4925 85.8594Z" fill="#FFD3AB"/>
<path d="M71.778 85.2601C71.778 85.2601 68.1391 76.8427 64.5071 77.4578C61.5934 77.9435 60.5892 79.2393 60.2952 80.8033C59.8563 83.1018 63.7124 87.4934 64.4129 88.8776C66.1891 92.4008 65.7316 92.0258 67.4861 95.1254C68.2826 96.5346 70.6933 100.931 73.1499 100.217C75.5577 99.5199 76.8874 97.2151 74.7389 92.2073C73.2495 88.7355 73.0336 87.6566 71.778 85.2601Z" fill="#FFD3AB"/>
<path d="M82.2723 86.0951C82.2723 86.0951 86.1164 94.8532 82.0782 96.391C78.04 97.9289 76.4642 91.7707 75.8308 90.3812C75.1975 88.9916 70.2602 78.6415 69.9452 75.9546C69.6302 73.2677 73.8083 70.1859 77.0895 73.9359C80.2464 77.5402 80.6055 81.8955 82.2723 86.0951Z" fill="#FFD3AB"/>
<defs>
<linearGradient id="paint0_linear_686_6185" x1="64.9193" y1="39.7372" x2="64.9193" y2="98.1908" gradientUnits="userSpaceOnUse">
<stop stop-color="#FFB800"/>
<stop offset="1" stop-color="#FF7A00"/>
</linearGradient>
</defs>
</svg>
