<svg width="117" height="134" viewBox="0 0 117 134" fill="none" xmlns="http://www.w3.org/2000/svg">
<path d="M64.8357 95.9044C69.5952 96.0903 73.2632 97.059 73.2731 99.5864L58.2513 96.0334L57.6066 95.881L53.822 96.4154L43.5243 97.8663C43.5243 97.8663 47.452 103.229 50.1365 103.402C52.8211 103.574 59.6927 101.741 59.6927 101.741L64.0071 102.198C64.0071 102.198 73.1794 103.89 73.187 108.362C73.1859 108.574 73.1905 108.771 73.1978 108.957C73.1086 114.214 72.9861 118.872 72.9861 118.872L73.9374 118.875C73.9374 118.875 75.0848 107.247 74.2355 99.5922C73.9313 96.9663 69.8683 96.0333 64.8357 95.9044Z" fill="#F48E5B"/>
<path d="M44.5645 118.828L61.7967 118.857L44.5645 118.828Z" fill="#D68265"/>
<path d="M43.5273 97.8789L53.825 96.428C48.1856 97.0097 43.5273 97.8789 43.5273 97.8789Z" fill="#F5BC8F"/>
<path d="M73.2698 99.5921C73.2656 97.0703 69.5948 96.0932 64.8325 95.9101C62.6365 95.8411 60.4389 95.8841 58.248 96.0391L73.2698 99.5921Z" fill="#F5BC8F"/>
<path d="M73.1703 108.371C73.1628 103.888 63.9905 102.206 63.9905 102.206L59.676 101.749C59.676 101.749 52.8031 103.584 50.1199 103.41C47.4367 103.236 43.5077 97.8751 43.5077 97.8751C43.5077 97.8751 45.5939 105.416 45.0983 108.937C44.6026 112.458 43.6033 118.83 43.6033 118.83L44.5545 118.833L61.7854 118.86L72.9541 118.879C72.9541 118.879 73.0765 114.221 73.1657 108.965C73.1696 108.776 73.1637 108.58 73.1703 108.371Z" fill="#FCC99F"/>
<path d="M68.8837 100.773L46.0399 97.8345C44.7495 97.6682 43.5391 97.1132 42.5694 96.2435C41.5997 95.3737 40.9167 94.2303 40.6112 92.9653L36.5975 76.4114C36.2622 75.0306 36.3947 73.579 36.9744 72.2847C36.9744 72.2847 39.6795 69.6751 43.1858 61.1279C45.8326 54.678 48.7048 53.0829 53.7327 52.9331L77.8837 59.2012C81.0684 60.19 82.6458 65.9466 81.9284 69.19L75.9377 95.796C74.9117 98.8372 71.6104 100.949 68.8837 100.773Z" fill="#FCC99F"/>
<path d="M57.8437 99.2597C57.8437 99.2597 63.3897 83.9689 71.765 77.4431C80.1403 70.9174 81.3144 71.7558 81.3144 71.7558C81.3144 71.7558 78.4869 96.5738 73.2218 99.7479C67.9566 102.922 57.8437 99.2597 57.8437 99.2597Z" fill="#FFD3AB"/>
<path d="M42.8589 70.6376C42.8589 70.6376 53.0692 78.0506 56.0714 82.0961C59.0735 86.1416 60.0134 95.2048 60.0134 95.2048C60.0134 95.2048 67.8512 78.947 75.5968 79.4896L77.1698 73.51L68.7122 66.1069C68.7122 66.1069 61.7271 62.9289 55.0447 63.9726C48.3036 65.033 42.8589 70.6376 42.8589 70.6376Z" fill="#FCC99F"/>
<path d="M39.0607 69.0643C39.0607 69.0643 50.4126 71.3754 55.1223 79.4335C59.832 87.4915 60.0131 95.2084 60.0131 95.2084L39.34 70.1828L39.0607 69.0643Z" fill="#F48E5B"/>
<path d="M39.5484 92.9899C39.5484 92.9899 34.0023 83.2479 31.8091 78.7218C29.4177 73.7681 30.4817 65.0221 38.3518 68.7802C46.2219 72.5383 51.1505 75.7941 56.8114 86.311C61.6853 95.3809 59.5171 99.0618 56.8354 100.568C53.1781 102.619 44.9301 102.391 39.5484 92.9899Z" fill="#FFD3AB"/>
<path d="M38.3283 68.8361C38.3283 68.8361 38.6362 52.064 29.569 49.5283C20.5017 46.9927 29.077 56.0687 29.0835 59.0878C29.09 62.107 27.4952 70.1124 30.5696 74.6666C33.644 79.2207 38.3283 68.8361 38.3283 68.8361Z" fill="#FFD3AB"/>
<path d="M65.9945 59.486C65.9975 59.5429 66.007 59.5993 66.0228 59.6541C66.0453 59.7214 66.0761 59.7243 66.1125 59.6711C66.0506 59.5533 66.0197 59.4832 66.0197 59.4832L65.9945 59.486Z" fill="#D68265"/>
<path d="M73.3789 63.0664C73.371 63.397 73.4217 63.54 73.5769 63.3568C73.6334 63.2809 73.679 63.1975 73.7124 63.109C73.6241 63.0542 73.5764 63.0205 73.5764 63.0205C73.5764 63.0205 73.5049 63.0442 73.3789 63.0664Z" fill="#D68265"/>
<path d="M73.8377 101.121C79.9876 98.3391 81.6951 78.2084 81.6951 78.2084L82.4753 73.9535C82.4753 73.9535 81.3633 71.6974 81.1741 71.6677C80.6391 75.9188 77.8432 97.0088 73.1365 99.8491L73.8377 101.121Z" fill="#F48E5B"/>
<path d="M82.092 65.9822C82.092 65.9822 81.7928 69.6495 81.4402 71.5935C81.2126 72.8428 82.3877 73.5228 82.3877 73.5228L82.9627 66.3689L82.092 65.9822Z" fill="#D68265"/>
<path d="M81.4857 59.3151C81.4857 59.3151 86.7466 60.2878 84.5364 68.9282C82.3262 77.5686 81.2208 78.3653 81.2208 78.3653L78.378 66.6132L81.4857 59.3151Z" fill="#F48E5B"/>
<path d="M80.7831 59.0997C80.7831 59.0997 85.3859 60.2507 83.3976 68.4109C81.4094 76.5711 80.2505 78.0864 80.2505 78.0864L77.8572 66.2244L80.7831 59.0997Z" fill="#F5BC8F"/>
<g filter="url(#filter0_d_686_6104)">
<path d="M112.511 39.6521C112.332 39.4411 112.113 39.2681 111.866 39.1434C111.62 39.0187 111.35 38.9448 111.074 38.9261C110.761 38.9047 110.42 38.8943 110.032 38.8943C109.561 38.8943 109.085 38.9099 108.623 38.9244C108.176 38.9388 107.755 38.9527 107.35 38.9527H107.303V35.078H110.933C111.221 35.078 111.506 35.0177 111.77 34.9009C112.034 34.7841 112.27 34.6135 112.463 34.4C112.657 34.1864 112.804 33.9347 112.894 33.6611C112.985 33.3874 113.017 33.0978 112.989 32.811C112.792 30.7394 112.382 28.6936 111.767 26.7057C111.686 26.4444 111.554 26.2018 111.379 25.9919C111.203 25.7821 110.988 25.6092 110.745 25.4833C110.502 25.3573 110.237 25.2809 109.964 25.2584C109.692 25.2359 109.417 25.2677 109.157 25.3521C108.092 25.6995 107.126 26.1076 106.192 26.5053L105.636 26.741C105.338 26.0156 105.038 25.2995 104.743 24.5961C104.552 24.1422 104.36 23.6819 104.164 23.2188C105.451 22.7406 106.726 22.1993 107.874 21.4577C108.103 21.31 108.3 21.1184 108.455 20.8941C108.609 20.6698 108.718 20.4172 108.774 20.1507C108.831 19.8843 108.834 19.6093 108.784 19.3416C108.734 19.074 108.631 18.8188 108.482 18.5909C108.08 17.9773 107.666 17.3752 107.266 16.7928C106.634 15.8735 106.037 15.0051 105.481 14.0921C105.209 13.644 104.776 13.3165 104.271 13.1761C103.765 13.0356 103.225 13.0928 102.761 13.336C101.539 13.9729 100.722 14.8812 100.001 15.6807C99.8144 15.8879 99.6367 16.0859 99.4607 16.2677C98.9906 15.8382 98.4997 15.3796 97.9642 14.8441C97.7905 14.6705 97.559 14.4626 97.2637 14.1998C97.1068 14.0597 96.8677 13.8461 96.6223 13.6209C96.8185 13.4385 97.0165 13.2614 97.211 13.0877C98.1159 12.2772 99.0514 11.4418 99.6737 10.2186C99.9154 9.74393 99.9643 9.19428 99.8102 8.68444C99.6562 8.1746 99.3111 7.744 98.847 7.48258C98.26 7.15144 97.6962 6.75778 97.0999 6.34095C96.0815 5.62946 95.0285 4.89364 93.69 4.33672C93.4205 4.2251 93.1305 4.17181 92.8389 4.18035C92.5473 4.18889 92.2609 4.25907 91.9984 4.38628C91.7359 4.51348 91.5033 4.69482 91.3159 4.91837C91.1285 5.14192 90.9906 5.40261 90.9112 5.68329C90.605 6.76935 90.198 7.77205 89.7458 8.77242C88.559 8.32144 87.3636 7.83804 86.2063 7.30833C86.5537 6.43995 86.919 5.5872 87.2744 4.74776L87.5876 4.01022C87.698 3.74906 87.7534 3.46796 87.7504 3.18446C87.7474 2.90096 87.6861 2.62111 87.5702 2.36234C87.4544 2.10357 87.2865 1.87141 87.0771 1.68033C86.8676 1.48924 86.6211 1.34332 86.3528 1.25165C84.4852 0.614837 82.3744 0.316701 80.332 0.0295559L80.2741 0.0214431C79.9932 -0.0181013 79.7072 0.000659116 79.4338 0.0765508C79.1605 0.152442 78.9057 0.283838 78.6854 0.462545C78.4651 0.641252 78.2839 0.863441 78.1533 1.11524C78.0226 1.36705 77.9453 1.64308 77.926 1.9261C77.871 2.72849 77.8976 3.56617 77.926 4.37551C77.9399 4.80854 77.955 5.26647 77.9538 5.69719H74.0849C74.0849 5.36373 74.0849 5.02738 74.0797 4.69219C74.0797 4.5492 74.0924 4.33962 74.108 4.11789C74.1815 3.08973 74.3187 1.17639 72.6219 0.252432C72.1462 -0.00698125 71.5876 -0.0693431 71.0664 0.0787557C70.5807 0.217697 69.9664 0.303954 69.3134 0.394844C67.9031 0.591677 66.303 0.814567 65.0728 1.74605C64.6875 2.03729 64.4165 2.45429 64.3067 2.9246C64.1969 3.39491 64.2554 3.88881 64.4719 4.32051C65.012 5.39673 65.4451 6.35716 65.8034 7.27822C65.272 7.4959 64.7579 7.7211 64.2507 7.94282C63.5884 8.23228 62.9447 8.51422 62.2917 8.76779C62.1759 8.49859 62.0601 8.24154 61.9443 7.99434C61.5929 7.22553 61.2896 6.56152 61.1234 5.80082C61.0588 5.50534 60.9301 5.22766 60.7464 4.98737C60.5627 4.74709 60.3285 4.55005 60.0603 4.41019C59.7922 4.27033 59.4966 4.19107 59.1944 4.17797C58.8922 4.16488 58.5908 4.21827 58.3116 4.3344C56.9731 4.89191 55.9201 5.62714 54.9017 6.33864C54.3055 6.75546 53.7439 7.14912 53.1545 7.48027C52.6852 7.74478 52.3377 8.18223 52.1863 8.69931C52.0349 9.21639 52.0915 9.77217 52.3441 10.2481C52.923 11.3399 53.5859 12.0005 54.4247 12.837L54.6065 13.0182C54.8215 13.2237 55.0495 13.4151 55.289 13.5914L54.8838 13.9925C54.0733 14.7996 53.2941 15.5788 52.5426 16.2451C52.4207 16.1154 52.2976 15.9831 52.1733 15.848C51.4022 15.0143 50.528 14.0695 49.3053 13.3714C49.0693 13.2367 48.809 13.1498 48.5394 13.1159C48.2698 13.0819 47.9961 13.1015 47.7341 13.1734C47.472 13.2454 47.2267 13.3683 47.0123 13.5352C46.7978 13.7021 46.6184 13.9096 46.4842 14.146C46.1201 14.788 45.6894 15.3999 45.2332 16.0477C44.5964 16.9491 43.9422 17.8817 43.391 18.9967C43.2675 19.2469 43.1959 19.5195 43.1806 19.7981C43.1653 20.0767 43.2066 20.3556 43.302 20.6178C43.3973 20.88 43.5448 21.1202 43.7356 21.3238C43.9263 21.5275 44.1563 21.6904 44.4117 21.8028C45.0896 22.1003 45.782 22.3724 46.4512 22.6358C46.9207 22.8199 47.3775 23 47.8221 23.1847C47.6096 23.6947 47.4093 24.2064 47.2125 24.7113C46.9381 25.4147 46.6712 26.1007 46.3875 26.7375C45.2992 26.2744 44.1182 25.7996 42.8909 25.3683C42.6288 25.2763 42.3508 25.238 42.0736 25.2557C41.7963 25.2735 41.5255 25.3471 41.2774 25.4719C41.0292 25.5967 40.8088 25.7703 40.6292 25.9823C40.4497 26.1943 40.3147 26.4403 40.2325 26.7057C39.6176 28.6937 39.2081 30.7395 39.0104 32.811C38.9835 33.086 39.012 33.3637 39.0944 33.6275C39.1767 33.8914 39.3111 34.136 39.4897 34.347C39.6682 34.5579 39.8873 34.7309 40.1339 34.8557C40.3805 34.9804 40.6497 35.0545 40.9254 35.0734C41.2392 35.0948 41.5796 35.1052 41.9675 35.1052C42.4387 35.1052 42.9158 35.0896 43.3766 35.0745C43.8247 35.0601 44.245 35.0467 44.6502 35.0467H44.6971V38.9209H41.0649C40.7677 38.921 40.474 38.9852 40.2038 39.1092C39.9337 39.2332 39.6935 39.4141 39.4997 39.6394C39.3058 39.8648 39.1629 40.1293 39.0807 40.4149C38.9984 40.7005 38.9788 41.0006 39.0231 41.2945C39.081 41.6714 39.1302 42.0546 39.1835 42.4598C39.4266 44.3182 39.6784 46.2396 40.6446 47.7795C40.7895 48.0101 40.9785 48.2097 41.2007 48.367C41.423 48.5242 41.6742 48.636 41.9398 48.6959C42.2054 48.7558 42.4802 48.7626 42.7484 48.7159C43.0167 48.6692 43.273 48.57 43.5028 48.4239C44.1743 47.9966 45.0537 47.6603 45.9846 47.3042L46.3661 47.1578C46.8345 48.3249 47.3202 49.4642 47.7961 50.5792C47.8088 50.6105 47.8227 50.6417 47.836 50.673C47.7202 50.721 47.6114 50.7697 47.5002 50.8177C46.5375 51.2328 45.6286 51.6247 44.6514 51.9177C44.3809 51.9983 44.1298 52.1335 43.9137 52.3149C43.6975 52.4963 43.5208 52.7201 43.3945 52.9725C43.2682 53.2249 43.195 53.5005 43.1794 53.7822C43.1637 54.064 43.206 54.346 43.3036 54.6108C43.8247 56.0222 44.6126 57.1083 45.309 58.0658C45.7386 58.6569 46.1444 59.215 46.4553 59.8026C46.5858 60.0487 46.7649 60.2659 46.9816 60.441C47.1983 60.6161 47.4482 60.7456 47.7163 60.8216C47.9843 60.8975 48.265 60.9185 48.5414 60.8832C48.8177 60.8478 49.0841 60.7569 49.3244 60.616C50.5691 59.8865 51.4763 58.9093 52.2769 58.0473L52.5374 57.7677C53.011 58.2499 53.4892 58.7159 53.9593 59.1744C54.3859 59.5901 54.8022 59.9959 55.2045 60.4023C55.0135 60.5801 54.8143 60.7717 54.6047 60.9813C54.4658 61.1202 54.3199 61.2574 54.1758 61.394C53.3074 62.2144 52.2289 63.235 52.3279 64.7055C52.3857 65.5235 52.8101 66.2593 53.5308 66.7774C54.5573 67.515 55.6318 68.1668 56.58 68.7457C57.0194 69.0126 57.4345 69.2668 57.801 69.4983C58.0487 69.6566 58.3275 69.7601 58.6185 69.802C58.9095 69.844 59.2061 69.8233 59.4884 69.7414C59.7708 69.6596 60.0324 69.5184 60.2559 69.3273C60.4793 69.1362 60.6594 68.8997 60.7841 68.6334C61.1726 67.8027 61.5159 66.947 61.8482 66.1198C61.9854 65.777 62.1203 65.4407 62.2535 65.1119L62.5643 65.2392C63.6353 65.6751 64.7295 66.1209 65.8011 66.5812C65.6784 66.8706 65.551 67.1636 65.4202 67.4611C65.0502 68.3058 64.6676 69.1788 64.3503 70.1595C64.1831 70.6759 64.2259 71.2374 64.4694 71.7226C64.7129 72.2077 65.1377 72.5775 65.6517 72.7519C67.5199 73.3887 69.6306 73.6868 71.6725 73.974L71.7304 73.9815C72.0113 74.021 72.2973 74.0022 72.5706 73.9263C72.8439 73.8504 73.0986 73.719 73.319 73.5404C73.5393 73.3618 73.7205 73.1397 73.8513 72.888C73.982 72.6363 74.0596 72.3604 74.0791 72.0774C74.137 71.2745 74.1069 70.4374 74.0791 69.628C74.0652 69.1944 74.0501 68.7371 74.0519 68.3063H77.9254V71.9362C77.9256 72.484 78.1433 73.0093 78.5306 73.3966C78.9179 73.7839 79.4432 74.0016 79.991 74.0018C80.0879 74.002 80.1846 73.9952 80.2805 73.9815L80.3384 73.9734C82.3779 73.6839 84.4875 73.3898 86.3545 72.7519C86.869 72.5759 87.2933 72.2042 87.5355 71.7174C87.7777 71.2305 87.8183 70.6679 87.6484 70.1514C87.3589 69.2668 87.0116 68.4789 86.6758 67.717C86.5079 67.3361 86.3441 66.9644 86.1918 66.5893C86.8923 66.3149 87.5581 66.0225 88.2128 65.7348C88.7217 65.5113 89.2179 65.2931 89.718 65.0899C90.2246 66.4903 90.7914 67.7708 91.5752 68.9223C91.7308 69.1507 91.9306 69.3455 92.1629 69.4953C92.3951 69.6451 92.655 69.7467 92.9273 69.7942C93.1995 69.8417 93.4785 69.8341 93.7477 69.7719C94.017 69.7096 94.271 69.594 94.4947 69.4318C95.6989 68.5587 97.0072 67.7158 98.2728 66.9001L98.9611 66.4561C99.4077 66.167 99.7256 65.7167 99.8485 65.1991C99.9715 64.6815 99.89 64.1364 99.6211 63.6773C98.8916 62.4326 97.9144 61.526 97.0524 60.7248L96.7728 60.4649C97.255 59.9913 97.7211 59.5131 98.1796 59.043C98.5952 58.6158 99.001 58.2001 99.4074 57.7978C99.5846 57.9882 99.7762 58.188 99.9864 58.3975C100.125 58.5359 100.263 58.6812 100.399 58.8254C101.221 59.6937 102.153 60.6779 103.532 60.6779C104.423 60.6779 105.223 60.2483 105.783 59.4697C106.757 58.1139 107.964 56.3476 108.663 54.7069C108.773 54.449 108.83 54.1713 108.829 53.8909C108.828 53.6105 108.77 53.3331 108.659 53.0758C108.547 52.8185 108.385 52.5866 108.18 52.3942C107.976 52.2019 107.735 52.0531 107.472 51.957C107.215 51.8633 106.958 51.7712 106.701 51.6786C105.817 51.3607 104.962 51.0533 104.177 50.7124C104.439 50.1016 104.681 49.485 104.919 48.8789C105.151 48.2878 105.378 47.7118 105.614 47.1636C105.978 47.3129 106.344 47.453 106.704 47.5914C107.476 47.8878 108.205 48.1703 108.817 48.4986C109.085 48.6441 109.383 48.7282 109.687 48.7449C109.992 48.7617 110.297 48.7106 110.58 48.5954C110.863 48.4802 111.117 48.3037 111.323 48.0786C111.529 47.8536 111.683 47.5855 111.774 47.2938C112.389 45.3059 112.798 43.2601 112.996 41.1885C113.022 40.913 112.992 40.635 112.909 40.3711C112.826 40.1072 112.69 39.8627 112.511 39.6521ZM85.4404 15.3854C90.7167 17.7208 94.1983 21.9151 96.0729 24.7443C94.3141 25.5785 92.4807 26.2732 90.697 26.9482C89.1762 27.5271 87.6108 28.1171 86.0737 28.8008C84.4719 26.8973 81.3932 25.0453 78.8048 24.4589C78.5732 23.484 78.5767 22.4164 78.5825 21.2974C78.586 20.6501 78.5894 19.9809 78.546 19.307C78.4852 18.3808 78.3851 17.4452 78.2884 16.5415C78.1836 15.5632 78.0759 14.5593 78.0215 13.5751C80.4379 13.8553 82.9615 14.2884 85.4404 15.3854ZM75.9994 33.4628C76.699 33.4627 77.383 33.6701 77.9647 34.0587C78.5465 34.4473 79 34.9998 79.2678 35.6461C79.5356 36.2925 79.6057 37.0038 79.4692 37.69C79.3327 38.3762 78.9958 39.0065 78.5011 39.5012C78.0064 39.9959 77.3761 40.3328 76.6899 40.4693C76.0037 40.6058 75.2924 40.5357 74.646 40.2679C73.9997 40.0001 73.4472 39.5466 73.0586 38.9648C72.67 38.3831 72.4626 37.6991 72.4627 36.9994C72.4627 36.0615 72.8353 35.1619 73.4986 34.4987C74.1618 33.8354 75.0614 33.4628 75.9994 33.4628ZM55.1304 26.2124C58.7197 19.468 64.1697 15.3681 71.3344 14.0111C71.4843 16.2596 71.6239 18.5307 71.7588 20.7376C71.8421 22.0984 71.9267 23.4591 72.0123 24.8195C69.5537 25.868 67.062 27.2666 65.0745 30.3488C61.9484 29.5904 58.5906 28.7278 54.4264 27.6186C54.6522 27.1369 54.8884 26.6698 55.1304 26.2124ZM60.2249 54.1882C54.4166 48.9299 51.9463 42.3579 52.6908 34.1633C55.1953 34.6786 57.7917 35.3837 60.3141 36.068C61.2647 36.3262 62.2419 36.589 63.2122 36.846C63.2625 37.1749 63.2619 37.5245 63.2608 37.9084C63.2608 38.3547 63.2608 38.8607 63.3459 39.3898C63.721 41.6598 64.8088 43.5829 65.8931 45.2334C65.4971 45.851 65.1002 46.4685 64.7023 47.086C63.2203 49.375 61.7006 51.7371 60.2226 54.1882H60.2249ZM65.8028 58.001C67.1453 55.7565 68.5376 53.6012 69.8906 51.5078C70.3757 50.7552 70.8747 49.9887 71.3668 49.2158C75.6288 50.9422 79.0503 50.013 81.9611 48.7984C82.962 49.9708 83.9387 51.1662 84.8881 52.3299C86.0309 53.728 87.2038 55.1666 88.4357 56.5803C81.2542 61.1908 74.0079 61.6453 65.8005 58.001H65.8028ZM96.5296 48.032C95.7208 49.5517 94.7555 50.9828 93.6495 52.3021C92.1518 50.5728 90.7063 48.8054 89.3012 47.0866C88.5394 46.1551 87.7561 45.1975 86.9664 44.2499C88.8549 41.3199 89.5206 37.9437 88.8514 35.0062C90.5934 34.1477 92.4297 33.4593 94.2128 32.7907C95.6642 32.2465 97.1554 31.6873 98.6213 31.0302C100.224 36.0263 99.4451 42.5588 96.5296 48.032Z" fill="url(#paint0_linear_686_6104)"/>
</g>
<path d="M105.026 37.0019C105.026 53.0068 92.0054 66.0279 76.0005 66.0279C59.9957 66.0279 46.9746 53.0068 46.9746 37.0019C46.9746 20.9971 59.9957 7.97656 76.0005 7.97656C92.0054 7.97656 105.026 20.9988 105.026 37.0019ZM48.8133 37.0019C48.8133 51.996 61.0105 64.1921 76.0029 64.1921C90.9952 64.1921 103.193 51.9948 103.193 37.0019C103.193 22.009 90.9958 9.81232 76.0029 9.81232C61.01 9.81232 48.8109 22.0096 48.8109 37.0019H48.8133Z" fill="url(#paint1_linear_686_6104)"/>
<path d="M87.5179 37.0008C87.5179 43.3516 82.3516 48.5179 76.0008 48.5179C69.6501 48.5179 64.4844 43.3516 64.4844 37.0008C64.4844 30.6501 69.6507 25.4844 76.0008 25.4844C82.351 25.4844 87.5179 30.6507 87.5179 37.0008ZM65.2126 37.0008C65.2126 42.9498 70.0524 47.7896 76.0008 47.7896C81.9493 47.7896 86.7896 42.9498 86.7896 37.0008C86.7896 31.0519 81.9498 26.2127 76.0008 26.2127C70.0519 26.2127 65.2126 31.0524 65.2126 37.0008Z" fill="#606684"/>
<path d="M56.2173 63.8565C56.2173 63.8565 52.9597 73.6621 58.8209 75.0057C63.9827 76.1871 65.959 65.9197 66.4259 64.4621C66.9332 62.8686 69.4284 56.2756 69.5837 55.312C69.933 53.085 70.2829 48.7383 66.1689 47.4494C63.72 46.679 60.7806 48.2487 59.489 50.8398C57.1433 55.532 57.3713 59.4943 56.2173 63.8565Z" fill="#F48E5B"/>
<path d="M46.9511 63.2551C46.9511 63.2551 45.4386 71.1107 50.6017 72.1758C55.9497 73.2832 57.7274 63.2341 58.0836 61.7552C58.4398 60.2764 61.2167 52.0629 60.5272 49.4433C59.2328 44.5124 53.9299 42.7564 51.1356 46.4854C48.1498 50.5012 47.7568 54.2257 46.9511 63.2551Z" fill="#F48E5B"/>
<path d="M48.0314 60.5306C48.0314 60.5306 45.8882 69.8562 50.1428 70.6115C54.3975 71.3668 54.679 65.4523 55.0407 63.9679C55.4025 62.4834 58.44 50.964 58.2491 48.264C58.0582 45.5639 52.7155 44.2548 50.8522 47.6141C48.5322 51.8089 48.8883 56.0951 48.0314 60.5306Z" fill="#FFD3AB"/>
<path d="M67.4584 61.2832C67.4584 61.2832 68.6246 53.2995 72.3809 51.8026C75.8979 50.4019 79.0702 53.1966 79.4233 54.8644C79.8964 57.0942 79.4288 58.1483 78.9638 60.7268C78.5252 63.1301 76.3064 63.3506 75.9856 64.2018C74.4932 68.1641 74.2899 69.7567 72.7701 73.2664C72.0779 74.8624 70.7917 78.0937 67.3805 77.3622C64.6854 76.7847 62.9633 74.1479 64.6715 68.5636C65.8502 64.6877 66.3926 63.9853 67.4584 61.2832Z" fill="#F48E5B"/>
<path d="M81.975 59.1492C78.6347 58.0802 76.7281 60.666 75.3913 63.8272C74.0544 66.9883 72.5947 72.8546 72.1644 75.2692C71.7342 77.6838 73.5461 79.6048 75.597 79.4878C77.9126 79.3558 78.9928 77.7227 79.7406 75.8466C80.4604 74.0489 81.2271 71.7386 81.6037 70.7417C82.1407 69.3206 82.7144 68.0901 83.6579 66.0014C84.829 63.4158 85.5999 60.3097 81.975 59.1492Z" fill="#F48E5B"/>
<path d="M81.6344 59.786C78.9721 58.7462 77.1046 61.2284 76.0001 64.2218C74.8955 67.2153 73.5685 72.0395 73.1997 74.3196C72.8309 76.5998 74.6401 77.7741 76.2791 77.6788C78.131 77.5726 78.6367 76.6965 79.2488 74.9224C79.8287 73.2198 80.4723 71.0326 80.7789 70.0916C81.218 68.7488 81.6853 67.5826 82.4526 65.6113C83.4207 63.1668 84.5223 60.9117 81.6344 59.786Z" fill="#FFD3AB"/>
<path d="M67.3799 60.8842C67.3799 60.8842 69.9948 52.0946 73.6741 52.2745C76.6248 52.4112 77.7756 53.5788 78.2531 55.0969C78.9615 57.327 75.6535 62.145 75.1222 63.6026C73.7765 67.3115 74.1862 66.8849 72.8118 70.1707C72.1881 71.6645 70.3158 76.3155 67.7919 75.8979C65.3185 75.4917 63.7247 73.3609 65.264 68.1336C66.3311 64.5096 66.4175 63.4128 67.3799 60.8842Z" fill="#FFD3AB"/>
<path d="M57.0581 62.9609C57.0581 62.9609 54.2799 72.113 58.472 73.161C62.6642 74.209 63.4983 67.9074 63.9624 66.4526C64.4265 64.9977 68.1012 54.135 68.0953 51.4297C68.0893 48.7244 63.5752 46.16 60.7619 50.2727C58.0549 54.226 58.2149 58.5931 57.0581 62.9609Z" fill="#FFD3AB"/>
<defs>
<filter id="filter0_d_686_6104" x="35" y="0" width="82.0051" height="82.0017" filterUnits="userSpaceOnUse" color-interpolation-filters="sRGB">
<feFlood flood-opacity="0" result="BackgroundImageFix"/>
<feColorMatrix in="SourceAlpha" type="matrix" values="0 0 0 0 0 0 0 0 0 0 0 0 0 0 0 0 0 0 127 0" result="hardAlpha"/>
<feOffset dy="4"/>
<feGaussianBlur stdDeviation="2"/>
<feComposite in2="hardAlpha" operator="out"/>
<feColorMatrix type="matrix" values="0 0 0 0 0 0 0 0 0 0 0 0 0 0 0 0 0 0 0.25 0"/>
<feBlend mode="normal" in2="BackgroundImageFix" result="effect1_dropShadow_686_6104"/>
<feBlend mode="normal" in="SourceGraphic" in2="effect1_dropShadow_686_6104" result="shape"/>
</filter>
<linearGradient id="paint0_linear_686_6104" x1="38.9994" y1="36.9995" x2="112.999" y2="36.9995" gradientUnits="userSpaceOnUse">
<stop stop-color="#989FC1"/>
<stop offset="1" stop-color="#A1A6BF"/>
</linearGradient>
<linearGradient id="paint1_linear_686_6104" x1="76.0006" y1="66.0279" x2="76.0006" y2="7.97598" gradientUnits="userSpaceOnUse">
<stop stop-color="#5A6082"/>
<stop offset="1" stop-color="#646A86"/>
</linearGradient>
</defs>
</svg>
