<svg width="124" height="126" viewBox="0 0 124 126" fill="none" xmlns="http://www.w3.org/2000/svg">
<path d="M38.0976 81.8357C37.9116 86.5952 36.943 90.2632 34.4156 90.2731L37.9686 75.2513L38.121 74.6066L37.5866 70.822L36.1357 60.5243C36.1357 60.5243 30.7731 64.452 30.6004 67.1365C30.4278 69.8211 32.2613 76.6927 32.2613 76.6927L31.8043 81.0071C31.8043 81.0071 30.1119 90.1794 25.6399 90.187C25.4284 90.1859 25.2308 90.1905 25.0445 90.1978C19.7881 90.1086 15.13 89.9861 15.13 89.9861L15.127 90.9374C15.127 90.9374 26.7547 92.0848 34.4097 91.2355C37.0357 90.9313 37.9686 86.8683 38.0976 81.8357Z" fill="#F48E5B"/>
<path d="M15.1738 61.5625L15.1448 78.7947L15.1738 61.5625Z" fill="#D68265"/>
<path d="M36.123 60.5273L37.5739 70.825C36.9922 65.1856 36.123 60.5273 36.123 60.5273Z" fill="#F5BC8F"/>
<path d="M34.4119 90.2679C36.9336 90.2636 37.9107 86.5928 38.0938 81.8305C38.1629 79.6346 38.1198 77.4369 37.9648 75.2461L34.4119 90.2679Z" fill="#F5BC8F"/>
<path d="M25.6311 90.1703C30.1143 90.1628 31.7955 80.9905 31.7955 80.9905L32.2525 76.676C32.2525 76.676 30.4176 69.8031 30.5916 67.1199C30.7657 64.4367 36.1269 60.5077 36.1269 60.5077C36.1269 60.5077 28.586 62.5939 25.0648 62.0983C21.5435 61.6026 15.1721 60.6033 15.1721 60.6033L15.1691 61.5545L15.1415 78.7854L15.1227 89.9541C15.1227 89.9541 19.7807 90.0765 25.0371 90.1657C25.2262 90.1696 25.4224 90.1637 25.6311 90.1703Z" fill="#FCC99F"/>
<path d="M33.229 85.8837L36.1675 63.0399C36.3338 61.7495 36.8887 60.5391 37.7585 59.5694C38.6282 58.5997 39.7716 57.9167 41.0367 57.6112L57.5905 53.5975C58.9714 53.2622 60.423 53.3947 61.7172 53.9744C61.7172 53.9744 64.3269 56.6795 72.874 60.1858C79.3239 62.8326 80.919 65.7048 81.0689 70.7327L74.8008 94.8837C73.8119 98.0684 68.0554 99.6458 64.8119 98.9284L38.206 92.9377C35.1648 91.9117 33.0534 88.6104 33.229 85.8837Z" fill="#FCC99F"/>
<path d="M34.7442 74.8417C34.7442 74.8417 50.0351 80.3877 56.5608 88.763C63.0865 97.1384 62.2481 98.3124 62.2481 98.3124C62.2481 98.3124 37.4301 95.485 34.256 90.2198C31.0818 84.9546 34.7442 74.8417 34.7442 74.8417Z" fill="#FFD3AB"/>
<path d="M63.3624 59.8589C63.3624 59.8589 55.9494 70.0692 51.9039 73.0714C47.8584 76.0735 38.7952 77.0134 38.7952 77.0134C38.7952 77.0134 55.053 84.8512 54.5104 92.5968L60.49 94.1698L67.8931 85.7122C67.8931 85.7122 71.0711 78.7271 70.0274 72.0447C68.967 65.3036 63.3624 59.8589 63.3624 59.8589Z" fill="#FCC99F"/>
<path d="M64.9396 56.0607C64.9396 56.0607 62.6285 67.4126 54.5704 72.1223C46.5124 76.832 38.7955 77.0131 38.7955 77.0131L63.8211 56.34L64.9396 56.0607Z" fill="#F48E5B"/>
<path d="M41.0121 56.5484C41.0121 56.5484 50.7541 51.0023 55.2802 48.8091C60.2339 46.4177 68.9799 47.4817 65.2218 55.3518C61.4637 63.2219 58.2079 68.1505 47.6909 73.8114C38.6211 78.6853 34.9401 76.5171 33.4344 73.8354C31.3825 70.1781 31.6108 61.9301 41.0121 56.5484Z" fill="#FFD3AB"/>
<path d="M65.1678 55.3283C65.1678 55.3283 81.9399 55.6362 84.4756 46.569C87.0112 37.5017 77.9352 46.077 74.9161 46.0835C71.8969 46.09 63.8915 44.4952 59.3374 47.5696C54.7832 50.644 65.1678 55.3283 65.1678 55.3283Z" fill="#FFD3AB"/>
<path d="M74.516 82.9945C74.459 82.9975 74.4026 83.007 74.3478 83.0228C74.2805 83.0453 74.2777 83.0761 74.3309 83.1125C74.4486 83.0506 74.5187 83.0197 74.5187 83.0197L74.516 82.9945Z" fill="#D68265"/>
<path d="M70.9375 90.3789C70.6069 90.371 70.4639 90.4217 70.6471 90.5769C70.723 90.6334 70.8064 90.679 70.8949 90.7124C70.9497 90.6241 70.9834 90.5764 70.9834 90.5764C70.9834 90.5764 70.9597 90.5049 70.9375 90.3789Z" fill="#D68265"/>
<path d="M32.8791 90.8358C35.6609 96.9856 55.7916 98.6931 55.7916 98.6931L60.0465 99.4733C60.0465 99.4733 62.3026 98.3613 62.3323 98.1722C58.0812 97.6371 36.9912 94.8413 34.1509 90.1345L32.8791 90.8358Z" fill="#F48E5B"/>
<path d="M68.0217 99.092C68.0217 99.092 64.3544 98.7928 62.4104 98.4402C61.1611 98.2126 60.4811 99.3877 60.4811 99.3877L67.635 99.9627L68.0217 99.092Z" fill="#D68265"/>
<path d="M74.6849 98.4857C74.6849 98.4857 73.7122 103.747 65.0718 101.536C56.4314 99.3262 55.6347 98.2208 55.6347 98.2208L67.3868 95.378L74.6849 98.4857Z" fill="#F48E5B"/>
<path d="M74.9042 97.7831C74.9042 97.7831 73.7532 102.386 65.593 100.398C57.4328 98.4094 55.9175 97.2505 55.9175 97.2505L67.7795 94.8572L74.9042 97.7831Z" fill="#F5BC8F"/>
<line x1="51.9921" y1="108.211" x2="95.4206" y2="35.2111" stroke="#583C93" stroke-width="7"/>
<line x1="65.7159" y1="12.9495" x2="97.7159" y2="30.9495" stroke="#583C93" stroke-width="7"/>
<path d="M71.7373 73.7544C71.7373 73.7544 61.9316 70.4968 60.588 76.358C59.4067 81.5198 69.674 83.4961 71.1317 83.963C72.7251 84.4703 79.3182 86.9655 80.2818 87.1208C82.5088 87.4701 86.8555 87.82 88.1443 83.706C88.9148 81.2571 87.345 78.3177 84.754 77.0262C80.0618 74.6804 76.0994 74.9084 71.7373 73.7544Z" fill="#F48E5B"/>
<path d="M72.3386 64.4882C72.3386 64.4882 64.483 62.9757 63.418 68.1388C62.3106 73.4868 72.3597 75.2645 73.8385 75.6207C75.3174 75.9769 83.5309 78.7538 86.1505 78.0643C91.0814 76.7699 92.8373 71.467 89.1084 68.6727C85.0926 65.6869 81.368 65.2939 72.3386 64.4882Z" fill="#F48E5B"/>
<path d="M75.0612 65.5704C75.0612 65.5704 65.7356 63.4272 64.9803 67.6819C64.225 71.9366 70.1395 72.218 71.6239 72.5798C73.1084 72.9415 84.6278 75.9791 87.3278 75.7882C90.0279 75.5973 91.337 70.2545 87.9777 68.3913C83.7829 66.0713 79.4967 66.4274 75.0612 65.5704Z" fill="#FFD3AB"/>
<path d="M74.3086 84.9955C74.3086 84.9955 82.2923 86.1617 83.7892 89.9181C85.1899 93.435 82.3951 96.6073 80.7274 96.9604C78.4976 97.4335 77.4434 96.9659 74.865 96.5009C72.4617 96.0623 72.2412 93.8435 71.39 93.5227C67.4277 92.0303 65.8351 91.827 62.3254 90.3073C60.7294 89.6151 57.4981 88.3288 58.2296 84.9176C58.8071 82.2225 61.4439 80.5004 67.0281 82.2086C70.9041 83.3873 71.6065 83.9297 74.3086 84.9955Z" fill="#F48E5B"/>
<path d="M76.4446 99.5121C77.5136 96.1718 74.9278 94.2652 71.7666 92.9284C68.6054 91.5915 62.7391 90.1318 60.3245 89.7015C57.9099 89.2713 55.9889 91.0832 56.106 93.1341C56.238 95.4497 57.8711 96.5299 59.7472 97.2777C61.5448 97.9976 63.8552 98.7642 64.852 99.1408C66.2731 99.6778 67.5036 100.252 69.5923 101.195C72.178 102.366 75.2841 103.137 76.4446 99.5121Z" fill="#F48E5B"/>
<path d="M75.8078 99.1695C76.8476 96.5073 74.3654 94.6398 71.3719 93.5352C68.3785 92.4307 63.5543 91.1037 61.2741 90.7348C58.9939 90.366 57.8196 92.1753 57.915 93.8143C58.0211 95.6662 58.8973 96.1719 60.6713 96.7839C62.3739 97.3639 64.5612 98.0074 65.5021 98.3141C66.845 98.7531 68.0112 99.2205 69.9825 99.9877C72.427 100.956 74.6821 102.057 75.8078 99.1695Z" fill="#FFD3AB"/>
<path d="M74.7095 84.9151C74.7095 84.9151 83.4991 87.5299 83.3192 91.2092C83.1825 94.1599 82.015 95.3107 80.4969 95.7882C78.2667 96.4967 73.4487 93.1886 71.9912 92.6573C68.2822 91.3116 68.7088 91.7214 65.423 90.347C63.9292 89.7232 59.2783 87.8509 59.6958 85.327C60.1021 82.8536 62.2329 81.2599 67.4602 82.7992C71.0841 83.8662 72.181 83.9527 74.7095 84.9151Z" fill="#FFD3AB"/>
<path d="M72.6329 74.5952C72.6329 74.5952 63.4807 71.817 62.4327 76.0091C61.3847 80.2013 67.6864 81.0354 69.1412 81.4995C70.596 81.9636 81.4587 85.6383 84.1641 85.6324C86.8694 85.6264 89.4338 81.1123 85.321 78.299C81.3678 75.592 77.0006 75.752 72.6329 74.5952Z" fill="#FFD3AB"/>
<circle cx="48" cy="114" r="7" fill="#583C93" stroke="#583C93" stroke-width="4"/>
<circle cx="98" cy="31" r="8" fill="#583C93" stroke="#583C93" stroke-width="4"/>
<circle cx="62" cy="11" r="9" fill="#583C93" stroke="#583C93" stroke-width="4"/>
</svg>
