<svg width="280" height="281" viewBox="0 0 280 281" fill="none" xmlns="http://www.w3.org/2000/svg">
<rect width="280" height="280.862" rx="20" fill="#D3ECE1"/>
<path d="M97.3633 209.146C97.3633 209.146 96.2823 251.212 95.277 255.111C94.2717 259.01 43.0769 280.848 43.0769 280.848H238.63C238.63 280.848 182.992 261.13 181.495 256.613C179.998 252.096 181.322 210.247 181.322 210.247L97.3633 209.146Z" fill="url(#paint0_linear_1112_3253)"/>
<path d="M95.4716 253.983C95.4716 253.983 91.3909 253.506 90.9423 253.983C90.4937 254.46 90.9423 257.692 90.9423 257.692L43.0769 280.864H238.63L186.992 258.804C186.992 258.804 185.214 253.923 181.495 256.635L182.771 258.473C182.771 258.473 165.448 277.085 136.57 277.085C107.692 277.085 95.4716 253.983 95.4716 253.983Z" fill="url(#paint1_linear_1112_3253)"/>
<g style="mix-blend-mode:multiply" opacity="0.6">
<path d="M97.0714 227.503C97.0714 227.503 106.714 230.214 109.049 234.401C111.383 238.587 126.371 270.002 138.197 270.501C150.023 271 157.687 254.292 163.686 250.436C169.686 246.581 180.549 246.309 180.549 246.309L181.338 210.263L97.3633 209.178L97.0714 227.503Z" fill="#B42F97"/>
</g>
<path style="mix-blend-mode:multiply" opacity="0.6" d="M154.439 225.165L150.596 264.72C150.596 264.72 157.941 256.467 161.686 250.447C165.432 244.428 172.431 215.29 172.431 215.29L154.439 225.165Z" fill="url(#paint2_linear_1112_3253)"/>
<path style="mix-blend-mode:multiply" opacity="0.6" d="M187.008 258.804C187.008 258.804 174.447 270.192 161.513 275.517C161.513 275.517 187.192 267.329 194.375 261.96L187.008 258.804Z" fill="url(#paint3_linear_1112_3253)"/>
<path style="mix-blend-mode:multiply" opacity="0.6" d="M90.9423 257.692C97.6391 264.209 104.851 270.17 112.508 275.517C112.508 275.517 96.2553 271.179 82.327 261.862L90.9423 257.692Z" fill="url(#paint4_linear_1112_3253)"/>
<g style="mix-blend-mode:multiply" opacity="0.6">
<path d="M103.006 263.511C103.006 263.511 116.107 275.517 138.813 275.517C161.519 275.517 175.263 264.72 175.263 264.72C175.263 264.72 159.633 277.079 136.586 277.079C113.54 277.079 103.006 263.511 103.006 263.511Z" fill="#B42F97"/>
</g>
<path d="M195.18 144.813C195.18 144.813 203.358 132.303 208.914 132.341C212.292 132.341 220.443 139.472 220.351 146.267C220.226 155.361 212.206 165.692 210.206 170.99C208.206 176.288 203.028 183.197 199.585 183.87C196.142 184.542 191.656 177.996 191.656 177.996C191.656 177.996 193.332 153.056 195.18 144.813Z" fill="url(#paint5_linear_1112_3253)"/>
<path style="mix-blend-mode:multiply" opacity="0.6" d="M195.78 158.121C195.78 158.121 209.217 141.473 214.103 141.473C218.989 141.473 218.967 150.941 217.021 156.348C215.654 160.09 212.989 165.497 212.989 165.497C212.989 165.497 215.103 159.689 215.351 155.345C215.74 148.658 214.27 143.799 212.579 143.81C209.487 143.81 207.049 148.073 206.66 149.58C206.271 151.088 209.109 157.682 208.357 162.281C207.606 166.879 204.86 168.631 203.942 168.132C203.023 167.633 204.444 162.449 203.612 160.61C202.78 158.772 200.369 156.099 198.947 156.679C197.526 157.259 195.78 158.121 195.78 158.121Z" fill="url(#paint6_linear_1112_3253)"/>
<path style="mix-blend-mode:multiply" opacity="0.6" d="M195.78 158.121C195.78 158.121 199.093 156.136 200.104 156.771C201.115 157.405 203.666 159.71 203.774 161.163C203.882 162.617 202.963 166.749 203.774 167.459C204.585 168.17 207.503 163.528 207.633 159.412C207.763 155.296 205.471 150.551 205.471 149.998C205.471 149.444 206.012 146.803 206.012 146.803C206.012 146.803 198.196 154.217 195.78 158.121Z" fill="url(#paint7_linear_1112_3253)"/>
<path d="M85.7212 144.813C85.7212 144.813 77.5437 132.303 71.9875 132.341C68.6094 132.341 60.4589 139.472 60.5508 146.267C60.6751 155.361 68.6959 165.692 70.6957 170.99C72.6955 176.288 77.8734 183.197 81.3163 183.87C84.7592 184.542 89.2452 177.996 89.2452 177.996C89.2452 177.996 87.5697 153.056 85.7212 144.813Z" fill="url(#paint8_linear_1112_3253)"/>
<path style="mix-blend-mode:multiply" opacity="0.6" d="M85.1321 158.121C85.1321 158.121 71.6956 141.473 66.8096 141.473C61.9236 141.473 61.9453 150.941 63.891 156.348C65.2584 160.09 67.923 165.497 67.923 165.497C67.923 165.497 65.8097 159.689 65.5611 155.345C65.172 148.658 66.6421 143.799 68.3338 143.81C71.4254 143.81 73.863 148.073 74.2521 149.58C74.6413 151.088 71.8037 157.682 72.555 162.281C73.3063 166.879 76.0519 168.631 76.9708 168.132C77.8896 167.633 76.4681 162.449 77.3005 160.61C78.1328 158.772 80.5434 156.099 81.9648 156.679C83.3863 157.259 85.1321 158.121 85.1321 158.121Z" fill="url(#paint9_linear_1112_3253)"/>
<path style="mix-blend-mode:multiply" opacity="0.6" d="M85.1321 158.121C85.1321 158.121 81.8189 156.136 80.8082 156.771C79.7975 157.405 77.2464 159.71 77.1383 161.163C77.0302 162.617 77.949 166.749 77.1383 167.459C76.3276 168.17 73.409 163.528 73.2792 159.412C73.1495 155.296 75.4412 150.551 75.4412 149.998C75.4412 149.444 74.9007 146.803 74.9007 146.803C74.9007 146.803 82.7053 154.217 85.1321 158.121Z" fill="url(#paint10_linear_1112_3253)"/>
<path d="M194.575 117.856C194.548 128.946 197.348 140.724 197.542 146.804C197.84 156.169 194.191 163.821 193.759 173.577C193.326 183.333 192.137 191.142 190.873 194.878C190.069 197.218 189.001 199.458 187.689 201.554C187.614 201.673 187.543 201.803 187.457 201.922C186.442 203.514 185.325 205.038 184.111 206.483C182.291 208.634 180.315 210.646 178.198 212.503C166.881 222.459 152.709 228.061 151.687 228.457C147.028 230.29 133.976 230.198 129.317 228.365C127.83 227.779 113.913 223.484 102.622 214.303C99.5134 211.834 96.7245 208.985 94.3203 205.822C93.0254 204.086 91.8962 202.233 90.9477 200.285C90.1058 198.56 89.4307 196.759 88.9317 194.905C87.9048 191.109 83.7106 155.155 82.8242 145.827C82.8674 140.28 82.862 132.01 82.7648 121.798C82.6404 109.591 82.1378 96.5871 83.7106 92.5415C86.6022 85.1284 120.799 65.1936 139.921 65.1936C153.331 65.1936 174.188 75.0146 186.403 83.4364C191.602 87.0156 195.24 90.3398 196.105 92.5415C197.445 95.9743 197.921 105.638 197.953 115.958C197.926 116.896 194.575 116.874 194.575 117.856Z" fill="url(#paint11_linear_1112_3253)"/>
<path style="mix-blend-mode:multiply" opacity="0.6" d="M193.705 119.949C193.678 130.795 197.975 142.286 197.542 146.804C196.645 155.947 196.18 164.157 194.688 174.683C193.745 181.497 192.154 188.205 189.938 194.715C189.14 197.014 188.079 199.213 186.776 201.266C186.7 201.38 186.63 201.51 186.543 201.63C185.528 203.192 184.41 204.685 183.198 206.098C181.375 208.207 179.398 210.177 177.285 211.993C179.847 205.946 186.576 188.674 188.867 180.702C189.948 176.874 190.981 167.85 191.078 164.916C191.181 161.733 191.24 158.544 189.867 155.697C189.513 154.926 189.033 154.221 188.446 153.609C186.214 151.37 182.798 150.86 179.798 151.982C174.058 154.152 163.119 151.722 156.498 149.884C154.76 149.402 153.214 148.393 152.07 146.995C150.926 145.597 150.241 143.879 150.109 142.075C149.708 136.624 150.283 131.145 151.806 125.898L155.449 122.389L187.695 117.699C187.695 117.699 184.587 110.388 184.862 105.904C185.138 101.419 186.808 89.5697 185.435 86.4136C190.635 90.0958 194.272 93.5231 195.137 95.7899C196.364 99.0436 196.872 107.72 196.986 117.368C197.013 118.284 193.705 118.989 193.705 119.949Z" fill="url(#paint12_linear_1112_3253)"/>
<path style="mix-blend-mode:multiply" opacity="0.6" d="M87.213 120.134C87.24 131.153 81.8567 136.467 82.8891 146.804C83.7809 156.077 84.7321 164.987 86.2239 175.648C87.1651 182.557 88.7558 189.36 90.9747 195.968C91.7718 198.306 92.8346 200.544 94.142 202.638C94.2176 202.758 94.2933 202.888 94.3744 203.007C95.3906 204.591 96.5081 206.107 97.72 207.546C99.5422 209.678 101.519 211.671 103.633 213.511C101.071 207.378 94.342 189.835 92.0503 181.771C90.9693 177.888 89.937 168.756 89.8451 165.762C89.737 162.509 89.6776 159.293 91.0504 156.386C91.4019 155.606 91.8826 154.891 92.4719 154.271C93.6 153.186 95.0186 152.455 96.5544 152.166C98.0901 151.877 99.6765 152.043 101.12 152.644C106.86 154.813 117.804 152.378 124.42 150.513C126.167 150.011 127.718 148.981 128.861 147.564C130.004 146.146 130.684 144.409 130.809 142.59C131.21 137.064 130.636 131.511 129.111 126.186L125.474 122.623L93.2232 117.861C93.2232 117.861 96.3309 110.448 96.0553 105.898C95.7796 101.348 94.1095 89.3312 95.4824 86.1262C90.2829 89.8626 86.6454 93.3442 85.7536 95.6435C84.5321 98.9027 84.0511 107.737 83.9106 117.498C83.9052 118.442 87.213 119.157 87.213 120.134Z" fill="url(#paint13_linear_1112_3253)"/>
<g style="mix-blend-mode:multiply" opacity="0.6">
<path d="M188.484 201.554C188.3 201.754 188.116 201.971 187.943 202.193C186.747 203.653 185.628 205.176 184.592 206.754C173.096 220.469 153.374 228.267 152.163 228.739C147.504 230.572 134.451 230.474 129.792 228.647C127.901 227.904 105.957 221.136 94.8068 206.082C93.6826 204.108 92.5746 202.231 91.4287 200.545C91.8449 200.962 97.6119 206.83 104.287 212.394C111.216 218.159 122.885 227.513 140.548 227.513C158.211 227.513 171.269 216.022 174.015 213.999C176.501 212.204 186.268 203.495 188.176 201.819L188.484 201.554Z" fill="#CB4397"/>
</g>
<path d="M153.639 131.945C156.669 132.488 159.752 132.687 162.827 132.536C164.356 132.461 165.873 132.232 167.356 131.852C173.458 130.226 174.777 129.076 179.722 129.065C184.668 129.054 192.694 130.952 192.694 130.952C191.884 128.872 190.838 126.892 189.575 125.052C189.039 124.275 188.38 123.59 187.624 123.024L188.105 124.434C188.013 124.222 186.916 122.232 177.836 121.603C168.248 120.936 156.39 123.382 156.39 123.382L154.855 128.474C154.296 127.525 154.015 126.436 154.044 125.334C154.044 125.334 151.877 128.04 153.639 131.945Z" fill="url(#paint14_linear_1112_3253)"/>
<g style="mix-blend-mode:multiply" opacity="0.6">
<path d="M162.843 132.536C164.372 132.461 165.889 132.232 167.372 131.852C173.474 130.226 174.793 129.076 179.739 129.065C184.684 129.054 192.71 130.952 192.71 130.952C191.901 128.872 190.854 126.892 189.592 125.052C186.506 124.51 182.025 124.157 177.647 125.741C177.647 125.741 178.096 124.542 180.793 123.431C180.793 123.431 172.82 122.091 162.859 132.536C162.848 132.536 162.843 132.541 162.843 132.536Z" fill="#B42F97"/>
</g>
<path d="M127.041 132.368C123.99 132.823 120.896 132.93 117.821 132.688C116.295 132.56 114.785 132.284 113.313 131.863C107.265 130.063 105.984 128.865 101.039 128.702C96.0931 128.539 88.0291 130.188 88.0291 130.188C88.899 128.134 90.0035 126.189 91.3206 124.391C91.8833 123.63 92.564 122.966 93.3367 122.422L92.7962 123.816C92.8935 123.604 94.0555 121.647 103.141 121.3C112.745 120.925 124.523 123.729 124.523 123.729L125.906 128.865C126.497 127.934 126.812 126.855 126.814 125.752C126.814 125.752 128.911 128.523 127.041 132.368Z" fill="url(#paint15_linear_1112_3253)"/>
<g style="mix-blend-mode:multiply" opacity="0.6">
<path d="M117.821 132.682C116.295 132.555 114.785 132.279 113.313 131.858C107.265 130.058 105.984 128.859 101.039 128.696C96.0931 128.534 88.0291 130.182 88.0291 130.182C88.899 128.129 90.0035 126.183 91.3206 124.385C94.423 123.913 98.9253 123.718 103.244 125.432C103.244 125.432 102.828 124.222 100.163 123.029C100.163 123.029 108.178 121.945 117.821 132.677V132.682Z" fill="#B42F97"/>
</g>
<path d="M156.817 144.613C156.444 145.936 167.297 148.642 174.15 149.358C181.003 150.074 185.23 145.643 185.695 144.298C186.16 142.953 185.219 138.582 175.82 137.248C166.421 135.914 157.671 141.608 156.817 144.613Z" fill="url(#paint16_linear_1112_3253)"/>
<path d="M177.987 143.962C176.82 147.877 172.874 150.068 169.167 148.843C165.459 147.617 163.405 143.469 164.567 139.553C165.729 135.638 169.68 133.447 173.388 134.672C177.096 135.898 179.177 140.041 177.987 143.962Z" fill="url(#paint17_linear_1112_3253)"/>
<path d="M177.593 143.832C176.512 147.519 172.783 149.586 169.291 148.441C165.8 147.297 163.886 143.382 164.967 139.694C166.048 136.006 169.778 133.94 173.269 135.085C176.761 136.229 178.69 140.144 177.593 143.832Z" fill="#562929"/>
<path style="mix-blend-mode:multiply" d="M175.393 143.105C175.244 143.664 174.984 144.186 174.628 144.641C174.273 145.096 173.829 145.474 173.325 145.753C172.82 146.033 172.264 146.206 171.691 146.265C171.118 146.323 170.539 146.265 169.988 146.093C168.88 145.696 167.967 144.883 167.443 143.826C166.919 142.768 166.824 141.547 167.178 140.421C167.327 139.862 167.587 139.34 167.943 138.885C168.298 138.429 168.741 138.051 169.246 137.771C169.75 137.492 170.306 137.317 170.879 137.258C171.453 137.199 172.032 137.257 172.583 137.427C173.692 137.826 174.604 138.639 175.128 139.698C175.652 140.757 175.747 141.978 175.393 143.105Z" fill="url(#paint18_linear_1112_3253)"/>
<path d="M156.238 145.106C156.238 145.106 162.54 133.224 174.512 133.767C182.473 134.114 186.527 142.839 186.527 142.839C182.727 139.794 178.049 138.061 173.188 137.899C165.167 137.666 156.238 145.106 156.238 145.106Z" fill="#BF6666"/>
<path d="M158.227 143.251L159.233 146.136C159.233 146.136 156.492 145.209 156.26 145.052C156.028 144.895 158.227 143.251 158.227 143.251Z" fill="#A04E45"/>
<path d="M162.859 147.243C162.859 147.243 171.891 150.334 177.588 149.672C183.738 148.962 185.695 144.303 185.695 144.303C185.695 144.303 183.203 148.87 176.815 149.184C171.226 149.461 162.859 147.243 162.859 147.243Z" fill="#965953"/>
<path d="M176.431 143.718C175.723 143.881 177.863 145.28 179.858 145.567C181.647 145.822 182.884 145.242 182.836 144.981C182.787 144.721 179.231 143.062 176.431 143.718Z" fill="white"/>
<path d="M174.95 143.425C174.447 142.834 173.539 142.747 173.328 143.078C173.118 143.409 173.653 144.304 174.085 144.369C174.518 144.434 175.231 143.756 174.95 143.425Z" fill="white"/>
<g style="mix-blend-mode:multiply" opacity="0.6">
<path d="M156.811 144.493C156.811 144.493 171.664 135.155 185.695 144.304C185.695 144.304 184.738 138.539 175.339 137.058C165.94 135.578 156.811 144.493 156.811 144.493Z" fill="#B42F97"/>
</g>
<path d="M156.238 145.106C156.238 145.106 164.027 137.715 172.874 138.94C181.722 140.166 185.695 144.304 185.695 144.304L186.776 143.105C186.776 143.105 180.047 137.34 172.031 137.503C162.421 137.698 156.238 145.106 156.238 145.106Z" fill="#270039"/>
<path d="M163.502 147.449C163.502 147.449 170.48 151.386 178.366 150.784C184.165 150.339 184.998 145.421 184.998 145.421C184.998 145.421 181.371 153.175 163.502 147.449Z" fill="#AD6B62"/>
<path d="M123.117 144.363C123.512 145.676 112.697 148.544 105.86 149.363C99.0226 150.182 94.7257 145.811 94.2393 144.483C93.7528 143.154 94.6338 138.761 104.011 137.292C113.389 135.822 122.226 141.359 123.117 144.363Z" fill="url(#paint19_linear_1112_3253)"/>
<path d="M101.941 144.016C103.163 147.915 107.146 150.047 110.832 148.778C114.518 147.509 116.518 143.322 115.297 139.423C114.075 135.524 110.097 133.393 106.411 134.656C102.725 135.92 100.72 140.117 101.941 144.016Z" fill="url(#paint20_linear_1112_3253)"/>
<path d="M102.336 143.881C103.487 147.552 107.233 149.558 110.702 148.365C114.172 147.172 116.059 143.23 114.907 139.558C113.756 135.887 109.994 133.875 106.535 135.074C103.076 136.272 101.184 140.209 102.336 143.881Z" fill="#562929"/>
<path style="mix-blend-mode:multiply" d="M104.541 143.121C104.698 143.673 104.965 144.187 105.323 144.634C105.682 145.081 106.127 145.451 106.631 145.722C107.135 145.994 107.687 146.161 108.257 146.214C108.826 146.268 109.4 146.206 109.946 146.034C111.045 145.615 111.94 144.787 112.443 143.721C112.947 142.656 113.021 141.436 112.648 140.318C112.492 139.765 112.227 139.25 111.868 138.803C111.509 138.355 111.065 137.985 110.561 137.713C110.056 137.441 109.503 137.274 108.933 137.221C108.363 137.168 107.789 137.231 107.243 137.406C106.144 137.824 105.249 138.652 104.746 139.718C104.242 140.783 104.169 142.003 104.541 143.121Z" fill="url(#paint21_linear_1112_3253)"/>
<path d="M123.707 144.846C123.707 144.846 117.934 133.458 105.271 133.75C97.32 134.325 93.3799 142.997 93.3799 142.997C97.1328 139.897 101.783 138.096 106.638 137.861C114.67 137.53 123.707 144.846 123.707 144.846Z" fill="#BF6666"/>
<path d="M121.453 142.726L120.728 145.914C120.728 145.914 123.458 144.949 123.685 144.781C123.912 144.613 121.453 142.726 121.453 142.726Z" fill="#A04E45"/>
<path d="M117.113 147.075C117.113 147.075 108.135 150.296 102.428 149.721C96.2661 149.103 94.2393 144.472 94.2393 144.472C94.2393 144.472 96.8012 149 103.19 149.222C108.784 149.412 117.113 147.075 117.113 147.075Z" fill="#965953"/>
<path d="M103.509 143.75C104.222 143.902 102.103 145.334 100.109 145.648C98.3253 145.925 97.0822 145.367 97.1255 145.106C97.1687 144.846 100.687 143.138 103.509 143.75Z" fill="white"/>
<path d="M104.973 143.436C105.465 142.834 106.373 142.736 106.595 143.067C106.816 143.398 106.287 144.293 105.854 144.369C105.422 144.444 104.698 143.767 104.973 143.436Z" fill="white"/>
<g style="mix-blend-mode:multiply" opacity="0.6">
<path d="M123.128 144.239C123.128 144.239 108.135 135.117 94.2393 144.472C94.2393 144.472 94.9473 138.805 104.325 137.183C113.702 135.562 123.128 144.239 123.128 144.239Z" fill="#B42F97"/>
</g>
<path d="M123.707 144.846C123.707 144.846 115.81 137.563 106.984 138.919C98.1578 140.274 94.2393 144.472 94.2393 144.472L93.1259 143.29C93.1259 143.29 99.7738 137.422 107.789 137.471C117.399 137.525 123.707 144.846 123.707 144.846Z" fill="#270039"/>
<path d="M116.507 147.292C116.507 147.292 109.584 151.332 101.693 150.844C95.8878 150.486 94.9851 145.578 94.9851 145.578C94.9851 145.578 98.6929 153.289 116.507 147.292Z" fill="#AD6B62"/>
<path d="M152.947 162.048C147.056 159.39 145.623 151.744 140.862 151.744C136.1 151.744 134.673 159.396 128.782 162.048C122.89 164.699 119.793 170.149 120.399 173.897C122.01 174.343 123.576 174.937 125.079 175.67C127.047 176.7 133.311 178.181 140.862 178.181C148.412 178.181 154.682 176.7 156.644 175.67C158.152 174.936 159.724 174.343 161.341 173.897C161.93 170.149 158.833 164.705 152.947 162.048Z" fill="url(#paint22_linear_1112_3253)"/>
<path d="M152.947 161.348C147.056 158.571 145.661 151.739 140.899 151.739C136.138 151.739 134.673 158.571 128.782 161.348C122.89 164.125 119.793 169.802 120.399 173.734C122.013 174.201 123.581 174.82 125.079 175.583C127.047 176.668 133.311 178.203 140.862 178.203C148.412 178.203 154.682 176.657 156.644 175.583C158.148 174.82 159.721 174.201 161.341 173.734C161.93 169.802 158.833 164.135 152.947 161.348Z" fill="url(#paint23_linear_1112_3253)"/>
<path style="mix-blend-mode:multiply" opacity="0.6" d="M156.963 164.027C156.963 164.027 155.53 163.403 154.509 163.864C153.487 164.325 152.855 173.051 152.855 173.051C152.855 173.051 151.374 163.68 152.855 161.256C154.419 161.848 155.825 162.797 156.963 164.027Z" fill="url(#paint24_linear_1112_3253)"/>
<path style="mix-blend-mode:multiply" opacity="0.6" d="M124.636 164.135C124.636 164.135 126.112 163.398 127.133 163.859C128.155 164.32 128.787 173.045 128.787 173.045C128.787 173.045 130.273 163.674 128.787 161.25C127.207 161.891 125.789 162.876 124.636 164.135Z" fill="url(#paint25_linear_1112_3253)"/>
<path d="M149.385 165.61C148.72 165.448 148.201 167.568 148.418 168.257C148.634 168.946 149.785 168.761 150.217 168.257C150.65 167.753 150.082 165.762 149.385 165.61Z" fill="#FFCCB8"/>
<path d="M151.774 177.004C151.774 177.004 155.06 174.195 156.341 173.75C157.622 173.305 160.162 174.119 160.162 174.119C159.188 174.384 158.247 174.759 157.357 175.236C156.006 175.968 153.325 177.15 151.774 177.004Z" fill="#862254"/>
<path d="M122.485 174.439C122.86 174.021 123.332 173.704 123.859 173.514C124.387 173.325 124.953 173.27 125.506 173.354C127.322 173.696 129.755 177.02 129.755 177.02C129.755 177.02 127.149 176.299 125.674 175.751C124.198 175.204 122.485 174.439 122.485 174.439Z" fill="#862254"/>
<path d="M202.19 96.69L207.114 99.7214C203.952 87.4764 187.289 81.9016 184.511 81.0556L184.111 80.9363C181.679 72.6067 175.269 63.5829 168.583 58.3389C168.432 58.2142 168.313 58.122 168.221 58.0406C168.16 57.9959 168.102 57.947 168.048 57.8942C166.252 56.5026 164.269 55.3742 162.157 54.5428C158.91 53.2721 155.402 52.8214 151.941 53.2305C146.597 50.8125 140.615 50.2016 134.895 51.4897C127.816 53.1099 121.041 55.8561 114.826 59.6241L112.783 60.8552C112.756 60.8552 112.745 60.8552 112.729 60.8552C110.027 62.5146 107.865 63.9896 106.119 64.9657H106.07C105.222 65.5024 104.288 65.8877 103.309 66.1046C99.1144 66.7499 95.8715 56.9669 95.8715 56.9669C92.0881 63.0623 96.7525 72.0807 96.7525 72.0807C96.7525 72.0807 87.8769 73.6616 84.4308 83.5693C82.9823 90.0632 81.7053 106.475 77.3437 103.94C79.0138 98.9948 83.4621 88.021 83.7161 87.4462L83.0458 90.4916L82.473 94.7693C79.376 109.265 82.8188 141.614 82.8188 141.614C88.2237 123.854 89.6451 105.882 89.6451 105.882C94.0501 112.606 114.329 117.633 115.253 117.736C113.292 117.065 111.491 115.995 109.962 114.591C109.935 114.591 109.924 114.553 109.908 114.553C103.995 109.163 101.514 98.3332 105.508 92.8289C109.973 86.6521 118.183 80.9851 133.381 88.3278C135.339 89.2929 137.46 89.8815 139.635 90.0632H139.948C142.366 90.2254 144.793 89.9235 147.099 89.1738C165.789 83.1435 170.107 84.4504 172.804 85.6923C175.847 87.086 191.689 99.3744 191.283 104.461C190.44 115.177 197.283 143.544 197.283 143.544L201.228 114.933C205.071 120.898 204.336 125.236 204.336 125.236C205.79 120.185 206.186 114.885 205.498 109.673C204.325 101.674 202.309 96.972 202.19 96.69ZM153.774 54.1144C161.881 55.0526 163.227 61.6415 163.227 61.6415C160.581 58.5528 157.373 55.9982 153.774 54.1144Z" fill="url(#paint26_linear_1112_3253)"/>
<path style="mix-blend-mode:multiply" d="M168.221 58.0406L168.005 57.8833H168.048C168.102 57.9398 168.16 57.9924 168.221 58.0406Z" fill="url(#paint27_linear_1112_3253)"/>
<g style="mix-blend-mode:multiply" opacity="0.6">
<path d="M201.142 113.637L197.229 142.574C197.229 142.574 195.067 106.446 189.862 99.331C186.857 95.215 175.761 85.7736 172.712 84.3962C170.302 83.3116 161.362 85.1446 150.32 88.1923C138.867 93.1055 130.933 86.0827 124.917 85.3506C111.265 83.6966 109 85.5893 104.708 91.5165C100.72 97.0208 103.925 107.856 109.838 113.241C94.5095 101.82 101.293 82.791 101.293 82.791C92.6124 81.1316 86.1104 85.5025 84.0403 87.1294C101.676 71.4408 125.231 84.342 125.231 84.342L127.847 84.4233C127.847 84.4233 123.431 72.9429 115.27 70.1447C107.108 67.3464 96.6066 70.8497 96.6066 70.8497C96.6066 70.8497 107.957 63.1762 116.475 65.199C124.993 67.2217 132.349 84.1142 132.349 84.1142C134.046 84.8138 138.105 84.304 138.105 84.304C138.105 84.304 132.43 67.0048 123.869 63.7402C116.351 60.8823 108.195 63.0406 106.325 63.6046C112.131 61.6555 118.284 60.966 124.377 61.5818C134.619 62.6664 141.202 85.0687 141.202 85.0687H146.634C146.634 85.0687 146.834 67.1729 138.224 60.3075C129.96 53.7294 113.967 60.4701 112.713 60.8986L117.669 58.019L122.426 55.6763C123.026 55.4648 130.954 52.6014 140.753 59.7001C150.725 66.9343 150.406 83.4255 150.406 83.4255C154.493 83.5611 165.173 82.1294 165.173 82.1294C167.334 73.6316 163.551 61.5493 163.184 60.3996C166.87 68.3172 166.697 81.5492 167.897 82.0318C169.096 82.5144 177.555 80.7628 177.555 80.7628C178.198 66.251 166.848 57.5255 164.632 55.6763C171.318 60.9311 180.403 69.841 182.83 78.1761C182.83 78.1761 183.852 80.855 184.122 80.9364C184.122 80.9364 183.203 85.5296 188.386 87.6879C193.418 89.7758 201.563 95.0144 202.071 95.3506C193.083 91.24 182.376 89.3365 182.376 89.3365L190.413 98.2844C195.225 102.41 198.916 107.692 201.142 113.637Z" fill="#B42F97"/>
</g>
<g style="mix-blend-mode:multiply" opacity="0.6">
<path d="M93.3042 103.599C93.3042 103.599 96.1093 111.468 89.6451 105.882C89.9694 110.312 84.0349 130.719 82.8188 141.505C82.8188 141.505 79.8678 105.345 82.9647 90.8495L83.0458 90.4916L83.4079 89.0979C83.4079 100.296 91.8827 107.086 91.8827 107.086C87.8237 96.4352 94.8608 91.2237 95.2067 90.9851C91.0774 98.1108 93.3042 103.599 93.3042 103.599Z" fill="#B42F97"/>
</g>
<g style="mix-blend-mode:soft-light">
<path d="M137.181 59.0168C141.006 60.2709 144.943 61.15 148.936 61.6416C155.514 62.4333 162.054 60.34 162.054 60.34L163.265 61.7337C164.006 64.1545 164.613 66.6149 165.081 69.1035C163.67 67.5188 161.764 66.4631 159.676 66.1101C156.136 65.4756 147.726 68.3335 147.726 68.3335C147.726 68.3335 143.899 61.4626 137.181 59.0168Z" fill="#C4D9E0"/>
</g>
<g style="mix-blend-mode:soft-light">
<path d="M127.83 64.0493C130.157 65.5642 132.146 67.5452 133.673 69.8681L141.71 67.7423C141.71 67.7423 139.586 62.7261 134.743 60.6328L127.83 64.0493Z" fill="#C4D9E0"/>
</g>
<g style="mix-blend-mode:soft-light">
<path d="M120.183 66.7228C120.183 66.7228 124.312 69.1794 126.166 71.5493L129.625 70.8714C129.625 70.8714 127.906 66.5764 124.901 65.5027C124.087 65.1802 123.192 65.1246 122.344 65.3438C121.497 65.563 120.74 66.0457 120.183 66.7228Z" fill="#C4D9E0"/>
</g>
<g style="mix-blend-mode:soft-light">
<path d="M188.846 87.2866C188.846 87.2866 193.359 89.8896 197.964 92.6174C197.964 92.6174 198.423 90.2964 197.964 88.8213C197.504 87.3463 190.743 84.7595 190.743 84.7595L188.846 87.2866Z" fill="#C4D9E0"/>
</g>
<g style="mix-blend-mode:soft-light">
<path d="M84.1268 84.803C84.1268 84.803 93.2394 79.5861 103.249 79.7542C103.249 79.7542 97.4065 77.5579 97.7038 76.4571C98.001 75.3562 100.449 71.5764 100.449 71.5764C100.449 71.5764 86.0996 73.0298 84.1268 84.803Z" fill="#C4D9E0"/>
</g>
<path style="mix-blend-mode:multiply" opacity="0.6" d="M120.361 171.684C120.361 171.684 112.016 175.399 108.768 182.904L120.361 171.684Z" fill="url(#paint28_linear_1112_3253)"/>
<path style="mix-blend-mode:multiply" opacity="0.6" d="M161.341 171.294C161.341 171.294 168.799 175.133 172.631 182.736L161.341 171.294Z" fill="url(#paint29_linear_1112_3253)"/>
<path d="M95.5364 215.653C95.5364 215.653 98.1199 224.2 100.682 226.781C100.429 224.36 100.318 221.927 100.347 219.493L95.5364 215.653Z" fill="url(#paint30_linear_1112_3253)"/>
<path d="M197.553 149.542C197.553 149.542 196.18 160.388 195.786 164.184C195.326 168.696 193.51 182.08 189.219 186.646C184.76 191.413 172.891 194 172.891 194C172.891 194 173.658 184.092 172.593 182.926C171.226 181.429 152.32 178.311 150.801 178.587C149.282 178.864 140.953 180.67 140.737 180.719C140.737 180.719 132.181 178.869 130.663 178.582C129.144 178.295 110.238 181.407 108.87 182.92C107.789 184.086 108.114 195.079 108.114 195.079C108.114 195.079 98.3307 193.354 92.7583 186.277C88.8777 181.348 87.0616 169.683 86.5968 165.166C85.5591 157.818 82.8945 140.898 82.8945 140.898C82.8945 140.898 84.797 171.478 85.2726 189.829C85.2002 195.341 86.4339 200.79 88.8722 205.729C93.688 215.404 100.963 226.282 108.114 230.442C115.524 234.748 129.306 238.278 135.089 239.634C136.764 240.027 138.473 240.259 140.191 240.328C141.625 240.383 143.061 240.251 144.461 239.937C150.152 238.663 165.659 234.921 173.35 230.453C180.506 226.288 187.786 215.398 192.602 205.718C195.051 200.8 195.899 195.344 196.196 189.856C197.218 170.643 197.553 149.542 197.553 149.542ZM150.061 210.643C146.78 208.441 150.601 208.267 149.931 205.583C149.883 205.394 149.796 205.217 149.673 205.065C149.551 204.914 149.397 204.791 149.223 204.704C147.061 203.669 140.948 204.162 140.732 204.189C140.732 204.189 134.457 203.647 132.23 204.704C132.055 204.789 131.901 204.911 131.779 205.062C131.656 205.213 131.569 205.389 131.522 205.578C130.852 208.262 134.673 208.441 131.392 210.637C127.517 213.24 109.719 190.762 115.27 186.532C120.561 188.078 123.274 190.1 131.349 186.467C134.208 185.176 136.246 185.079 137.462 185.231C137.876 185.287 138.298 185.257 138.7 185.141C139.102 185.025 139.476 184.827 139.797 184.558C140.052 184.308 140.373 184.136 140.721 184.059C141.073 184.135 141.397 184.308 141.656 184.558C141.978 184.826 142.351 185.025 142.753 185.141C143.155 185.258 143.576 185.29 143.991 185.236C145.207 185.084 147.234 185.182 150.104 186.467C158.179 190.106 160.914 188.094 166.183 186.538C171.734 190.767 153.936 213.24 150.061 210.643ZM86.6617 164.602C85.6239 157.254 82.8783 140.92 82.8783 140.92C82.8783 140.92 84.851 170.914 85.3267 189.265" fill="url(#paint31_linear_1112_3253)"/>
<g style="mix-blend-mode:multiply" opacity="0.6">
<path d="M112.454 231.841C112.454 231.841 109.438 219.026 108.973 210.838C108.508 202.649 108.378 196.505 108.605 194.797C108.832 193.088 104.281 211.971 105.206 219.466C106.103 226.781 106.941 228.777 106.941 228.777L112.454 231.841Z" fill="#B42F97"/>
</g>
<g style="mix-blend-mode:multiply" opacity="0.6">
<path d="M195.548 195.247C195.548 195.247 194.191 185.99 191.813 181.315C191.813 181.315 193.656 198.452 190.073 207.096C192.894 203.691 194.781 199.607 195.548 195.247Z" fill="#B42F97"/>
</g>
<g style="mix-blend-mode:multiply" opacity="0.6">
<path d="M160.568 208.322C160.568 208.322 164.086 201.814 164.54 197.443C164.54 197.443 157.514 209.086 150.488 212.085C150.471 212.107 156.217 211.901 160.568 208.322Z" fill="#B42F97"/>
</g>
<g style="mix-blend-mode:multiply" opacity="0.6">
<path d="M118.307 204.905C118.307 204.905 115.464 198.067 115.448 193.685C115.448 193.685 121.269 205.973 127.976 209.688C127.976 209.688 122.28 208.907 118.307 204.905Z" fill="#B42F97"/>
</g>
<g style="mix-blend-mode:multiply" opacity="0.6">
<path d="M161.341 171.684C161.341 171.684 161.254 173.902 160.26 174.33C159.265 174.759 157.687 173.381 155.498 173.517C154.476 173.582 151.444 175.54 140.748 175.54C130.052 175.54 127.457 173.512 125.895 173.203C123.734 172.78 122.723 174.249 121.707 173.821C120.691 173.392 120.41 171.684 120.41 171.684L120.383 174.629C120.383 174.629 122.004 175.995 128.847 181.874C134.338 186.608 146.92 186.424 152.768 180.936C158.616 175.448 161.341 174.629 161.341 174.629V171.684Z" fill="#B42F97"/>
</g>
<g style="mix-blend-mode:soft-light">
<path d="M180.895 191.115C180.895 191.115 184.446 210.231 175.199 223.956C175.199 223.956 187.419 209.818 182.311 190.236L180.895 191.115Z" fill="#C4D9E0"/>
</g>
<path d="M89.2614 205.74C89.2614 205.74 90.2451 211.429 91.6828 213.289C91.7122 211.716 91.8331 210.146 92.0449 208.587L89.2614 205.74Z" fill="url(#paint32_linear_1112_3253)"/>
<path d="M192.445 204.449C192.445 204.449 191.429 210.133 189.975 211.982C189.955 210.408 189.845 208.836 189.646 207.275L192.445 204.449Z" fill="url(#paint33_linear_1112_3253)"/>
<g style="mix-blend-mode:multiply" opacity="0.6">
<path d="M182.549 219.856C181.366 221.787 178.398 224.01 173.95 226.83C172.922 227.448 171.836 227.964 170.707 228.37C171.421 227.096 172.372 225.263 173.577 222.66C176.761 215.784 178.171 196.087 177.869 197.79C177.566 199.493 175.55 205.382 172.588 213.072C171.729 215.323 170.534 217.871 169.28 220.355C167.755 223.419 165.569 226.105 162.882 228.217C160.194 230.329 157.072 231.815 153.741 232.568H153.666C148.428 233.728 146.407 229.037 141.391 223.105C140.732 225.924 133.727 234.379 127.787 232.22H127.739C126.121 231.597 124.694 230.56 123.598 229.214C122.502 227.867 121.776 226.256 121.491 224.542C121.046 222.233 120.733 219.901 120.556 217.557C120.28 212.676 120.199 209.032 120.334 208.012C120.469 206.993 117.756 218.229 118.307 222.687C118.788 226.591 119.237 227.947 119.323 228.18C114.745 225.686 110.605 223.121 110.605 223.121L112.497 232.237L119.723 235.122L129.765 238.262L135.5 239.775C139.182 240.592 143.002 240.551 146.666 239.655L150.698 238.674C150.698 238.674 155.449 237.361 162.378 235.181C167.107 233.582 171.652 231.479 175.934 228.907L180.944 224.189C180.944 224.189 183.727 217.931 182.549 219.856Z" fill="#B42F97"/>
</g>
<g style="mix-blend-mode:multiply" opacity="0.6">
<path d="M85.2726 186.678C85.2726 186.678 85.1753 192.861 85.8131 195.756C86.843 201.126 88.9384 206.232 91.9746 210.773C95.4716 216.385 98.4605 220.827 100.666 223.202C100.666 223.202 99.2442 211.575 101.314 204.954C103.384 198.332 105.098 196.95 105.098 196.95C105.098 196.95 96.4066 202.812 96.4066 212.226C89.537 204.932 85.2726 186.678 85.2726 186.678Z" fill="#B42F97"/>
</g>
<path d="M186.824 215.046C186.824 215.046 186.451 216.673 186.327 216.971C187.473 215.8 188.905 211.613 188.905 211.613L186.824 215.046Z" fill="url(#paint34_linear_1112_3253)"/>
<g style="mix-blend-mode:multiply" opacity="0.6">
<path d="M118.572 192.194C118.572 192.194 127.171 204.363 139.375 204.45C151.579 204.536 160.995 192.123 160.995 192.123L118.572 192.194Z" fill="#B42F97"/>
</g>
<path d="M115.253 188.371C115.253 188.371 123.701 200.898 138.678 201.012C153.655 201.125 164.621 188.729 164.621 188.729C164.621 188.729 148.947 192.481 138.202 192.4C127.457 192.319 115.253 188.371 115.253 188.371Z" fill="#EA8389"/>
<path d="M139.959 187.237C130.711 183.441 124.663 193.202 115.599 187.633C115.599 187.633 113.924 192.232 139.921 192.421L139.959 187.237Z" fill="#CD6B69"/>
<path d="M139.959 187.237C150.531 182.308 154.368 192.877 163.502 187.411C163.502 187.411 165.913 192.611 139.916 192.421L139.959 187.237Z" fill="#CD6B69"/>
<path d="M114.351 187.714C114.351 187.714 115.356 187.107 115.972 187.172C116.588 187.237 120.982 192.259 139.937 192.4C158.892 192.541 162.757 187.205 163.524 187.389C164.292 187.573 165.573 188.067 165.573 188.067C165.573 188.067 160.708 192.828 139.937 192.676C119.166 192.525 114.351 187.714 114.351 187.714Z" fill="#862254"/>
<g style="mix-blend-mode:soft-light">
<path d="M146.942 196.012L148.315 198.549C148.315 198.549 155.882 196.125 161.016 192.123L146.942 196.012Z" fill="#FFCCB8"/>
</g>
<g style="mix-blend-mode:multiply" opacity="0.6">
<path d="M95.9958 217.096C95.9958 217.096 98.12 224.146 100.682 226.754C100.282 223.5 100.287 222.736 100.287 222.736L95.9958 217.096Z" fill="#B42F97"/>
</g>
<path d="M128.268 237.112L141.932 242.817C141.932 242.817 140.186 240.61 139.954 239.411C139.721 238.213 128.268 237.112 128.268 237.112Z" fill="url(#paint35_linear_1112_3253)"/>
<g style="mix-blend-mode:multiply" opacity="0.6">
<path d="M128.268 237.112L141.932 242.817C141.932 242.817 140.186 240.61 139.954 239.411C139.721 238.213 128.268 237.112 128.268 237.112Z" fill="#B42F97"/>
</g>
<g style="mix-blend-mode:soft-light">
<path d="M102.093 224.33C102.093 224.33 106.292 228.094 107.697 228.734C104.687 223.007 104.86 214.33 105.303 211.874C105.746 209.417 106.357 202.655 106.357 202.655C106.357 202.655 101.622 210.295 101.028 214.433C100.695 217.406 100.718 220.408 101.098 223.376L102.093 224.33Z" fill="#C4D9E0"/>
</g>
<g style="mix-blend-mode:soft-light">
<path d="M150.898 232.302C154.495 228.898 157.778 225.175 160.708 221.179C164.159 216.413 166.622 211.001 167.951 205.263C169.572 198.403 169.734 195.843 169.734 195.843C169.734 195.843 169.864 206.505 168.653 211.613C167.464 216.521 163.275 227.009 158.892 230.051C154.509 233.094 150.898 232.302 150.898 232.302Z" fill="#C4D9E0"/>
</g>
<g style="mix-blend-mode:soft-light">
<path d="M183.814 190.442C184.679 191.626 185.741 192.652 186.954 193.474C188.862 194.726 191.424 194.054 191.424 194.054L191.375 194.217C191.093 195.248 190.912 196.305 190.835 197.373C190.767 198.337 190.615 199.293 190.381 200.231C190.381 200.231 190.332 198.457 189.354 197.644C188.376 196.83 185.03 197.807 185.03 197.807C185.03 197.807 185.387 192.812 183.814 190.442Z" fill="#C4D9E0"/>
</g>
<g style="mix-blend-mode:soft-light">
<path d="M95.4391 205.426C95.4391 205.426 93.1853 197.834 94.2393 189.943C94.2393 189.943 92.3638 194.406 91.7368 194.092C91.1099 193.777 89.0344 191.565 89.0344 191.565C89.0344 191.565 88.5912 203.012 95.4391 205.426Z" fill="#C4D9E0"/>
</g>
<defs>
<linearGradient id="paint0_linear_1112_3253" x1="140.862" y1="280.864" x2="140.862" y2="209.162" gradientUnits="userSpaceOnUse">
<stop stop-color="#CC9279"/>
<stop offset="0.06" stop-color="#CE937A"/>
<stop offset="0.54" stop-color="#DB9C7D"/>
<stop offset="1" stop-color="#DF9F7E"/>
</linearGradient>
<linearGradient id="paint1_linear_1112_3253" x1="140.862" y1="280.864" x2="140.862" y2="253.771" gradientUnits="userSpaceOnUse">
<stop offset="0.01" stop-color="#F4CE84"/>
<stop offset="1" stop-color="#F2DA83"/>
</linearGradient>
<linearGradient id="paint2_linear_1112_3253" x1="161.513" y1="264.72" x2="161.513" y2="215.29" gradientUnits="userSpaceOnUse">
<stop stop-color="#FFEADB"/>
<stop offset="0.99" stop-color="#D177F4"/>
</linearGradient>
<linearGradient id="paint3_linear_1112_3253" x1="177.944" y1="275.517" x2="177.944" y2="258.804" gradientUnits="userSpaceOnUse">
<stop stop-color="#FFEADB"/>
<stop offset="0.99" stop-color="#D177F4"/>
</linearGradient>
<linearGradient id="paint4_linear_1112_3253" x1="97.4173" y1="275.517" x2="97.4173" y2="257.692" gradientUnits="userSpaceOnUse">
<stop stop-color="#FFEADB"/>
<stop offset="0.99" stop-color="#D177F4"/>
</linearGradient>
<linearGradient id="paint5_linear_1112_3253" x1="191.932" y1="179.19" x2="215.476" y2="133.343" gradientUnits="userSpaceOnUse">
<stop stop-color="#EBBF97"/>
<stop offset="0.85" stop-color="#DB8879"/>
</linearGradient>
<linearGradient id="paint6_linear_1112_3253" x1="207.017" y1="168.213" x2="207.017" y2="141.473" gradientUnits="userSpaceOnUse">
<stop stop-color="#FFEADB"/>
<stop offset="0.99" stop-color="#B42F97" stop-opacity="0.6"/>
</linearGradient>
<linearGradient id="paint7_linear_1112_3253" x1="201.709" y1="167.535" x2="201.709" y2="146.803" gradientUnits="userSpaceOnUse">
<stop stop-color="#FFEADB"/>
<stop offset="0.99" stop-color="#B42F97" stop-opacity="0.6"/>
</linearGradient>
<linearGradient id="paint8_linear_1112_3253" x1="85.3051" y1="180.025" x2="67.277" y2="131.724" gradientUnits="userSpaceOnUse">
<stop stop-color="#EBBF97"/>
<stop offset="0.85" stop-color="#DB8879"/>
</linearGradient>
<linearGradient id="paint9_linear_1112_3253" x1="73.8846" y1="168.213" x2="73.8846" y2="141.473" gradientUnits="userSpaceOnUse">
<stop stop-color="#FFEADB"/>
<stop offset="0.99" stop-color="#B42F97" stop-opacity="0.6"/>
</linearGradient>
<linearGradient id="paint10_linear_1112_3253" x1="79.1867" y1="167.535" x2="79.1867" y2="146.803" gradientUnits="userSpaceOnUse">
<stop stop-color="#FFEADB"/>
<stop offset="0.99" stop-color="#B42F97" stop-opacity="0.6"/>
</linearGradient>
<linearGradient id="paint11_linear_1112_3253" x1="140.24" y1="229.807" x2="140.24" y2="65.1665" gradientUnits="userSpaceOnUse">
<stop offset="0.01" stop-color="#D57E61"/>
<stop offset="0.15" stop-color="#DE9A77"/>
<stop offset="0.31" stop-color="#EBBF95"/>
<stop offset="0.48" stop-color="#E8B290"/>
<stop offset="0.61" stop-color="#E5A68B"/>
<stop offset="1" stop-color="#CE8D65"/>
</linearGradient>
<linearGradient id="paint12_linear_1112_3253" x1="173.793" y1="211.993" x2="173.793" y2="86.3865" gradientUnits="userSpaceOnUse">
<stop stop-color="#FFEADB"/>
<stop offset="0.99" stop-color="#D17EAE"/>
</linearGradient>
<linearGradient id="paint13_linear_1112_3253" x1="106.833" y1="213.495" x2="106.833" y2="86.0828" gradientUnits="userSpaceOnUse">
<stop stop-color="#FFEADB"/>
<stop offset="0.99" stop-color="#D17EAE"/>
</linearGradient>
<linearGradient id="paint14_linear_1112_3253" x1="180.934" y1="130.691" x2="178.322" y2="148.39" gradientUnits="userSpaceOnUse">
<stop stop-color="#36063B"/>
<stop offset="1" stop-color="#4D0E2E"/>
</linearGradient>
<linearGradient id="paint15_linear_1112_3253" x1="118.162" y1="133.923" x2="120.253" y2="151.642" gradientUnits="userSpaceOnUse">
<stop stop-color="#36063B"/>
<stop offset="1" stop-color="#4D0E2E"/>
</linearGradient>
<linearGradient id="paint16_linear_1112_3253" x1="170.538" y1="148.875" x2="172.566" y2="136.707" gradientUnits="userSpaceOnUse">
<stop stop-color="#EEE2FF"/>
<stop offset="1" stop-color="#BDC9FB"/>
</linearGradient>
<linearGradient id="paint17_linear_1112_3253" x1="167.588" y1="148.701" x2="172.041" y2="134.645" gradientUnits="userSpaceOnUse">
<stop stop-color="#4D0E2E"/>
<stop offset="1" stop-color="#36063B"/>
</linearGradient>
<linearGradient id="paint18_linear_1112_3253" x1="168.449" y1="145.965" x2="171.17" y2="137.377" gradientUnits="userSpaceOnUse">
<stop stop-color="#CAA7DB"/>
<stop offset="0.99" stop-color="#8460B8"/>
</linearGradient>
<linearGradient id="paint19_linear_1112_3253" x1="110.162" y1="148.45" x2="107.935" y2="136.362" gradientUnits="userSpaceOnUse">
<stop stop-color="#EEE2FF"/>
<stop offset="1" stop-color="#BDC9FB"/>
</linearGradient>
<linearGradient id="paint20_linear_1112_3253" x1="110.663" y1="148.363" x2="106.061" y2="134.308" gradientUnits="userSpaceOnUse">
<stop stop-color="#4D0E2E"/>
<stop offset="1" stop-color="#36063B"/>
</linearGradient>
<linearGradient id="paint21_linear_1112_3253" x1="109.773" y1="145.627" x2="106.963" y2="137.045" gradientUnits="userSpaceOnUse">
<stop stop-color="#CAA7DB"/>
<stop offset="0.99" stop-color="#8460B8"/>
</linearGradient>
<linearGradient id="paint22_linear_1112_3253" x1="140.862" y1="178.202" x2="140.862" y2="151.738" gradientUnits="userSpaceOnUse">
<stop stop-color="#F97C99"/>
<stop offset="0.15" stop-color="#FB8297"/>
<stop offset="0.57" stop-color="#FE8E94"/>
<stop offset="1" stop-color="#FF9293"/>
</linearGradient>
<linearGradient id="paint23_linear_1112_3253" x1="140.862" y1="177.644" x2="140.862" y2="151.185" gradientUnits="userSpaceOnUse">
<stop offset="0.04" stop-color="#EF7966"/>
<stop offset="0.16" stop-color="#EE907E"/>
<stop offset="0.31" stop-color="#ECA998"/>
<stop offset="0.45" stop-color="#EBB8A7"/>
<stop offset="0.56" stop-color="#EBBDAD"/>
<stop offset="1" stop-color="#E5B487"/>
</linearGradient>
<linearGradient id="paint24_linear_1112_3253" x1="154.579" y1="173.051" x2="154.579" y2="161.256" gradientUnits="userSpaceOnUse">
<stop stop-color="#FFEADB"/>
<stop offset="0.99" stop-color="#B42F97" stop-opacity="0.6"/>
</linearGradient>
<linearGradient id="paint25_linear_1112_3253" x1="127.041" y1="173.051" x2="127.041" y2="161.256" gradientUnits="userSpaceOnUse">
<stop stop-color="#FFEADB"/>
<stop offset="0.99" stop-color="#B42F97" stop-opacity="0.6"/>
</linearGradient>
<linearGradient id="paint26_linear_1112_3253" x1="142.207" y1="143.566" x2="142.207" y2="50.8335" gradientUnits="userSpaceOnUse">
<stop stop-color="#36062C"/>
<stop offset="1" stop-color="#441B3E"/>
</linearGradient>
<linearGradient id="paint27_linear_1112_3253" x1="168.005" y1="57.9592" x2="168.221" y2="57.9592" gradientUnits="userSpaceOnUse">
<stop stop-color="#FFEADB"/>
<stop offset="0.99" stop-color="#D177F4"/>
</linearGradient>
<linearGradient id="paint28_linear_1112_3253" x1="111.611" y1="183.72" x2="116.212" y2="170.079" gradientUnits="userSpaceOnUse">
<stop stop-color="#FFEADB"/>
<stop offset="0.99" stop-color="#B42F97" stop-opacity="0.6"/>
</linearGradient>
<linearGradient id="paint29_linear_1112_3253" x1="168.977" y1="183.02" x2="163.122" y2="169.255" gradientUnits="userSpaceOnUse">
<stop stop-color="#FFEADB"/>
<stop offset="0.99" stop-color="#B42F97" stop-opacity="0.6"/>
</linearGradient>
<linearGradient id="paint30_linear_1112_3253" x1="96.2415" y1="221.426" x2="100.517" y2="220.901" gradientUnits="userSpaceOnUse">
<stop stop-color="#36062C"/>
<stop offset="1" stop-color="#441B3E"/>
</linearGradient>
<linearGradient id="paint31_linear_1112_3253" x1="82.8891" y1="190.637" x2="197.548" y2="190.637" gradientUnits="userSpaceOnUse">
<stop stop-color="#36062C"/>
<stop offset="1" stop-color="#441B3E"/>
</linearGradient>
<linearGradient id="paint32_linear_1112_3253" x1="89.2614" y1="209.515" x2="92.0449" y2="209.515" gradientUnits="userSpaceOnUse">
<stop stop-color="#36062C"/>
<stop offset="1" stop-color="#441B3E"/>
</linearGradient>
<linearGradient id="paint33_linear_1112_3253" x1="191.727" y1="207.396" x2="188.943" y2="207.368" gradientUnits="userSpaceOnUse">
<stop stop-color="#36062C"/>
<stop offset="1" stop-color="#441B3E"/>
</linearGradient>
<linearGradient id="paint34_linear_1112_3253" x1="186.327" y1="214.292" x2="188.905" y2="214.292" gradientUnits="userSpaceOnUse">
<stop stop-color="#36062C"/>
<stop offset="1" stop-color="#441B3E"/>
</linearGradient>
<linearGradient id="paint35_linear_1112_3253" x1="128.268" y1="239.965" x2="141.932" y2="239.965" gradientUnits="userSpaceOnUse">
<stop stop-color="#36062C"/>
<stop offset="1" stop-color="#441B3E"/>
</linearGradient>
</defs>
</svg>
