<svg width="280" height="281" viewBox="0 0 280 281" fill="none" xmlns="http://www.w3.org/2000/svg">
<rect width="280" height="280.862" rx="20" fill="#F7DFD3"/>
<path d="M96.8477 210.962C96.8477 210.962 95.4085 250.371 94.4122 254.265C93.4159 258.159 42.2154 279.973 42.2154 279.973H237.785C237.785 279.973 182.145 260.272 180.645 255.768C179.145 251.264 179.112 213.68 179.112 213.68L96.8477 210.962Z" fill="url(#paint0_linear_1112_3177)"/>
<path d="M94.6059 253.122C94.6059 253.122 90.521 252.645 90.0782 253.122C89.6353 253.599 90.0782 256.822 90.0782 256.822L42.2154 279.973H237.785L186.147 257.937C186.147 257.937 184.37 253.039 180.645 255.768L181.924 257.604C181.924 257.604 164.598 276.191 135.721 276.191C106.844 276.191 94.6059 253.122 94.6059 253.122Z" fill="url(#paint1_linear_1112_3177)"/>
<g style="mix-blend-mode:multiply">
<path d="M96.1835 226.654C96.1835 226.654 105.826 229.372 108.162 233.548C110.497 237.725 125.487 269.102 137.31 269.601C149.133 270.101 156.805 253.405 162.799 249.567C168.794 245.729 179.665 245.446 179.665 245.446L179.112 213.658L96.8477 210.94L96.1835 226.654Z" fill="#C65894"/>
</g>
<path style="mix-blend-mode:multiply" opacity="0.85" d="M152.775 232.566L149.731 263.849C149.731 263.849 157.076 255.602 160.801 249.589C164.526 243.577 171.545 220.042 171.545 220.042L152.775 232.566Z" fill="url(#paint2_linear_1112_3177)"/>
<path style="mix-blend-mode:multiply" opacity="0.85" d="M186.147 257.937C186.147 257.937 173.582 269.291 160.652 274.632C160.652 274.632 186.33 266.451 193.509 261.082L186.147 257.937Z" fill="url(#paint3_linear_1112_3177)"/>
<path style="mix-blend-mode:multiply" opacity="0.85" d="M90.0947 256.822C96.7957 263.337 104.015 269.293 111.682 274.632C111.682 274.632 95.4307 270.278 81.4986 260.993L90.0947 256.822Z" fill="url(#paint4_linear_1112_3177)"/>
<g style="mix-blend-mode:multiply" opacity="0.6">
<path d="M102.145 262.635C102.145 262.635 115.247 274.632 137.946 274.632C160.646 274.632 174.396 263.849 174.396 263.849C174.396 263.849 158.77 276.191 135.721 276.191C112.673 276.191 102.145 262.635 102.145 262.635Z" fill="#D177B8"/>
</g>
<path d="M78.7255 147.648C78.7255 147.648 70.9209 135.734 65.6237 135.762C62.4022 135.762 54.6253 142.556 54.7139 149.029C54.8301 157.693 62.4631 167.538 64.3949 172.585C66.3267 177.633 71.2419 184.233 74.5243 184.855C77.8066 185.476 82.0854 179.264 82.0854 179.264C82.0854 179.264 80.4912 155.507 78.7255 147.648Z" fill="url(#paint5_linear_1112_3177)"/>
<path style="mix-blend-mode:multiply" opacity="0.85" d="M78.1498 160.327C78.1498 160.327 65.3359 144.464 60.6753 144.464C56.0146 144.464 56.0091 153.488 57.9077 158.641C59.2084 162.202 61.7823 167.355 61.7823 167.355C61.7823 167.355 59.7675 161.808 59.5239 157.682C59.1531 151.314 60.5645 146.683 62.1753 146.694C65.1255 146.694 67.4448 150.754 67.8156 152.191C68.1865 153.627 65.4853 159.911 66.1994 164.293C66.9134 168.675 69.5205 170.345 70.4116 169.868C71.3028 169.391 69.9356 164.449 70.7271 162.701C71.5187 160.954 73.8268 158.397 75.1553 158.957C76.4837 159.518 78.1498 160.327 78.1498 160.327Z" fill="url(#paint6_linear_1112_3177)"/>
<path style="mix-blend-mode:multiply" opacity="0.85" d="M78.1498 160.328C78.1498 160.328 74.9948 158.436 74.0316 159.041C73.0685 159.645 70.633 161.847 70.5279 163.228C70.4227 164.61 71.3028 168.548 70.5279 169.23C69.7529 169.912 66.9688 165.48 66.8414 161.559C66.7141 157.637 68.9116 153.117 68.9116 152.59C68.9116 152.063 68.4024 149.545 68.4024 149.545C68.4024 149.545 75.8472 156.606 78.1498 160.328Z" fill="url(#paint7_linear_1112_3177)"/>
<path d="M198.834 148.064C198.834 148.064 205.996 135.745 211.288 135.49C214.504 135.335 222.629 141.691 222.884 148.164C223.227 156.817 216.109 167.056 214.47 172.203C212.832 177.35 208.249 184.178 205.005 184.988C201.762 185.798 197.156 179.807 197.156 179.807C197.156 179.807 197.477 156.001 198.834 148.064Z" fill="url(#paint8_linear_1112_3177)"/>
<path style="mix-blend-mode:multiply" opacity="0.85" d="M200.079 160.694C200.079 160.694 212.04 144.17 216.684 143.921C221.329 143.671 221.816 152.684 220.21 157.926C219.103 161.553 216.834 166.834 216.834 166.834C216.834 166.834 218.555 161.204 218.572 157.055C218.605 150.676 216.95 146.128 215.345 146.222C212.4 146.405 210.297 150.56 210.004 152.013C209.71 153.466 212.771 159.601 212.262 164.01C211.753 168.42 209.251 170.234 208.348 169.801C207.446 169.368 208.537 164.371 207.651 162.663C206.765 160.954 204.33 158.536 203.013 159.163C201.695 159.789 200.079 160.694 200.079 160.694Z" fill="url(#paint9_linear_1112_3177)"/>
<path style="mix-blend-mode:multiply" opacity="0.85" d="M200.079 160.694C200.079 160.694 203.134 158.636 204.131 159.185C205.127 159.734 207.673 161.808 207.845 163.178C208.016 164.548 207.358 168.536 208.166 169.174C208.974 169.812 211.52 165.236 211.437 161.315C211.354 157.393 208.93 152.995 208.896 152.468C208.863 151.941 209.245 149.401 209.245 149.401C209.245 149.401 202.188 156.855 200.079 160.694Z" fill="url(#paint10_linear_1112_3177)"/>
<path d="M197.666 176.995C195.527 191.069 189.277 204.193 179.704 214.712C175.934 218.822 176.106 218.628 172.403 222.383C170.471 224.302 168.423 226.098 166.27 227.763C163.474 229.863 160.446 231.634 157.248 233.044C150.655 235.262 139.109 235.262 139.109 235.262C139.109 235.262 125.93 235.262 120.843 233.204C115.139 230.683 109.96 227.108 105.577 222.666C99.2776 216.276 92.0653 211.867 86.6962 199.925C86.1795 198.66 85.7035 197.403 85.2681 196.153C82.2281 187.474 80.4588 178.4 80.0152 169.213C79.6056 161.254 79.0963 153.96 78.1332 145.363C76.9487 134.891 74.6571 93.5241 77.8011 85.1709C80.9451 76.8177 118.263 54.4038 139.103 54.4038C153.727 54.4038 176.477 65.4471 189.817 74.9263C195.479 78.9476 199.453 82.6915 200.394 85.1709C203.549 93.5241 201.097 134.33 200.129 144.825C199.21 154.681 198.435 164.16 197.942 174.377C197.905 175.201 197.818 176.021 197.682 176.834C197.682 176.901 197.671 176.945 197.666 176.995Z" fill="url(#paint11_linear_1112_3177)"/>
<path style="mix-blend-mode:multiply" opacity="0.6" d="M199.774 148.757C198.8 158.43 198.435 164.288 197.948 174.399C197.461 184.511 193.376 193.258 191.638 197.035C188.632 203.53 179.715 216.049 172.486 222.804L172.425 222.865C172.257 222.993 172.05 223.058 171.839 223.047C171.628 223.037 171.428 222.952 171.273 222.809C171.118 222.665 171.019 222.471 170.993 222.261C170.967 222.052 171.015 221.839 171.13 221.662C174.39 217.718 177.888 213.298 179.261 211.029C182.123 206.303 189.252 185.659 191.732 177.267C194.018 169.502 193.332 154.881 193.741 153.361C193.772 153.231 193.772 153.097 193.741 152.967C193.566 151.745 192.975 150.621 192.066 149.787C191.158 148.953 189.99 148.459 188.759 148.391C188.605 148.379 188.451 148.408 188.311 148.474C175.58 154.648 157.685 150.554 154.386 149.722C154.226 149.682 154.081 149.598 153.966 149.48C153.852 149.361 153.773 149.213 153.738 149.051C151.491 138.696 152.205 121.662 152.249 120.669C152.249 120.636 153.578 123.515 153.583 123.481L154.021 120.658C154.087 120.237 162.755 115.666 163.181 115.666L189.689 115.411C189.833 115.404 189.972 115.363 190.096 115.29C190.22 115.218 190.325 115.117 190.401 114.996C190.478 114.875 190.525 114.737 190.538 114.594C190.551 114.451 190.53 114.307 190.475 114.174C189.54 111.911 187.658 106.88 187.89 103.475C188.156 99.6752 189.479 90.601 188.997 85.9307C188.98 85.7606 189.011 85.589 189.088 85.4362C189.164 85.2834 189.283 85.1559 189.43 85.0689C189.577 84.9818 189.746 84.9389 189.916 84.9452C190.087 84.9515 190.252 85.0067 190.392 85.1043C195.059 88.3213 198.269 91.261 199.099 93.2855C202.299 100.945 200.749 139.073 199.774 148.757Z" fill="url(#paint12_linear_1112_3177)"/>
<path style="mix-blend-mode:multiply" opacity="0.6" d="M78.4985 148.757C79.4783 158.431 79.4174 164.371 80.4193 174.394C81.4211 184.417 85.3566 193.635 87.0947 197.401C90.0948 203.896 99.0119 216.415 106.241 223.171L106.302 223.232C106.47 223.379 106.687 223.458 106.91 223.453C107.133 223.448 107.346 223.36 107.508 223.206C107.67 223.052 107.769 222.844 107.785 222.621C107.802 222.398 107.735 222.176 107.597 222C104.337 218.057 100.839 213.636 99.4658 211.373C96.6041 206.642 89.4748 185.997 86.995 177.605C84.709 169.84 85.3954 155.219 84.9858 153.705C84.9582 153.573 84.9582 153.437 84.9858 153.306C85.1614 152.084 85.7535 150.961 86.6615 150.127C87.5696 149.293 88.7376 148.799 89.9674 148.73C90.1204 148.718 90.2737 148.748 90.4103 148.818C103.141 154.986 121.036 150.898 124.335 150.061C124.491 150.017 124.632 149.931 124.743 149.813C124.854 149.694 124.932 149.548 124.966 149.39C127.181 139.034 126.494 122 126.45 121.008C126.45 120.98 125.121 123.853 125.116 123.82L124.679 120.997C124.618 120.575 115.944 116.005 115.518 116.005L88.9877 115.722C88.8441 115.716 88.704 115.675 88.5794 115.603C88.4548 115.532 88.3494 115.431 88.2721 115.309C88.1949 115.188 88.1482 115.049 88.1359 114.906C88.1237 114.762 88.1462 114.618 88.2017 114.485C89.1372 112.222 91.0136 107.191 90.7811 103.785C90.5154 99.986 89.1925 90.9117 89.6741 86.2415C89.6904 86.0713 89.6579 85.8999 89.5804 85.7475C89.5029 85.5952 89.3836 85.4682 89.2365 85.3814C89.0895 85.2946 88.9208 85.2517 88.7502 85.2576C88.5797 85.2636 88.4143 85.3182 88.2737 85.415C83.6075 88.6376 80.3971 91.5718 79.5668 93.6018C76.4284 101.301 77.5299 139.073 78.4985 148.757Z" fill="url(#paint13_linear_1112_3177)"/>
<path d="M195.302 129.377C195.302 129.377 186.689 124.513 177.772 124.668C174.558 124.74 171.356 125.087 168.202 125.706C163.872 126.615 159.617 127.848 155.471 129.394C154.491 127.534 153.889 125.498 153.699 123.404C153.509 121.309 153.735 119.198 154.364 117.191C157.441 114.058 160.846 114.973 160.846 114.973C158.792 117.79 157.552 123.709 157.552 123.709C159.266 120.891 161.163 118.189 163.231 115.622C163.231 115.622 179.322 114.047 185.499 116.332C188.178 117.325 190.431 119.66 191.311 120.298C194.71 122.827 195.302 129.377 195.302 129.377Z" fill="url(#paint14_linear_1112_3177)"/>
<g style="mix-blend-mode:multiply">
<path d="M195.302 129.377C195.302 129.377 187.049 124.635 177.512 124.746C174.396 124.779 173.377 124.851 164.781 126.46C176.72 121.218 186.324 121.89 187.304 121.978C189.612 122.189 184.824 118.19 184.824 118.19C186.834 118.647 188.792 119.307 190.669 120.159C194.605 121.995 195.302 129.377 195.302 129.377Z" fill="#CF478B"/>
</g>
<path d="M83.5134 129.899C83.5134 129.899 92.0542 124.907 100.971 124.935C104.192 124.953 107.405 125.248 110.575 125.816C114.916 126.662 119.189 127.832 123.356 129.316C124.307 127.445 124.88 125.403 125.041 123.309C125.203 121.215 124.95 119.11 124.297 117.114C121.169 114.024 117.782 115.012 117.782 115.012C119.88 117.785 121.203 123.703 121.203 123.703C119.449 120.91 117.513 118.236 115.407 115.699C115.407 115.699 99.2942 114.357 93.1502 116.731C90.4878 117.763 88.2682 120.115 87.3991 120.786C84.0061 123.337 83.5134 129.899 83.5134 129.899Z" fill="url(#paint15_linear_1112_3177)"/>
<g style="mix-blend-mode:multiply">
<path d="M83.5134 129.899C83.5134 129.899 91.6944 125.034 101.226 125.007C104.348 125.007 105.361 125.057 113.957 126.538C101.94 121.468 92.3697 122.278 91.3679 122.383C89.0652 122.633 93.7923 118.562 93.7923 118.562C91.7918 119.047 89.8462 119.737 87.9859 120.619C84.1057 122.505 83.5134 129.899 83.5134 129.899Z" fill="#CF478B"/>
</g>
<path d="M204.169 142.007L199.691 146.855L197.477 102.77C195.651 90.2681 188.123 84.8214 180.667 87.0511C171.113 89.9131 165.722 74.1885 140.814 73.6227C115.905 73.057 107.536 86.7682 100.003 85.2152C85.5393 79.957 85.2127 99.8693 84.5485 102.77L78.5041 147.337L74.6682 143.455C76.7937 118.966 76.0465 101.589 77.5908 89.1311C78.4321 82.3642 80.768 73.7281 85.3401 68.775C86.8401 67.1554 88.6224 65.447 90.3217 63.783C94.1964 59.9559 101.137 56.456 106.401 53.7991C117.411 48.2374 129.584 45.3833 141.914 45.473C154.243 45.5627 166.374 48.5937 177.302 54.315C182.051 56.7999 187.536 59.1239 191.217 62.6349C195.092 66.34 195.833 67.7267 197.035 69.5737C200.952 75.4302 203.474 82.1099 204.407 89.0978C205.957 101.572 202.459 119.238 204.169 142.007Z" fill="url(#paint16_linear_1112_3177)"/>
<path d="M204.169 142.007L200.372 145.002L197.145 101.589C196.498 98.7267 193.824 81.7374 179.671 85.5036C178.825 85.6597 177.967 85.7359 177.108 85.731C169.801 85.2151 162.456 74.1219 139.574 73.5673C127.308 73.7059 120.201 77.1115 103.307 83.052C102.26 83.4178 101.135 83.4963 100.047 83.2794C84.1223 80.2121 84.8585 98.76 84.2164 101.583L78.1886 145.607L74.7568 142.379C76.7107 116.354 75.1055 100.491 76.6443 88.0217C77.4856 81.2549 80.768 73.6893 85.3622 68.7362C84.5541 78.0711 118.523 68.5254 138.887 68.5254C159.251 68.5254 186.789 75.1203 196.199 68.5254C200.793 73.473 203.251 81.1495 204.092 87.9385C205.636 100.391 202.044 117.519 204.169 142.007Z" fill="url(#paint17_linear_1112_3177)"/>
<g style="mix-blend-mode:multiply">
<path d="M115.557 192.348C115.557 192.348 121.297 210.963 139.358 210.963C155.327 210.963 162.451 192.348 162.451 192.348C162.451 192.348 152.183 201.5 143.327 202.365C134.47 203.231 115.557 192.348 115.557 192.348Z" fill="#D0478C"/>
</g>
<path d="M111.782 185.454C111.782 185.454 121.258 204.467 127.861 206.603C134.465 208.738 146.565 207.479 150.456 206.603C154.347 205.726 166.021 186.801 166.021 186.801C166.021 186.801 153.318 198.006 138.899 198.006C124.479 198.006 111.782 185.454 111.782 185.454Z" fill="#D18C81"/>
<path d="M111.782 185.454C111.782 185.454 119.929 183.945 138.018 183.945C156.107 183.945 167.726 185.437 167.726 185.437C167.726 185.437 152.227 198.555 138.018 198.555C126.073 198.571 111.782 185.454 111.782 185.454Z" fill="url(#paint18_linear_1112_3177)"/>
<path d="M165.401 184.062C165.401 184.062 168.229 186.319 169.469 188.077C169.469 188.077 169.884 184.943 168.645 183.357C167.405 181.771 165.401 184.062 165.401 184.062Z" fill="#75294F"/>
<path d="M113.846 184.062C113.846 184.062 111.018 186.319 109.778 188.077C109.778 188.077 109.363 184.943 110.608 183.357C111.854 181.771 113.846 184.062 113.846 184.062Z" fill="#75294F"/>
<path d="M116.913 188.543C116.913 188.543 127.131 197.645 138.018 197.972C151.508 198.41 162.163 188.055 162.163 188.055C162.163 188.055 148.059 191.339 137.675 191.339C127.291 191.339 116.913 188.543 116.913 188.543Z" fill="#FFECEC"/>
<path d="M157.392 189.07L157.109 192.121L163.536 187.528L157.392 189.07Z" fill="#4E1B3D"/>
<path d="M121.313 189.553L121.872 192.348L115.025 187.706L121.313 189.553Z" fill="#4E1B3D"/>
<g style="mix-blend-mode:soft-light">
<path d="M144.124 199.792L145.784 203.674C145.784 203.674 149.283 203.463 151.386 202.62C153.489 201.777 158.504 196.38 160.176 194.034L158.388 193.524C154.064 196.484 149.226 198.609 144.124 199.792Z" fill="#FFCCB8"/>
</g>
<g style="mix-blend-mode:multiply" opacity="0.6">
<path d="M121.407 190.046C126.836 191.422 132.413 192.126 138.013 192.143C147.151 192.143 157.347 189.492 157.347 189.492L157.386 189.092C157.386 189.092 146.316 191.383 137.67 191.383C132.168 191.351 126.684 190.745 121.308 189.575L121.407 190.046Z" fill="#D177B8"/>
</g>
<path style="mix-blend-mode:multiply" opacity="0.6" d="M173.881 209.914C172.397 209.359 174.988 203.258 175.569 193.585C175.729 191.33 175.604 189.064 175.198 186.84C173.864 180.129 170.405 178.415 167.067 177.966C156.805 177.527 140.404 179.552 139.363 179.679C138.328 179.552 121.928 177.527 111.66 177.966C108.339 178.415 104.863 180.129 103.534 186.84C103.125 189.063 103.001 191.33 103.163 193.585C103.745 203.28 106.335 209.354 104.824 209.914C97.2905 214.451 83.3972 187.606 82.0854 184.993C83.3529 194.422 89.0043 206.031 94.1355 211.744C97.3791 215.361 104.281 221.506 104.281 221.506C104.281 221.506 113.536 229.599 121.402 232.966C129.361 235.623 138.633 235.268 139.363 235.234C140.094 235.201 149.438 235.234 157.397 232.583C163.591 229.566 169.021 226.132 171.717 223.653C173.433 222.083 175.425 219.859 177.008 218.178C179.399 215.638 180.656 213.486 182.77 210.968C185.162 207.773 185.621 207.773 189.474 200.84C195.186 189.508 195.413 186.252 196.088 183.967C191.25 191.261 179.538 213.209 173.881 209.914ZM139.103 219.998C139.103 219.998 133.623 219.948 129.887 219.027C126.422 218.178 123.92 217.058 119.68 214.889C114.881 212.432 113.996 214.335 109.861 196.414C108.87 192.143 108.228 187.694 109.861 184.133C110.149 183.385 110.633 182.728 111.261 182.231C111.711 181.892 112.225 181.65 112.772 181.521C117.201 180.439 119.741 181.399 125.653 181.837C131.437 182.264 138.312 182.664 139.22 182.68H153.611C158.842 182.292 160.181 181.992 163.912 181.748C164.673 181.707 165.437 181.707 166.198 181.748C166.982 181.83 167.738 182.084 168.412 182.492C169.09 183.044 169.607 183.771 169.907 184.594C171.484 189.686 170.123 192.753 168.988 196.436C163.58 213.98 163.801 211.04 158.471 214.312C156.118 215.749 152.67 217.812 150.118 218.594C146.56 219.72 142.829 220.195 139.103 219.998Z" fill="url(#paint19_linear_1112_3177)"/>
<path d="M184.547 208.833C180.152 214.063 181.226 214.557 169.901 225.605C167.818 227.467 165.585 229.153 163.226 230.647C159.495 233.077 158.039 233.709 155.393 234.341C150.163 235.856 138.998 236.033 138.998 236.033C138.998 236.033 126.998 235.778 122.199 234.369C119.791 233.659 114.571 231.147 108.494 226.049C106.318 223.991 96.3938 214.729 92.0487 208.982C95.79 213.002 99.7913 216.771 104.027 220.264C110.747 225.744 121.872 234.247 138.998 234.247C150.101 234.29 160.936 230.83 169.967 224.357C172.569 222.494 184.193 209.099 184.547 208.833Z" fill="url(#paint20_linear_1112_3177)"/>
<path style="mix-blend-mode:multiply" opacity="0.35" d="M155.72 148.602C160.762 153.292 167.455 155.786 174.329 155.535C183.058 155.263 186.678 154.714 189.042 147.542L184.06 148.591C177.695 150.834 170.812 151.155 164.266 149.512L155.72 148.602Z" fill="url(#paint21_linear_1112_3177)"/>
<path d="M186.695 147.764C186.695 147.764 183.329 151.924 175.835 152.202C168.34 152.479 160.812 150.698 156.7 147.687C157.21 146.46 157.853 145.292 158.615 144.203C160.929 140.825 165.506 136.216 173.278 136.211C184.06 136.211 186.252 145.146 186.628 147.304C186.678 147.598 186.695 147.764 186.695 147.764Z" fill="url(#paint22_linear_1112_3177)"/>
<path d="M170.964 152.329C176.549 152.329 181.077 147.792 181.077 142.196C181.077 136.599 176.549 132.062 170.964 132.062C165.379 132.062 160.851 136.599 160.851 142.196C160.851 147.792 165.379 152.329 170.964 152.329Z" fill="url(#paint23_linear_1112_3177)"/>
<path d="M179.998 144.386C181.214 139.38 178.15 134.333 173.154 133.115C168.158 131.896 163.122 134.967 161.906 139.973C160.69 144.979 163.754 150.026 168.75 151.244C173.746 152.463 178.782 149.392 179.998 144.386Z" fill="url(#paint24_linear_1112_3177)"/>
<path style="mix-blend-mode:multiply" d="M176.677 142.232C176.696 139.074 174.157 136.498 171.005 136.478C167.854 136.459 165.283 139.004 165.264 142.162C165.245 145.32 167.784 147.896 170.936 147.915C174.087 147.935 176.658 145.39 176.677 142.232Z" fill="url(#paint25_linear_1112_3177)"/>
<g style="mix-blend-mode:multiply" opacity="0.6">
<path d="M186.695 147.765C184.63 145.18 180.435 142.49 174.174 140.964C166.425 139.073 159.024 143.649 158.615 144.193C160.923 140.815 165.39 137.026 173.161 137.021C183.944 137.026 186.318 145.601 186.695 147.765Z" fill="#CF77B6"/>
</g>
<path d="M160.071 142.301C160.071 142.301 162.894 133.088 172.099 131.64C183.612 129.827 185.964 144.819 185.964 144.819C185.964 144.819 176.781 127.519 160.071 142.301Z" fill="#BC6340"/>
<path d="M160.807 149.867C161.632 150.177 176.056 151.286 185.018 149.256C185.261 149.201 180.922 153.139 174.44 153.139C165.556 153.161 160.807 149.867 160.807 149.867Z" fill="#75233D"/>
<path d="M158.615 144.192C158.615 144.192 155.294 146.966 155.355 147.942C155.416 148.918 158.897 149.012 158.897 149.012C158.897 149.012 157.309 147.615 157.469 147.021C157.63 146.428 158.615 144.192 158.615 144.192Z" fill="#870A2C"/>
<path d="M186.496 146.616C186.496 146.616 186.7 142.129 186.08 140.631C185.46 139.134 180.274 135.085 173.427 134.497C166.58 133.909 161.593 139.722 158.969 143.682C158.969 143.682 166.879 135.229 175.547 137.525C184.215 139.822 186.496 146.616 186.496 146.616Z" fill="#2E031E"/>
<path style="mix-blend-mode:multiply" opacity="0.35" d="M123.538 147.515C121.129 150.005 118.23 151.968 115.025 153.279C111.82 154.59 108.378 155.22 104.918 155.13C96.0617 154.931 92.8734 153.799 90.366 146.417L95.4196 147.454C101.896 149.707 108.895 149.975 115.523 148.225L123.538 147.515Z" fill="url(#paint26_linear_1112_3177)"/>
<path d="M91.9158 147.892C91.9158 147.892 95.3034 152.03 102.792 152.252C110.282 152.473 117.793 150.66 121.883 147.626C121.368 146.403 120.72 145.24 119.952 144.159C117.621 140.798 113.016 136.222 105.256 136.266C94.4842 136.333 92.3476 145.268 91.9712 147.432C91.938 147.731 91.9158 147.892 91.9158 147.892Z" fill="url(#paint27_linear_1112_3177)"/>
<path d="M107.608 152.363C113.187 152.363 117.71 147.831 117.71 142.24C117.71 136.649 113.187 132.117 107.608 132.117C102.029 132.117 97.5064 136.649 97.5064 142.24C97.5064 147.831 102.029 152.363 107.608 152.363Z" fill="url(#paint28_linear_1112_3177)"/>
<path d="M109.86 151.275C114.842 150.028 117.873 144.97 116.629 139.976C115.385 134.983 110.337 131.946 105.354 133.193C100.371 134.44 97.3405 139.498 98.5847 144.491C99.8288 149.484 104.877 152.521 109.86 151.275Z" fill="url(#paint29_linear_1112_3177)"/>
<path style="mix-blend-mode:multiply" d="M113.132 140.859C113.405 141.955 113.348 143.108 112.967 144.172C112.586 145.236 111.899 146.163 110.993 146.835C110.086 147.507 109.001 147.895 107.875 147.949C106.748 148.004 105.631 147.722 104.664 147.14C103.697 146.558 102.925 145.701 102.444 144.679C101.963 143.657 101.795 142.515 101.962 141.397C102.129 140.279 102.623 139.236 103.382 138.4C104.141 137.564 105.13 136.972 106.224 136.699C106.95 136.517 107.705 136.481 108.446 136.591C109.186 136.702 109.897 136.958 110.539 137.344C111.18 137.731 111.74 138.24 112.185 138.843C112.63 139.446 112.952 140.131 113.132 140.859Z" fill="url(#paint30_linear_1112_3177)"/>
<g style="mix-blend-mode:multiply" opacity="0.6">
<path d="M91.9823 147.432C94.0303 144.836 98.0212 141.769 104.265 140.221C112.014 138.291 119.531 143.638 119.952 144.176C117.621 140.815 113.016 136.239 105.256 136.283C94.4842 136.333 92.3476 145.269 91.9823 147.432Z" fill="#CF77B6"/>
</g>
<path d="M118.485 142.29C118.485 142.29 115.612 133.099 106.407 131.707C94.8993 129.96 92.6354 144.952 92.6354 144.952C92.6354 144.952 101.719 127.619 118.485 142.29Z" fill="#BC6340"/>
<path d="M117.771 149.85C116.951 150.16 102.549 151.358 93.5819 149.384C93.3384 149.328 97.6946 153.267 104.171 153.211C113.071 153.167 117.771 149.85 117.771 149.85Z" fill="#75233D"/>
<path d="M119.952 144.17C119.952 144.17 123.273 146.894 123.228 147.897C123.184 148.901 119.697 149.007 119.697 149.007C119.697 149.007 121.28 147.598 121.114 147.01C120.948 146.422 119.952 144.17 119.952 144.17Z" fill="#870A2C"/>
<path d="M92.1151 146.783C92.1151 146.783 91.8826 142.301 92.497 140.803C93.1114 139.306 98.2592 135.201 105.095 134.58C111.931 133.959 116.946 139.733 119.592 143.671C119.592 143.671 111.643 135.274 102.986 137.62C94.3292 139.966 92.1151 146.783 92.1151 146.783Z" fill="#2E031E"/>
<path d="M160.702 170.566C159.921 172.469 152.244 172.047 149.936 172.885C147.627 173.722 145.784 176.213 139.596 176.213C133.408 176.213 131.575 173.711 129.262 172.885C126.948 172.058 119.298 172.469 118.496 170.566C116.891 166.684 118.767 163.816 121.014 161.958C121.991 161.166 123.055 160.489 124.186 159.939C125.19 159.437 126.13 158.817 126.987 158.092C129.657 155.952 132.775 154.445 136.109 153.683C138.402 153.128 140.795 153.128 143.089 153.683C146.422 154.445 149.54 155.952 152.211 158.092C153.068 158.817 154.008 159.437 155.011 159.939C156.201 160.515 157.316 161.234 158.333 162.08C160.502 163.933 162.274 166.75 160.702 170.566Z" fill="url(#paint31_linear_1112_3177)"/>
<g style="mix-blend-mode:multiply" opacity="0.6">
<path d="M160.702 170.567C159.921 172.469 152.244 172.047 149.936 172.885C147.627 173.723 145.784 176.213 139.596 176.213C133.408 176.213 131.575 173.711 129.262 172.885C126.948 172.059 119.298 172.469 118.496 170.567C116.891 166.684 118.767 163.816 121.014 161.958C118.828 166.789 119.669 169.779 121.014 169.845C122.359 169.912 126.644 168.736 130.247 169.291C133.85 169.845 135.229 170.611 139.413 170.611C143.598 170.611 144.982 169.845 148.58 169.291C152.177 168.736 156.478 169.918 157.818 169.845C159.157 169.773 160.004 166.789 157.818 161.953L158.321 162.075C160.502 163.933 162.274 166.75 160.702 170.567Z" fill="#D077B7"/>
</g>
<path d="M123.538 172.147C124.489 171.849 125.493 171.76 126.481 171.888C127.469 172.015 128.418 172.355 129.262 172.885L123.538 172.147Z" fill="url(#paint32_linear_1112_3177)"/>
<path d="M155.487 172.147C154.537 171.849 153.533 171.76 152.545 171.888C151.557 172.015 150.608 172.355 149.764 172.885L155.487 172.147Z" fill="url(#paint33_linear_1112_3177)"/>
<g style="mix-blend-mode:multiply">
<path d="M123.538 160.272C126.162 160.372 125.138 164.743 125.138 164.743C125.138 164.743 127.214 161.332 125.692 159.046L123.538 160.272Z" fill="#CD86EF"/>
</g>
<g style="mix-blend-mode:multiply">
<path d="M155.487 160.272C152.864 160.372 153.888 164.743 153.888 164.743C153.888 164.743 151.812 161.332 153.334 159.046L155.487 160.272Z" fill="#CD86EF"/>
</g>
<path opacity="0.7" d="M144.196 164.743C143.221 166.013 143.969 166.789 144.196 167.205C144.423 167.621 147.185 167.621 147.417 167.205C147.65 166.789 147.644 164.776 147.417 164.743C147.19 164.709 144.594 164.227 144.196 164.743Z" fill="#FFCDBD"/>
<g style="mix-blend-mode:multiply">
<path d="M118.878 171.143C118.878 171.143 118.839 170.139 120.953 169.912C123.068 169.685 126.66 168.52 130.568 169.562C133.605 170.442 136.765 170.817 139.923 170.672C142.352 170.511 148.275 168.73 151.546 169.152C154.818 169.574 156.412 169.912 157.735 169.912C159.058 169.912 160.298 170.428 160.176 171.143C160.054 171.859 150.799 180.617 139.524 180.617C128.249 180.617 118.878 171.143 118.878 171.143Z" fill="#EA88BE"/>
</g>
<path style="mix-blend-mode:multiply" opacity="0.6" d="M118.701 164.532C118.701 164.532 113.232 170.827 112.684 179.092L118.701 164.532Z" fill="url(#paint34_linear_1112_3177)"/>
<path style="mix-blend-mode:multiply" opacity="0.6" d="M160.552 164.532C160.552 164.532 166.015 170.827 166.569 179.092L160.552 164.532Z" fill="url(#paint35_linear_1112_3177)"/>
<path d="M102.776 143.937C103.495 144.126 101.27 145.496 99.2167 145.734C97.379 145.945 96.1281 145.318 96.1834 145.058C96.2388 144.797 99.9308 143.188 102.776 143.937Z" fill="white"/>
<path d="M104.304 143.677C104.829 143.083 105.765 143.022 105.964 143.366C106.163 143.71 105.599 144.608 105.15 144.664C104.702 144.719 104.005 144.009 104.304 143.677Z" fill="white"/>
<path d="M175.398 143.937C174.678 144.126 176.903 145.496 178.957 145.734C180.794 145.945 182.045 145.318 181.99 145.058C181.935 144.797 178.243 143.188 175.398 143.937Z" fill="white"/>
<path d="M173.875 143.677C173.322 143.083 172.409 143.022 172.215 143.366C172.021 143.71 172.58 144.608 173.023 144.664C173.466 144.719 174.169 144.009 173.875 143.677Z" fill="white"/>
<path d="M173.692 171.902L156.739 189.304L147.66 183.665L154.667 191.735L139.272 212.288L157.125 193.831L166.035 199.326L159.197 191.399L173.692 171.902Z" fill="url(#paint36_radial_1112_3177)"/>
<g filter="url(#filter0_f_1112_3177)">
<circle cx="183.158" cy="221.818" r="12.0776" transform="rotate(-15.6413 183.158 221.818)" stroke="white"/>
</g>
<defs>
<filter id="filter0_f_1112_3177" x="162.577" y="201.238" width="41.1616" height="41.1616" filterUnits="userSpaceOnUse" color-interpolation-filters="sRGB">
<feFlood flood-opacity="0" result="BackgroundImageFix"/>
<feBlend mode="normal" in="SourceGraphic" in2="BackgroundImageFix" result="shape"/>
<feGaussianBlur stdDeviation="4" result="effect1_foregroundBlur_1112_3177"/>
</filter>
<linearGradient id="paint0_linear_1112_3177" x1="140" y1="279.973" x2="140" y2="210.962" gradientUnits="userSpaceOnUse">
<stop stop-color="#BE6249"/>
<stop offset="0.47" stop-color="#B55A3F"/>
<stop offset="1" stop-color="#B2573B"/>
</linearGradient>
<linearGradient id="paint1_linear_1112_3177" x1="140" y1="279.973" x2="140" y2="252.911" gradientUnits="userSpaceOnUse">
<stop offset="0.01" stop-color="#F48484"/>
<stop offset="1" stop-color="#EA2727"/>
</linearGradient>
<linearGradient id="paint2_linear_1112_3177" x1="160.652" y1="263.849" x2="160.652" y2="220.042" gradientUnits="userSpaceOnUse">
<stop stop-color="#FFE9DA"/>
<stop offset="0.99" stop-color="#B495B8"/>
</linearGradient>
<linearGradient id="paint3_linear_1112_3177" x1="177.08" y1="274.632" x2="177.08" y2="257.937" gradientUnits="userSpaceOnUse">
<stop stop-color="#FFE9DA"/>
<stop offset="0.99" stop-color="#B44CF3"/>
</linearGradient>
<linearGradient id="paint4_linear_1112_3177" x1="96.5543" y1="274.632" x2="96.5543" y2="256.822" gradientUnits="userSpaceOnUse">
<stop stop-color="#FFE9DA"/>
<stop offset="0.99" stop-color="#B44CF3"/>
</linearGradient>
<linearGradient id="paint5_linear_1112_3177" x1="76.0077" y1="183.096" x2="62.8945" y2="135.748" gradientUnits="userSpaceOnUse">
<stop stop-color="#BA5F40"/>
<stop offset="0.57" stop-color="#AD4531"/>
<stop offset="1" stop-color="#A63629"/>
</linearGradient>
<linearGradient id="paint6_linear_1112_3177" x1="67.4337" y1="169.945" x2="67.4337" y2="144.464" gradientUnits="userSpaceOnUse">
<stop stop-color="#FFE9DA"/>
<stop offset="0.99" stop-color="#B44CF3"/>
</linearGradient>
<linearGradient id="paint7_linear_1112_3177" x1="72.4929" y1="169.296" x2="72.4929" y2="149.545" gradientUnits="userSpaceOnUse">
<stop stop-color="#FFE9DA"/>
<stop offset="0.99" stop-color="#B44CF3"/>
</linearGradient>
<linearGradient id="paint8_linear_1112_3177" x1="190.487" y1="187.426" x2="229.546" y2="123.425" gradientUnits="userSpaceOnUse">
<stop stop-color="#BA5F40"/>
<stop offset="0.57" stop-color="#AD4531"/>
<stop offset="1" stop-color="#A63629"/>
</linearGradient>
<linearGradient id="paint9_linear_1112_3177" x1="211.296" y1="169.724" x2="209.938" y2="144.279" gradientUnits="userSpaceOnUse">
<stop stop-color="#FFE9DA"/>
<stop offset="0.99" stop-color="#B44CF3"/>
</linearGradient>
<linearGradient id="paint10_linear_1112_3177" x1="206.21" y1="169.345" x2="205.157" y2="149.622" gradientUnits="userSpaceOnUse">
<stop stop-color="#FFE9DA"/>
<stop offset="0.99" stop-color="#B44CF3"/>
</linearGradient>
<linearGradient id="paint11_linear_1112_3177" x1="139.087" y1="235.268" x2="139.087" y2="54.426" gradientUnits="userSpaceOnUse">
<stop stop-color="#C26354"/>
<stop offset="0.1" stop-color="#C0624E"/>
<stop offset="0.39" stop-color="#BB6140"/>
<stop offset="0.45" stop-color="#BA5D40"/>
<stop offset="0.71" stop-color="#B54F41"/>
<stop offset="0.82" stop-color="#BE5841"/>
<stop offset="1" stop-color="#C86140"/>
</linearGradient>
<linearGradient id="paint12_linear_1112_3177" x1="176.588" y1="223.115" x2="176.588" y2="84.888" gradientUnits="userSpaceOnUse">
<stop stop-color="white"/>
<stop offset="0.99" stop-color="#A76774"/>
</linearGradient>
<linearGradient id="paint13_linear_1112_3177" x1="102.04" y1="223.481" x2="102.04" y2="85.2597" gradientUnits="userSpaceOnUse">
<stop stop-color="white"/>
<stop offset="0.99" stop-color="#A76774"/>
</linearGradient>
<linearGradient id="paint14_linear_1112_3177" x1="175.636" y1="116.714" x2="174.872" y2="131.951" gradientUnits="userSpaceOnUse">
<stop stop-color="#6A1424"/>
<stop offset="1" stop-color="#2E002C"/>
</linearGradient>
<linearGradient id="paint15_linear_1112_3177" x1="103.043" y1="114.942" x2="103.959" y2="130.173" gradientUnits="userSpaceOnUse">
<stop stop-color="#6A1424"/>
<stop offset="1" stop-color="#2E002C"/>
</linearGradient>
<linearGradient id="paint16_linear_1112_3177" x1="139.74" y1="21.7286" x2="139.74" y2="155.824" gradientUnits="userSpaceOnUse">
<stop stop-color="#39002E"/>
<stop offset="0.56" stop-color="#9A333B"/>
</linearGradient>
<linearGradient id="paint17_linear_1112_3177" x1="139.624" y1="131.457" x2="139.624" y2="8.45558" gradientUnits="userSpaceOnUse">
<stop stop-color="#850E3B"/>
<stop offset="0.38" stop-color="#6B0937"/>
<stop offset="1" stop-color="#39002E"/>
</linearGradient>
<linearGradient id="paint18_linear_1112_3177" x1="139.751" y1="163.766" x2="139.751" y2="219.826" gradientUnits="userSpaceOnUse">
<stop offset="0.23" stop-color="#9E4D63"/>
<stop offset="0.49" stop-color="#82375D"/>
<stop offset="0.81" stop-color="#662156"/>
<stop offset="0.99" stop-color="#5C1954"/>
</linearGradient>
<linearGradient id="paint19_linear_1112_3177" x1="139.087" y1="116.714" x2="139.087" y2="248.13" gradientUnits="userSpaceOnUse">
<stop stop-color="#C0CDFF"/>
<stop offset="0.02" stop-color="#BEC9FE"/>
<stop offset="0.25" stop-color="#AC99F8"/>
<stop offset="0.47" stop-color="#9E73F3"/>
<stop offset="0.68" stop-color="#9358F0"/>
<stop offset="0.86" stop-color="#8D48EE"/>
<stop offset="0.99" stop-color="#8B42ED"/>
</linearGradient>
<linearGradient id="paint20_linear_1112_3177" x1="101.071" y1="222.438" x2="245.705" y2="222.438" gradientUnits="userSpaceOnUse">
<stop stop-color="#850E3B"/>
<stop offset="1" stop-color="#39002E"/>
</linearGradient>
<linearGradient id="paint21_linear_1112_3177" x1="192.359" y1="150.299" x2="172.274" y2="153.428" gradientUnits="userSpaceOnUse">
<stop stop-color="white"/>
<stop offset="0.99" stop-color="#A76774" stop-opacity="0.5"/>
</linearGradient>
<linearGradient id="paint22_linear_1112_3177" x1="170.546" y1="152.502" x2="174.573" y2="135.993" gradientUnits="userSpaceOnUse">
<stop stop-color="#ECE0FF"/>
<stop offset="1" stop-color="#BBC7F9"/>
</linearGradient>
<linearGradient id="paint23_linear_1112_3177" x1="172.058" y1="161.924" x2="152.429" y2="157.078" gradientUnits="userSpaceOnUse">
<stop stop-color="#604300"/>
<stop offset="1" stop-color="#471400"/>
</linearGradient>
<linearGradient id="paint24_linear_1112_3177" x1="169.389" y1="148.637" x2="172.811" y2="134.607" gradientUnits="userSpaceOnUse">
<stop stop-color="#621E18"/>
<stop offset="1" stop-color="#2E0010"/>
</linearGradient>
<linearGradient id="paint25_linear_1112_3177" x1="154.705" y1="142.391" x2="156.797" y2="133.819" gradientUnits="userSpaceOnUse">
<stop stop-color="#604300"/>
<stop offset="1" stop-color="#471400"/>
</linearGradient>
<linearGradient id="paint26_linear_1112_3177" x1="87.6224" y1="149.444" x2="107.654" y2="152.256" gradientUnits="userSpaceOnUse">
<stop stop-color="white"/>
<stop offset="0.99" stop-color="#A76774" stop-opacity="0.5"/>
</linearGradient>
<linearGradient id="paint27_linear_1112_3177" x1="106.737" y1="162.975" x2="102.655" y2="146.51" gradientUnits="userSpaceOnUse">
<stop stop-color="#ECE0FF"/>
<stop offset="1" stop-color="#BBC7F9"/>
</linearGradient>
<linearGradient id="paint28_linear_1112_3177" x1="97.8128" y1="144.701" x2="117.419" y2="139.815" gradientUnits="userSpaceOnUse">
<stop stop-color="#604300"/>
<stop offset="1" stop-color="#471400"/>
</linearGradient>
<linearGradient id="paint29_linear_1112_3177" x1="109.212" y1="148.675" x2="105.709" y2="134.677" gradientUnits="userSpaceOnUse">
<stop stop-color="#621E18"/>
<stop offset="1" stop-color="#2E0010"/>
</linearGradient>
<linearGradient id="paint30_linear_1112_3177" x1="108.596" y1="146.193" x2="106.449" y2="137.612" gradientUnits="userSpaceOnUse">
<stop stop-color="#604300"/>
<stop offset="1" stop-color="#471400"/>
</linearGradient>
<linearGradient id="paint31_linear_1112_3177" x1="139.596" y1="153.261" x2="139.596" y2="176.218" gradientUnits="userSpaceOnUse">
<stop stop-color="#BC6340"/>
<stop offset="0.18" stop-color="#C16843"/>
<stop offset="0.4" stop-color="#D0784C"/>
<stop offset="0.47" stop-color="#D67E50"/>
<stop offset="0.63" stop-color="#D1784E"/>
<stop offset="0.85" stop-color="#C46747"/>
<stop offset="1" stop-color="#B85740"/>
</linearGradient>
<linearGradient id="paint32_linear_1112_3177" x1="123.538" y1="172.347" x2="129.262" y2="172.347" gradientUnits="userSpaceOnUse">
<stop stop-color="#721E24"/>
<stop offset="1" stop-color="#510036"/>
</linearGradient>
<linearGradient id="paint33_linear_1112_3177" x1="149.764" y1="172.347" x2="155.487" y2="172.347" gradientUnits="userSpaceOnUse">
<stop stop-color="#721E24"/>
<stop offset="1" stop-color="#510036"/>
</linearGradient>
<linearGradient id="paint34_linear_1112_3177" x1="115.689" y1="179.086" x2="115.689" y2="164.526" gradientUnits="userSpaceOnUse">
<stop stop-color="#FFEADB"/>
<stop offset="0.99" stop-color="#D177F4"/>
</linearGradient>
<linearGradient id="paint35_linear_1112_3177" x1="163.558" y1="179.086" x2="163.558" y2="164.526" gradientUnits="userSpaceOnUse">
<stop stop-color="#FFEADB"/>
<stop offset="0.99" stop-color="#D177F4"/>
</linearGradient>
<radialGradient id="paint36_radial_1112_3177" cx="0" cy="0" r="1" gradientUnits="userSpaceOnUse" gradientTransform="translate(157.181 190.756) rotate(134.556) scale(38.7407 17.6261)">
<stop stop-color="white"/>
<stop offset="1" stop-color="white" stop-opacity="0"/>
</radialGradient>
</defs>
</svg>
